<svg xmlns="http://www.w3.org/2000/svg" viewBox="0 0 44 36" width="44" height="36"><rect x="6" y="8" width="2" height="2" fill="#191c2e"/><rect x="8" y="6" width="2" height="2" fill="#191c2e"/><rect x="24" y="32" width="2" height="2" fill="#191c2e"/><rect x="18" y="4" width="2" height="2" fill="#191c2e"/><rect x="6" y="32" width="2" height="2" fill="#191c2e"/><rect x="38" y="12" width="2" height="2" fill="#191c2e"/><rect x="28" y="32" width="2" height="2" fill="#191c2e"/><rect x="22" y="4" width="2" height="2" fill="#191c2e"/><rect x="38" y="18" width="2" height="2" fill="#191c2e"/><rect x="10" y="32" width="2" height="2" fill="#191c2e"/><rect x="38" y="24" width="2" height="2" fill="#191c2e"/><rect x="26" y="4" width="2" height="2" fill="#191c2e"/><rect x="4" y="10" width="2" height="2" fill="#191c2e"/><rect x="32" y="8" width="2" height="2" fill="#191c2e"/><rect x="30" y="4" width="2" height="2" fill="#191c2e"/><rect x="4" y="22" width="2" height="2" fill="#191c2e"/><rect x="4" y="16" width="2" height="2" fill="#191c2e"/><rect x="4" y="28" width="2" height="2" fill="#191c2e"/><rect x="36" y="8" width="2" height="2" fill="#191c2e"/><rect x="12" y="4" width="2" height="2" fill="#191c2e"/><rect x="38" y="30" width="2" height="2" fill="#191c2e"/><rect x="32" y="32" width="2" height="2" fill="#191c2e"/><rect x="14" y="32" width="2" height="2" fill="#191c2e"/><rect x="36" y="32" width="2" height="2" fill="#191c2e"/><rect x="16" y="4" width="2" height="2" fill="#191c2e"/><rect x="38" y="10" width="2" height="2" fill="#191c2e"/><rect x="20" y="4" width="2" height="2" fill="#191c2e"/><rect x="38" y="22" width="2" height="2" fill="#191c2e"/><rect x="38" y="16" width="2" height="2" fill="#191c2e"/><rect x="38" y="28" width="2" height="2" fill="#191c2e"/><rect x="18" y="32" width="2" height="2" fill="#191c2e"/><rect x="4" y="14" width="2" height="2" fill="#191c2e"/><rect x="22" y="32" width="2" height="2" fill="#191c2e"/><rect x="32" y="6" width="2" height="2" fill="#191c2e"/><rect x="4" y="20" width="2" height="2" fill="#191c2e"/><rect x="26" y="32" width="2" height="2" fill="#191c2e"/><rect x="4" y="26" width="2" height="2" fill="#191c2e"/><rect x="30" y="32" width="2" height="2" fill="#191c2e"/><rect x="24" y="4" width="2" height="2" fill="#191c2e"/><rect x="12" y="32" width="2" height="2" fill="#191c2e"/><rect x="28" y="4" width="2" height="2" fill="#191c2e"/><rect x="34" y="8" width="2" height="2" fill="#191c2e"/><rect x="10" y="4" width="2" height="2" fill="#191c2e"/><rect x="8" y="32" width="2" height="2" fill="#191c2e"/><rect x="38" y="14" width="2" height="2" fill="#191c2e"/><rect x="34" y="32" width="2" height="2" fill="#191c2e"/><rect x="38" y="20" width="2" height="2" fill="#191c2e"/><rect x="16" y="32" width="2" height="2" fill="#191c2e"/><rect x="38" y="26" width="2" height="2" fill="#191c2e"/><rect x="4" y="18" width="2" height="2" fill="#191c2e"/><rect x="20" y="32" width="2" height="2" fill="#191c2e"/><rect x="4" y="12" width="2" height="2" fill="#191c2e"/><rect x="4" y="24" width="2" height="2" fill="#191c2e"/><rect x="14" y="4" width="2" height="2" fill="#191c2e"/><rect x="4" y="30" width="2" height="2" fill="#191c2e"/><rect x="10" y="6" width="2" height="2" fill="#5a5f78"/><rect x="12" y="6" width="2" height="2" fill="#5a5f78"/><rect x="14" y="6" width="2" height="2" fill="#5a5f78"/><rect x="16" y="6" width="2" height="2" fill="#5a5f78"/><rect x="18" y="6" width="2" height="2" fill="#5a5f78"/><rect x="20" y="6" width="2" height="2" fill="#5a5f78"/><rect x="22" y="6" width="2" height="2" fill="#5a5f78"/><rect x="24" y="6" width="2" height="2" fill="#5a5f78"/><rect x="26" y="6" width="2" height="2" fill="#5a5f78"/><rect x="28" y="6" width="2" height="2" fill="#5a5f78"/><rect x="30" y="6" width="2" height="2" fill="#5a5f78"/><rect x="8" y="8" width="2" height="2" fill="#767c98"/><rect x="10" y="8" width="2" height="2" fill="#767c98"/><rect x="12" y="8" width="2" height="2" fill="#767c98"/><rect x="14" y="8" width="2" height="2" fill="#5a5f78"/><rect x="16" y="8" width="2" height="2" fill="#5a5f78"/><rect x="18" y="8" width="2" height="2" fill="#5a5f78"/><rect x="20" y="8" width="2" height="2" fill="#5a5f78"/><rect x="22" y="8" width="2" height="2" fill="#5a5f78"/><rect x="24" y="8" width="2" height="2" fill="#5a5f78"/><rect x="26" y="8" width="2" height="2" fill="#5a5f78"/><rect x="28" y="8" width="2" height="2" fill="#5a5f78"/><rect x="30" y="8" width="2" height="2" fill="#5a5f78"/><rect x="6" y="10" width="2" height="2" fill="#5a5f78"/><rect x="8" y="10" width="2" height="2" fill="#767c98"/><rect x="10" y="10" width="2" height="2" fill="#767c98"/><rect x="12" y="10" width="2" height="2" fill="#767c98"/><rect x="14" y="10" width="2" height="2" fill="#5a5f78"/><rect x="16" y="10" width="2" height="2" fill="#5a5f78"/><rect x="18" y="10" width="2" height="2" fill="#5a5f78"/><rect x="20" y="10" width="2" height="2" fill="#767c98"/><rect x="22" y="10" width="2" height="2" fill="#5a5f78"/><rect x="24" y="10" width="2" height="2" fill="#5a5f78"/><rect x="26" y="10" width="2" height="2" fill="#5a5f78"/><rect x="28" y="10" width="2" height="2" fill="#5a5f78"/><rect x="30" y="10" width="2" height="2" fill="#5a5f78"/><rect x="32" y="10" width="2" height="2" fill="#5a5f78"/><rect x="34" y="10" width="2" height="2" fill="#5a5f78"/><rect x="36" y="10" width="2" height="2" fill="#5a5f78"/><rect x="6" y="12" width="2" height="2" fill="#5a5f78"/><rect x="8" y="12" width="2" height="2" fill="#767c98"/><rect x="10" y="12" width="2" height="2" fill="#767c98"/><rect x="12" y="12" width="2" height="2" fill="#767c98"/><rect x="14" y="12" width="2" height="2" fill="#5a5f78"/><rect x="16" y="12" width="2" height="2" fill="#5a5f78"/><rect x="18" y="12" width="2" height="2" fill="#5a5f78"/><rect x="20" y="12" width="2" height="2" fill="#5a5f78"/><rect x="22" y="12" width="2" height="2" fill="#5a5f78"/><rect x="24" y="12" width="2" height="2" fill="#5a5f78"/><rect x="26" y="12" width="2" height="2" fill="#3c4058"/><rect x="28" y="12" width="2" height="2" fill="#5a5f78"/><rect x="30" y="12" width="2" height="2" fill="#5a5f78"/><rect x="32" y="12" width="2" height="2" fill="#3c4058"/><rect x="34" y="12" width="2" height="2" fill="#3c4058"/><rect x="36" y="12" width="2" height="2" fill="#3c4058"/><rect x="6" y="14" width="2" height="2" fill="#5a5f78"/><rect x="8" y="14" width="2" height="2" fill="#767c98"/><rect x="10" y="14" width="2" height="2" fill="#767c98"/><rect x="12" y="14" width="2" height="2" fill="#767c98"/><rect x="14" y="14" width="2" height="2" fill="#5a5f78"/><rect x="16" y="14" width="2" height="2" fill="#5a5f78"/><rect x="18" y="14" width="2" height="2" fill="#5a5f78"/><rect x="20" y="14" width="2" height="2" fill="#5a5f78"/><rect x="22" y="14" width="2" height="2" fill="#5a5f78"/><rect x="24" y="14" width="2" height="2" fill="#5a5f78"/><rect x="26" y="14" width="2" height="2" fill="#5a5f78"/><rect x="28" y="14" width="2" height="2" fill="#5a5f78"/><rect x="30" y="14" width="2" height="2" fill="#5a5f78"/><rect x="32" y="14" width="2" height="2" fill="#3c4058"/><rect x="34" y="14" width="2" height="2" fill="#3c4058"/><rect x="36" y="14" width="2" height="2" fill="#3c4058"/><rect x="6" y="16" width="2" height="2" fill="#5a5f78"/><rect x="8" y="16" width="2" height="2" fill="#767c98"/><rect x="10" y="16" width="2" height="2" fill="#767c98"/><rect x="12" y="16" width="2" height="2" fill="#767c98"/><rect x="14" y="16" width="2" height="2" fill="#5a5f78"/><rect x="16" y="16" width="2" height="2" fill="#3c4058"/><rect x="18" y="16" width="2" height="2" fill="#5a5f78"/><rect x="20" y="16" width="2" height="2" fill="#5a5f78"/><rect x="22" y="16" width="2" height="2" fill="#5a5f78"/><rect x="24" y="16" width="2" height="2" fill="#5a5f78"/><rect x="26" y="16" width="2" height="2" fill="#5a5f78"/><rect x="28" y="16" width="2" height="2" fill="#5a5f78"/><rect x="30" y="16" width="2" height="2" fill="#5a5f78"/><rect x="32" y="16" width="2" height="2" fill="#3c4058"/><rect x="34" y="16" width="2" height="2" fill="#3c4058"/><rect x="36" y="16" width="2" height="2" fill="#3c4058"/><rect x="6" y="18" width="2" height="2" fill="#5a5f78"/><rect x="8" y="18" width="2" height="2" fill="#767c98"/><rect x="10" y="18" width="2" height="2" fill="#767c98"/><rect x="12" y="18" width="2" height="2" fill="#767c98"/><rect x="14" y="18" width="2" height="2" fill="#5a5f78"/><rect x="16" y="18" width="2" height="2" fill="#5a5f78"/><rect x="18" y="18" width="2" height="2" fill="#5a5f78"/><rect x="20" y="18" width="2" height="2" fill="#5a5f78"/><rect x="22" y="18" width="2" height="2" fill="#5a5f78"/><rect x="24" y="18" width="2" height="2" fill="#5a5f78"/><rect x="26" y="18" width="2" height="2" fill="#5a5f78"/><rect x="28" y="18" width="2" height="2" fill="#5a5f78"/><rect x="30" y="18" width="2" height="2" fill="#5a5f78"/><rect x="32" y="18" width="2" height="2" fill="#3c4058"/><rect x="34" y="18" width="2" height="2" fill="#3c4058"/><rect x="36" y="18" width="2" height="2" fill="#3c4058"/><rect x="6" y="20" width="2" height="2" fill="#5a5f78"/><rect x="8" y="20" width="2" height="2" fill="#767c98"/><rect x="10" y="20" width="2" height="2" fill="#767c98"/><rect x="12" y="20" width="2" height="2" fill="#767c98"/><rect x="14" y="20" width="2" height="2" fill="#5a5f78"/><rect x="16" y="20" width="2" height="2" fill="#5a5f78"/><rect x="18" y="20" width="2" height="2" fill="#767c98"/><rect x="20" y="20" width="2" height="2" fill="#5a5f78"/><rect x="22" y="20" width="2" height="2" fill="#5a5f78"/><rect x="24" y="20" width="2" height="2" fill="#5a5f78"/><rect x="26" y="20" width="2" height="2" fill="#5a5f78"/><rect x="28" y="20" width="2" height="2" fill="#5a5f78"/><rect x="30" y="20" width="2" height="2" fill="#3c4058"/><rect x="32" y="20" width="2" height="2" fill="#3c4058"/><rect x="34" y="20" width="2" height="2" fill="#3c4058"/><rect x="36" y="20" width="2" height="2" fill="#3c4058"/><rect x="6" y="22" width="2" height="2" fill="#5a5f78"/><rect x="8" y="22" width="2" height="2" fill="#767c98"/><rect x="10" y="22" width="2" height="2" fill="#767c98"/><rect x="12" y="22" width="2" height="2" fill="#767c98"/><rect x="14" y="22" width="2" height="2" fill="#5a5f78"/><rect x="16" y="22" width="2" height="2" fill="#5a5f78"/><rect x="18" y="22" width="2" height="2" fill="#5a5f78"/><rect x="20" y="22" width="2" height="2" fill="#5a5f78"/><rect x="22" y="22" width="2" height="2" fill="#5a5f78"/><rect x="24" y="22" width="2" height="2" fill="#5a5f78"/><rect x="26" y="22" width="2" height="2" fill="#5a5f78"/><rect x="28" y="22" width="2" height="2" fill="#5a5f78"/><rect x="30" y="22" width="2" height="2" fill="#5a5f78"/><rect x="32" y="22" width="2" height="2" fill="#3c4058"/><rect x="34" y="22" width="2" height="2" fill="#3c4058"/><rect x="36" y="22" width="2" height="2" fill="#3c4058"/><rect x="6" y="24" width="2" height="2" fill="#5a5f78"/><rect x="8" y="24" width="2" height="2" fill="#767c98"/><rect x="10" y="24" width="2" height="2" fill="#767c98"/><rect x="12" y="24" width="2" height="2" fill="#767c98"/><rect x="14" y="24" width="2" height="2" fill="#5a5f78"/><rect x="16" y="24" width="2" height="2" fill="#5a5f78"/><rect x="18" y="24" width="2" height="2" fill="#5a5f78"/><rect x="20" y="24" width="2" height="2" fill="#5a5f78"/><rect x="22" y="24" width="2" height="2" fill="#3c4058"/><rect x="24" y="24" width="2" height="2" fill="#5a5f78"/><rect x="26" y="24" width="2" height="2" fill="#5a5f78"/><rect x="28" y="24" width="2" height="2" fill="#5a5f78"/><rect x="30" y="24" width="2" height="2" fill="#5a5f78"/><rect x="32" y="24" width="2" height="2" fill="#3c4058"/><rect x="34" y="24" width="2" height="2" fill="#3c4058"/><rect x="36" y="24" width="2" height="2" fill="#3c4058"/><rect x="6" y="26" width="2" height="2" fill="#3c4058"/><rect x="8" y="26" width="2" height="2" fill="#3c4058"/><rect x="10" y="26" width="2" height="2" fill="#3c4058"/><rect x="12" y="26" width="2" height="2" fill="#3c4058"/><rect x="14" y="26" width="2" height="2" fill="#3c4058"/><rect x="16" y="26" width="2" height="2" fill="#3c4058"/><rect x="18" y="26" width="2" height="2" fill="#3c4058"/><rect x="20" y="26" width="2" height="2" fill="#3c4058"/><rect x="22" y="26" width="2" height="2" fill="#3c4058"/><rect x="24" y="26" width="2" height="2" fill="#3c4058"/><rect x="26" y="26" width="2" height="2" fill="#3c4058"/><rect x="28" y="26" width="2" height="2" fill="#3c4058"/><rect x="30" y="26" width="2" height="2" fill="#3c4058"/><rect x="32" y="26" width="2" height="2" fill="#3c4058"/><rect x="34" y="26" width="2" height="2" fill="#3c4058"/><rect x="36" y="26" width="2" height="2" fill="#3c4058"/><rect x="6" y="28" width="2" height="2" fill="#3c4058"/><rect x="8" y="28" width="2" height="2" fill="#3c4058"/><rect x="10" y="28" width="2" height="2" fill="#3c4058"/><rect x="12" y="28" width="2" height="2" fill="#3c4058"/><rect x="14" y="28" width="2" height="2" fill="#3c4058"/><rect x="16" y="28" width="2" height="2" fill="#3c4058"/><rect x="18" y="28" width="2" height="2" fill="#3c4058"/><rect x="20" y="28" width="2" height="2" fill="#3c4058"/><rect x="22" y="28" width="2" height="2" fill="#3c4058"/><rect x="24" y="28" width="2" height="2" fill="#3c4058"/><rect x="26" y="28" width="2" height="2" fill="#3c4058"/><rect x="28" y="28" width="2" height="2" fill="#3c4058"/><rect x="30" y="28" width="2" height="2" fill="#3c4058"/><rect x="32" y="28" width="2" height="2" fill="#3c4058"/><rect x="34" y="28" width="2" height="2" fill="#3c4058"/><rect x="36" y="28" width="2" height="2" fill="#3c4058"/><rect x="6" y="30" width="2" height="2" fill="#3c4058"/><rect x="8" y="30" width="2" height="2" fill="#3c4058"/><rect x="10" y="30" width="2" height="2" fill="#3c4058"/><rect x="12" y="30" width="2" height="2" fill="#3c4058"/><rect x="14" y="30" width="2" height="2" fill="#3c4058"/><rect x="16" y="30" width="2" height="2" fill="#3c4058"/><rect x="18" y="30" width="2" height="2" fill="#3c4058"/><rect x="20" y="30" width="2" height="2" fill="#3c4058"/><rect x="22" y="30" width="2" height="2" fill="#3c4058"/><rect x="24" y="30" width="2" height="2" fill="#3c4058"/><rect x="26" y="30" width="2" height="2" fill="#3c4058"/><rect x="28" y="30" width="2" height="2" fill="#3c4058"/><rect x="30" y="30" width="2" height="2" fill="#3c4058"/><rect x="32" y="30" width="2" height="2" fill="#3c4058"/><rect x="34" y="30" width="2" height="2" fill="#3c4058"/><rect x="36" y="30" width="2" height="2" fill="#3c4058"/></svg>