<svg xmlns="http://www.w3.org/2000/svg" viewBox="0 0 18 8" width="18" height="8"><rect x="8" y="0" width="2" height="2" fill="#5a3a00"/><rect x="0" y="0" width="2" height="2" fill="#5a3a00"/><rect x="8" y="6" width="2" height="2" fill="#5a3a00"/><rect x="10" y="6" width="2" height="2" fill="#5a3a00"/><rect x="14" y="0" width="2" height="2" fill="#5a3a00"/><rect x="4" y="0" width="2" height="2" fill="#5a3a00"/><rect x="0" y="6" width="2" height="2" fill="#5a3a00"/><rect x="16" y="0" width="2" height="2" fill="#5a3a00"/><rect x="6" y="0" width="2" height="2" fill="#5a3a00"/><rect x="4" y="6" width="2" height="2" fill="#5a3a00"/><rect x="14" y="6" width="2" height="2" fill="#5a3a00"/><rect x="16" y="6" width="2" height="2" fill="#5a3a00"/><rect x="6" y="6" width="2" height="2" fill="#5a3a00"/><rect x="10" y="0" width="2" height="2" fill="#5a3a00"/><rect x="2" y="0" width="2" height="2" fill="#5a3a00"/><rect x="2" y="6" width="2" height="2" fill="#5a3a00"/><rect x="12" y="0" width="2" height="2" fill="#ffe066"/><rect x="0" y="2" width="2" height="2" fill="#ffd23f"/><rect x="2" y="2" width="2" height="2" fill="#fff3b0"/><rect x="4" y="2" width="2" height="2" fill="#fff3b0"/><rect x="6" y="2" width="2" height="2" fill="#fff3b0"/><rect x="8" y="2" width="2" height="2" fill="#fff3b0"/><rect x="10" y="2" width="2" height="2" fill="#ffd23f"/><rect x="12" y="2" width="2" height="2" fill="#ffffff"/><rect x="14" y="2" width="2" height="2" fill="#ffffff"/><rect x="16" y="2" width="2" height="2" fill="#ffffff"/><rect x="0" y="4" width="2" height="2" fill="#ffd23f"/><rect x="2" y="4" width="2" height="2" fill="#ffd23f"/><rect x="4" y="4" width="2" height="2" fill="#ffd23f"/><rect x="6" y="4" width="2" height="2" fill="#ffd23f"/><rect x="8" y="4" width="2" height="2" fill="#ffd23f"/><rect x="10" y="4" width="2" height="2" fill="#ffd23f"/><rect x="12" y="4" width="2" height="2" fill="#ffffff"/><rect x="14" y="4" width="2" height="2" fill="#ffffff"/><rect x="16" y="4" width="2" height="2" fill="#ffffff"/><rect x="12" y="6" width="2" height="2" fill="#ffe066"/></svg>