<svg xmlns="http://www.w3.org/2000/svg" viewBox="0 0 60 36" width="60" height="36"><rect x="27" y="6" width="3" height="3" fill="#cdeeff"/><rect x="30" y="6" width="3" height="3" fill="#cdeeff"/><rect x="33" y="6" width="3" height="3" fill="#cdeeff"/><rect x="36" y="6" width="3" height="3" fill="#cdeeff"/><rect x="39" y="6" width="3" height="3" fill="#cdeeff"/><rect x="6" y="9" width="3" height="3" fill="#cdeeff"/><rect x="9" y="9" width="3" height="3" fill="#cdeeff"/><rect x="12" y="9" width="3" height="3" fill="#cdeeff"/><rect x="15" y="9" width="3" height="3" fill="#cdeeff"/><rect x="18" y="9" width="3" height="3" fill="#cdeeff"/><rect x="21" y="9" width="3" height="3" fill="#cdeeff"/><rect x="24" y="9" width="3" height="3" fill="#cdeeff"/><rect x="27" y="9" width="3" height="3" fill="#cdeeff"/><rect x="30" y="9" width="3" height="3" fill="#eafaff"/><rect x="33" y="9" width="3" height="3" fill="#cdeeff"/><rect x="36" y="9" width="3" height="3" fill="#cdeeff"/><rect x="39" y="9" width="3" height="3" fill="#cdeeff"/><rect x="6" y="12" width="3" height="3" fill="#cdeeff"/><rect x="9" y="12" width="3" height="3" fill="#cdeeff"/><rect x="12" y="12" width="3" height="3" fill="#cdeeff"/><rect x="15" y="12" width="3" height="3" fill="#cdeeff"/><rect x="18" y="12" width="3" height="3" fill="#cdeeff"/><rect x="21" y="12" width="3" height="3" fill="#cdeeff"/><rect x="24" y="12" width="3" height="3" fill="#cdeeff"/><rect x="27" y="12" width="3" height="3" fill="#cdeeff"/><rect x="30" y="12" width="3" height="3" fill="#cdeeff"/><rect x="33" y="12" width="3" height="3" fill="#cdeeff"/><rect x="36" y="12" width="3" height="3" fill="#cdeeff"/><rect x="39" y="12" width="3" height="3" fill="#cdeeff"/><rect x="45" y="12" width="3" height="3" fill="#eafaff"/><rect x="48" y="12" width="3" height="3" fill="#cdeeff"/><rect x="51" y="12" width="3" height="3" fill="#cdeeff"/><rect x="6" y="15" width="3" height="3" fill="#cdeeff"/><rect x="9" y="15" width="3" height="3" fill="#cdeeff"/><rect x="12" y="15" width="3" height="3" fill="#eafaff"/><rect x="15" y="15" width="3" height="3" fill="#cdeeff"/><rect x="18" y="15" width="3" height="3" fill="#cdeeff"/><rect x="21" y="15" width="3" height="3" fill="#cdeeff"/><rect x="24" y="15" width="3" height="3" fill="#cdeeff"/><rect x="27" y="15" width="3" height="3" fill="#cdeeff"/><rect x="30" y="15" width="3" height="3" fill="#cdeeff"/><rect x="33" y="15" width="3" height="3" fill="#cdeeff"/><rect x="36" y="15" width="3" height="3" fill="#cdeeff"/><rect x="39" y="15" width="3" height="3" fill="#cdeeff"/><rect x="45" y="15" width="3" height="3" fill="#cdeeff"/><rect x="48" y="15" width="3" height="3" fill="#cdeeff"/><rect x="51" y="15" width="3" height="3" fill="#cdeeff"/><rect x="6" y="18" width="3" height="3" fill="#cdeeff"/><rect x="9" y="18" width="3" height="3" fill="#cdeeff"/><rect x="12" y="18" width="3" height="3" fill="#cdeeff"/><rect x="15" y="18" width="3" height="3" fill="#cdeeff"/><rect x="18" y="18" width="3" height="3" fill="#cdeeff"/><rect x="21" y="18" width="3" height="3" fill="#cdeeff"/><rect x="24" y="18" width="3" height="3" fill="#cdeeff"/><rect x="27" y="18" width="3" height="3" fill="#cdeeff"/><rect x="30" y="18" width="3" height="3" fill="#cdeeff"/><rect x="33" y="18" width="3" height="3" fill="#cdeeff"/><rect x="36" y="18" width="3" height="3" fill="#cdeeff"/><rect x="39" y="18" width="3" height="3" fill="#cdeeff"/><rect x="42" y="18" width="3" height="3" fill="#cdeeff"/><rect x="45" y="18" width="3" height="3" fill="#cdeeff"/><rect x="48" y="18" width="3" height="3" fill="#cdeeff"/><rect x="51" y="18" width="3" height="3" fill="#cdeeff"/><rect x="6" y="21" width="3" height="3" fill="#cdeeff"/><rect x="9" y="21" width="3" height="3" fill="#cdeeff"/><rect x="12" y="21" width="3" height="3" fill="#cdeeff"/><rect x="15" y="21" width="3" height="3" fill="#cdeeff"/><rect x="18" y="21" width="3" height="3" fill="#cdeeff"/><rect x="21" y="21" width="3" height="3" fill="#cdeeff"/><rect x="24" y="21" width="3" height="3" fill="#cdeeff"/><rect x="36" y="21" width="3" height="3" fill="#cdeeff"/><rect x="39" y="21" width="3" height="3" fill="#eafaff"/><rect x="42" y="21" width="3" height="3" fill="#cdeeff"/><rect x="45" y="21" width="3" height="3" fill="#cdeeff"/><rect x="48" y="21" width="3" height="3" fill="#cdeeff"/><rect x="6" y="24" width="3" height="3" fill="#cdeeff"/><rect x="9" y="24" width="3" height="3" fill="#cdeeff"/><rect x="12" y="24" width="3" height="3" fill="#cdeeff"/><rect x="15" y="24" width="3" height="3" fill="#cdeeff"/><rect x="18" y="24" width="3" height="3" fill="#cdeeff"/><rect x="21" y="24" width="3" height="3" fill="#eafaff"/><rect x="24" y="24" width="3" height="3" fill="#cdeeff"/><rect x="27" y="24" width="3" height="3" fill="#cdeeff"/><rect x="36" y="24" width="3" height="3" fill="#cdeeff"/><rect x="39" y="24" width="3" height="3" fill="#cdeeff"/><rect x="42" y="24" width="3" height="3" fill="#cdeeff"/><rect x="45" y="24" width="3" height="3" fill="#cdeeff"/><rect x="48" y="24" width="3" height="3" fill="#cdeeff"/><rect x="6" y="27" width="3" height="3" fill="#cdeeff"/><rect x="9" y="27" width="3" height="3" fill="#cdeeff"/><rect x="12" y="27" width="3" height="3" fill="#cdeeff"/><rect x="15" y="27" width="3" height="3" fill="#cdeeff"/><rect x="18" y="27" width="3" height="3" fill="#cdeeff"/><rect x="21" y="27" width="3" height="3" fill="#cdeeff"/><rect x="24" y="27" width="3" height="3" fill="#cdeeff"/><rect x="27" y="27" width="3" height="3" fill="#cdeeff"/><rect x="36" y="27" width="3" height="3" fill="#cdeeff"/><rect x="39" y="27" width="3" height="3" fill="#cdeeff"/><rect x="42" y="27" width="3" height="3" fill="#cdeeff"/><rect x="45" y="27" width="3" height="3" fill="#cdeeff"/><rect x="48" y="27" width="3" height="3" fill="#cdeeff"/><rect x="21" y="30" width="3" height="3" fill="#cdeeff"/><rect x="24" y="30" width="3" height="3" fill="#cdeeff"/><rect x="27" y="30" width="3" height="3" fill="#cdeeff"/><rect x="36" y="30" width="3" height="3" fill="#cdeeff"/><rect x="39" y="30" width="3" height="3" fill="#cdeeff"/><rect x="42" y="30" width="3" height="3" fill="#cdeeff"/><rect x="45" y="30" width="3" height="3" fill="#cdeeff"/><rect x="48" y="30" width="3" height="3" fill="#cdeeff"/></svg>