<svg xmlns="http://www.w3.org/2000/svg" viewBox="0 0 16 16" width="16" height="16"><rect x="4" y="2" width="2" height="2" fill="#cdeeff"/><rect x="6" y="2" width="2" height="2" fill="#cdeeff"/><rect x="8" y="2" width="2" height="2" fill="#cdeeff"/><rect x="10" y="2" width="2" height="2" fill="#cdeeff"/><rect x="2" y="4" width="2" height="2" fill="#cdeeff"/><rect x="4" y="4" width="2" height="2" fill="#ffffff"/><rect x="6" y="4" width="2" height="2" fill="#ffffff"/><rect x="8" y="4" width="2" height="2" fill="#cdeeff"/><rect x="10" y="4" width="2" height="2" fill="#cdeeff"/><rect x="12" y="4" width="2" height="2" fill="#cdeeff"/><rect x="2" y="6" width="2" height="2" fill="#cdeeff"/><rect x="4" y="6" width="2" height="2" fill="#cdeeff"/><rect x="6" y="6" width="2" height="2" fill="#cdeeff"/><rect x="8" y="6" width="2" height="2" fill="#cdeeff"/><rect x="10" y="6" width="2" height="2" fill="#cdeeff"/><rect x="12" y="6" width="2" height="2" fill="#cdeeff"/><rect x="2" y="8" width="2" height="2" fill="#cdeeff"/><rect x="4" y="8" width="2" height="2" fill="#cdeeff"/><rect x="6" y="8" width="2" height="2" fill="#cdeeff"/><rect x="8" y="8" width="2" height="2" fill="#cdeeff"/><rect x="10" y="8" width="2" height="2" fill="#cdeeff"/><rect x="12" y="8" width="2" height="2" fill="#cdeeff"/><rect x="2" y="10" width="2" height="2" fill="#cdeeff"/><rect x="4" y="10" width="2" height="2" fill="#cdeeff"/><rect x="6" y="10" width="2" height="2" fill="#cdeeff"/><rect x="8" y="10" width="2" height="2" fill="#cdeeff"/><rect x="10" y="10" width="2" height="2" fill="#cdeeff"/><rect x="12" y="10" width="2" height="2" fill="#cdeeff"/><rect x="4" y="12" width="2" height="2" fill="#cdeeff"/><rect x="6" y="12" width="2" height="2" fill="#cdeeff"/><rect x="8" y="12" width="2" height="2" fill="#cdeeff"/><rect x="10" y="12" width="2" height="2" fill="#cdeeff"/></svg>