<svg xmlns="http://www.w3.org/2000/svg" viewBox="0 0 14 14" width="14" height="14"><rect x="12" y="4" width="2" height="2" fill="#9a8a5a"/><rect x="8" y="0" width="2" height="2" fill="#9a8a5a"/><rect x="0" y="8" width="2" height="2" fill="#9a8a5a"/><rect x="10" y="10" width="2" height="2" fill="#9a8a5a"/><rect x="2" y="10" width="2" height="2" fill="#9a8a5a"/><rect x="2" y="2" width="2" height="2" fill="#9a8a5a"/><rect x="8" y="12" width="2" height="2" fill="#9a8a5a"/><rect x="4" y="0" width="2" height="2" fill="#9a8a5a"/><rect x="10" y="2" width="2" height="2" fill="#9a8a5a"/><rect x="12" y="8" width="2" height="2" fill="#9a8a5a"/><rect x="0" y="4" width="2" height="2" fill="#9a8a5a"/><rect x="4" y="12" width="2" height="2" fill="#9a8a5a"/><rect x="6" y="0" width="2" height="2" fill="#c9b88a"/><rect x="4" y="2" width="2" height="2" fill="#e8dcc0"/><rect x="6" y="2" width="2" height="2" fill="#e8dcc0"/><rect x="8" y="2" width="2" height="2" fill="#e8dcc0"/><rect x="2" y="4" width="2" height="2" fill="#e8dcc0"/><rect x="4" y="4" width="2" height="2" fill="#e8dcc0"/><rect x="6" y="4" width="2" height="2" fill="#e8dcc0"/><rect x="8" y="4" width="2" height="2" fill="#e8dcc0"/><rect x="10" y="4" width="2" height="2" fill="#e8dcc0"/><rect x="0" y="6" width="2" height="2" fill="#c9b88a"/><rect x="2" y="6" width="2" height="2" fill="#e8dcc0"/><rect x="4" y="6" width="2" height="2" fill="#e8dcc0"/><rect x="6" y="6" width="2" height="2" fill="#ffffff"/><rect x="8" y="6" width="2" height="2" fill="#e8dcc0"/><rect x="10" y="6" width="2" height="2" fill="#e8dcc0"/><rect x="12" y="6" width="2" height="2" fill="#c9b88a"/><rect x="2" y="8" width="2" height="2" fill="#e8dcc0"/><rect x="4" y="8" width="2" height="2" fill="#e8dcc0"/><rect x="6" y="8" width="2" height="2" fill="#e8dcc0"/><rect x="8" y="8" width="2" height="2" fill="#e8dcc0"/><rect x="10" y="8" width="2" height="2" fill="#e8dcc0"/><rect x="4" y="10" width="2" height="2" fill="#e8dcc0"/><rect x="6" y="10" width="2" height="2" fill="#e8dcc0"/><rect x="8" y="10" width="2" height="2" fill="#e8dcc0"/><rect x="6" y="12" width="2" height="2" fill="#c9b88a"/></svg>