<svg xmlns="http://www.w3.org/2000/svg" viewBox="0 0 24 24" width="24" height="24"><rect x="18" y="10" width="2" height="2" fill="#14141f"/><rect x="18" y="16" width="2" height="2" fill="#14141f"/><rect x="18" y="22" width="2" height="2" fill="#14141f"/><rect x="4" y="10" width="2" height="2" fill="#14141f"/><rect x="4" y="22" width="2" height="2" fill="#14141f"/><rect x="4" y="16" width="2" height="2" fill="#14141f"/><rect x="8" y="4" width="2" height="2" fill="#14141f"/><rect x="10" y="0" width="2" height="2" fill="#14141f"/><rect x="16" y="4" width="2" height="2" fill="#14141f"/><rect x="18" y="14" width="2" height="2" fill="#14141f"/><rect x="18" y="8" width="2" height="2" fill="#14141f"/><rect x="18" y="20" width="2" height="2" fill="#14141f"/><rect x="4" y="8" width="2" height="2" fill="#14141f"/><rect x="4" y="14" width="2" height="2" fill="#14141f"/><rect x="12" y="2" width="2" height="2" fill="#14141f"/><rect x="4" y="20" width="2" height="2" fill="#14141f"/><rect x="6" y="4" width="2" height="2" fill="#14141f"/><rect x="8" y="2" width="2" height="2" fill="#14141f"/><rect x="18" y="6" width="2" height="2" fill="#14141f"/><rect x="18" y="18" width="2" height="2" fill="#14141f"/><rect x="18" y="12" width="2" height="2" fill="#14141f"/><rect x="4" y="6" width="2" height="2" fill="#14141f"/><rect x="4" y="18" width="2" height="2" fill="#14141f"/><rect x="4" y="12" width="2" height="2" fill="#14141f"/><rect x="14" y="4" width="2" height="2" fill="#14141f"/><rect x="10" y="2" width="2" height="2" fill="#ff5c7a"/><rect x="10" y="4" width="2" height="2" fill="#3f8f3a"/><rect x="12" y="4" width="2" height="2" fill="#3f8f3a"/><rect x="6" y="6" width="2" height="2" fill="#5fae4a"/><rect x="8" y="6" width="2" height="2" fill="#5fae4a"/><rect x="10" y="6" width="2" height="2" fill="#3f8f3a"/><rect x="12" y="6" width="2" height="2" fill="#3f8f3a"/><rect x="14" y="6" width="2" height="2" fill="#2f6a2a"/><rect x="16" y="6" width="2" height="2" fill="#2f6a2a"/><rect x="6" y="8" width="2" height="2" fill="#5fae4a"/><rect x="8" y="8" width="2" height="2" fill="#5fae4a"/><rect x="10" y="8" width="2" height="2" fill="#2a5f26"/><rect x="12" y="8" width="2" height="2" fill="#3f8f3a"/><rect x="14" y="8" width="2" height="2" fill="#2a5f26"/><rect x="16" y="8" width="2" height="2" fill="#2f6a2a"/><rect x="6" y="10" width="2" height="2" fill="#5fae4a"/><rect x="8" y="10" width="2" height="2" fill="#e8f0c0"/><rect x="10" y="10" width="2" height="2" fill="#2a5f26"/><rect x="12" y="10" width="2" height="2" fill="#3f8f3a"/><rect x="14" y="10" width="2" height="2" fill="#2a5f26"/><rect x="16" y="10" width="2" height="2" fill="#2f6a2a"/><rect x="6" y="12" width="2" height="2" fill="#5fae4a"/><rect x="8" y="12" width="2" height="2" fill="#5fae4a"/><rect x="10" y="12" width="2" height="2" fill="#2a5f26"/><rect x="12" y="12" width="2" height="2" fill="#3f8f3a"/><rect x="14" y="12" width="2" height="2" fill="#2a5f26"/><rect x="16" y="12" width="2" height="2" fill="#2f6a2a"/><rect x="6" y="14" width="2" height="2" fill="#5fae4a"/><rect x="8" y="14" width="2" height="2" fill="#5fae4a"/><rect x="10" y="14" width="2" height="2" fill="#2a5f26"/><rect x="12" y="14" width="2" height="2" fill="#3f8f3a"/><rect x="14" y="14" width="2" height="2" fill="#2a5f26"/><rect x="16" y="14" width="2" height="2" fill="#e8f0c0"/><rect x="6" y="16" width="2" height="2" fill="#5fae4a"/><rect x="8" y="16" width="2" height="2" fill="#5fae4a"/><rect x="10" y="16" width="2" height="2" fill="#2a5f26"/><rect x="12" y="16" width="2" height="2" fill="#3f8f3a"/><rect x="14" y="16" width="2" height="2" fill="#2a5f26"/><rect x="16" y="16" width="2" height="2" fill="#2f6a2a"/><rect x="6" y="18" width="2" height="2" fill="#5fae4a"/><rect x="8" y="18" width="2" height="2" fill="#5fae4a"/><rect x="10" y="18" width="2" height="2" fill="#2a5f26"/><rect x="12" y="18" width="2" height="2" fill="#3f8f3a"/><rect x="14" y="18" width="2" height="2" fill="#2a5f26"/><rect x="16" y="18" width="2" height="2" fill="#2f6a2a"/><rect x="6" y="20" width="2" height="2" fill="#5fae4a"/><rect x="8" y="20" width="2" height="2" fill="#5fae4a"/><rect x="10" y="20" width="2" height="2" fill="#2a5f26"/><rect x="12" y="20" width="2" height="2" fill="#3f8f3a"/><rect x="14" y="20" width="2" height="2" fill="#2a5f26"/><rect x="16" y="20" width="2" height="2" fill="#2f6a2a"/><rect x="6" y="22" width="2" height="2" fill="#5fae4a"/><rect x="8" y="22" width="2" height="2" fill="#5fae4a"/><rect x="10" y="22" width="2" height="2" fill="#3f8f3a"/><rect x="12" y="22" width="2" height="2" fill="#3f8f3a"/><rect x="14" y="22" width="2" height="2" fill="#2f6a2a"/><rect x="16" y="22" width="2" height="2" fill="#2f6a2a"/></svg>