<svg xmlns="http://www.w3.org/2000/svg" viewBox="0 0 32 32" width="32" height="32"><rect x="28" y="2" width="2" height="2" fill="#14141f"/><rect x="8" y="30" width="2" height="2" fill="#14141f"/><rect x="18" y="10" width="2" height="2" fill="#14141f"/><rect x="16" y="18" width="2" height="2" fill="#14141f"/><rect x="18" y="16" width="2" height="2" fill="#14141f"/><rect x="16" y="12" width="2" height="2" fill="#14141f"/><rect x="0" y="28" width="2" height="2" fill="#14141f"/><rect x="30" y="4" width="2" height="2" fill="#14141f"/><rect x="2" y="24" width="2" height="2" fill="#14141f"/><rect x="14" y="14" width="2" height="2" fill="#14141f"/><rect x="12" y="22" width="2" height="2" fill="#14141f"/><rect x="14" y="20" width="2" height="2" fill="#14141f"/><rect x="12" y="16" width="2" height="2" fill="#14141f"/><rect x="28" y="6" width="2" height="2" fill="#14141f"/><rect x="8" y="28" width="2" height="2" fill="#14141f"/><rect x="10" y="18" width="2" height="2" fill="#14141f"/><rect x="10" y="24" width="2" height="2" fill="#14141f"/><rect x="26" y="8" width="2" height="2" fill="#14141f"/><rect x="26" y="2" width="2" height="2" fill="#14141f"/><rect x="0" y="26" width="2" height="2" fill="#14141f"/><rect x="24" y="4" width="2" height="2" fill="#14141f"/><rect x="24" y="10" width="2" height="2" fill="#14141f"/><rect x="6" y="22" width="2" height="2" fill="#14141f"/><rect x="8" y="20" width="2" height="2" fill="#14141f"/><rect x="8" y="26" width="2" height="2" fill="#14141f"/><rect x="20" y="8" width="2" height="2" fill="#14141f"/><rect x="22" y="6" width="2" height="2" fill="#14141f"/><rect x="20" y="14" width="2" height="2" fill="#14141f"/><rect x="22" y="12" width="2" height="2" fill="#14141f"/><rect x="0" y="30" width="2" height="2" fill="#14141f"/><rect x="4" y="24" width="2" height="2" fill="#14141f"/><rect x="26" y="4" width="2" height="2" fill="#ffffff"/><rect x="28" y="4" width="2" height="2" fill="#e0e0e0"/><rect x="24" y="6" width="2" height="2" fill="#ffffff"/><rect x="26" y="6" width="2" height="2" fill="#e0e0e0"/><rect x="22" y="8" width="2" height="2" fill="#ffffff"/><rect x="24" y="8" width="2" height="2" fill="#e0e0e0"/><rect x="20" y="10" width="2" height="2" fill="#ffffff"/><rect x="22" y="10" width="2" height="2" fill="#e0e0e0"/><rect x="18" y="12" width="2" height="2" fill="#ffffff"/><rect x="20" y="12" width="2" height="2" fill="#e0e0e0"/><rect x="16" y="14" width="2" height="2" fill="#ffffff"/><rect x="18" y="14" width="2" height="2" fill="#e0e0e0"/><rect x="14" y="16" width="2" height="2" fill="#ffffff"/><rect x="16" y="16" width="2" height="2" fill="#e0e0e0"/><rect x="12" y="18" width="2" height="2" fill="#ffffff"/><rect x="14" y="18" width="2" height="2" fill="#e0e0e0"/><rect x="10" y="20" width="2" height="2" fill="#ffffff"/><rect x="12" y="20" width="2" height="2" fill="#e0e0e0"/><rect x="8" y="22" width="2" height="2" fill="#ffffff"/><rect x="10" y="22" width="2" height="2" fill="#e0e0e0"/><rect x="6" y="24" width="2" height="2" fill="#ffd23f"/><rect x="8" y="24" width="2" height="2" fill="#ffd23f"/><rect x="2" y="26" width="2" height="2" fill="#7a1f1f"/><rect x="4" y="26" width="2" height="2" fill="#7a1f1f"/><rect x="6" y="26" width="2" height="2" fill="#7a1f1f"/><rect x="2" y="28" width="2" height="2" fill="#a83030"/><rect x="4" y="28" width="2" height="2" fill="#7a1f1f"/><rect x="6" y="28" width="2" height="2" fill="#7a1f1f"/><rect x="2" y="30" width="2" height="2" fill="#7a1f1f"/><rect x="4" y="30" width="2" height="2" fill="#7a1f1f"/><rect x="6" y="30" width="2" height="2" fill="#7a1f1f"/></svg>