<svg xmlns="http://www.w3.org/2000/svg" viewBox="0 0 24 44" width="24" height="44"><rect x="8" y="0" width="2" height="2" fill="#14141f"/><rect x="6" y="20" width="2" height="2" fill="#14141f"/><rect x="16" y="0" width="2" height="2" fill="#14141f"/><rect x="6" y="32" width="2" height="2" fill="#14141f"/><rect x="6" y="26" width="2" height="2" fill="#14141f"/><rect x="0" y="4" width="2" height="2" fill="#14141f"/><rect x="20" y="0" width="2" height="2" fill="#14141f"/><rect x="22" y="4" width="2" height="2" fill="#14141f"/><rect x="18" y="16" width="2" height="2" fill="#14141f"/><rect x="0" y="10" width="2" height="2" fill="#14141f"/><rect x="22" y="10" width="2" height="2" fill="#14141f"/><rect x="6" y="38" width="2" height="2" fill="#14141f"/><rect x="0" y="16" width="2" height="2" fill="#14141f"/><rect x="0" y="28" width="2" height="2" fill="#14141f"/><rect x="0" y="22" width="2" height="2" fill="#14141f"/><rect x="0" y="34" width="2" height="2" fill="#14141f"/><rect x="0" y="40" width="2" height="2" fill="#14141f"/><rect x="12" y="16" width="2" height="2" fill="#14141f"/><rect x="6" y="0" width="2" height="2" fill="#14141f"/><rect x="10" y="0" width="2" height="2" fill="#14141f"/><rect x="6" y="18" width="2" height="2" fill="#14141f"/><rect x="8" y="16" width="2" height="2" fill="#14141f"/><rect x="6" y="24" width="2" height="2" fill="#14141f"/><rect x="6" y="36" width="2" height="2" fill="#14141f"/><rect x="6" y="30" width="2" height="2" fill="#14141f"/><rect x="22" y="8" width="2" height="2" fill="#14141f"/><rect x="6" y="42" width="2" height="2" fill="#14141f"/><rect x="0" y="2" width="2" height="2" fill="#14141f"/><rect x="22" y="2" width="2" height="2" fill="#14141f"/><rect x="0" y="14" width="2" height="2" fill="#14141f"/><rect x="16" y="16" width="2" height="2" fill="#14141f"/><rect x="0" y="8" width="2" height="2" fill="#14141f"/><rect x="22" y="14" width="2" height="2" fill="#14141f"/><rect x="20" y="16" width="2" height="2" fill="#14141f"/><rect x="0" y="20" width="2" height="2" fill="#14141f"/><rect x="0" y="32" width="2" height="2" fill="#14141f"/><rect x="0" y="26" width="2" height="2" fill="#14141f"/><rect x="0" y="38" width="2" height="2" fill="#14141f"/><rect x="14" y="0" width="2" height="2" fill="#14141f"/><rect x="6" y="22" width="2" height="2" fill="#14141f"/><rect x="18" y="0" width="2" height="2" fill="#14141f"/><rect x="6" y="16" width="2" height="2" fill="#14141f"/><rect x="6" y="28" width="2" height="2" fill="#14141f"/><rect x="0" y="0" width="2" height="2" fill="#14141f"/><rect x="10" y="16" width="2" height="2" fill="#14141f"/><rect x="6" y="34" width="2" height="2" fill="#14141f"/><rect x="0" y="6" width="2" height="2" fill="#14141f"/><rect x="22" y="6" width="2" height="2" fill="#14141f"/><rect x="0" y="18" width="2" height="2" fill="#14141f"/><rect x="6" y="40" width="2" height="2" fill="#14141f"/><rect x="0" y="12" width="2" height="2" fill="#14141f"/><rect x="22" y="12" width="2" height="2" fill="#14141f"/><rect x="0" y="24" width="2" height="2" fill="#14141f"/><rect x="0" y="30" width="2" height="2" fill="#14141f"/><rect x="0" y="42" width="2" height="2" fill="#14141f"/><rect x="12" y="0" width="2" height="2" fill="#14141f"/><rect x="0" y="36" width="2" height="2" fill="#14141f"/><rect x="14" y="16" width="2" height="2" fill="#14141f"/><rect x="2" y="0" width="2" height="2" fill="#4a3d26"/><rect x="4" y="0" width="2" height="2" fill="#6b5a3a"/><rect x="2" y="2" width="2" height="2" fill="#4a3d26"/><rect x="4" y="2" width="2" height="2" fill="#6b5a3a"/><rect x="6" y="2" width="2" height="2" fill="#fff0a8"/><rect x="8" y="2" width="2" height="2" fill="#fff0a8"/><rect x="10" y="2" width="2" height="2" fill="#fff0a8"/><rect x="12" y="2" width="2" height="2" fill="#fff0a8"/><rect x="14" y="2" width="2" height="2" fill="#fff0a8"/><rect x="16" y="2" width="2" height="2" fill="#fff0a8"/><rect x="18" y="2" width="2" height="2" fill="#fff0a8"/><rect x="20" y="2" width="2" height="2" fill="#fff0a8"/><rect x="2" y="4" width="2" height="2" fill="#4a3d26"/><rect x="4" y="4" width="2" height="2" fill="#6b5a3a"/><rect x="6" y="4" width="2" height="2" fill="#fff0a8"/><rect x="8" y="4" width="2" height="2" fill="#fff0a8"/><rect x="10" y="4" width="2" height="2" fill="#fff0a8"/><rect x="12" y="4" width="2" height="2" fill="#fff0a8"/><rect x="14" y="4" width="2" height="2" fill="#fff0a8"/><rect x="16" y="4" width="2" height="2" fill="#fff0a8"/><rect x="18" y="4" width="2" height="2" fill="#fff0a8"/><rect x="20" y="4" width="2" height="2" fill="#fff0a8"/><rect x="2" y="6" width="2" height="2" fill="#4a3d26"/><rect x="4" y="6" width="2" height="2" fill="#6b5a3a"/><rect x="6" y="6" width="2" height="2" fill="#ffd54f"/><rect x="8" y="6" width="2" height="2" fill="#ffd54f"/><rect x="10" y="6" width="2" height="2" fill="#ffd54f"/><rect x="12" y="6" width="2" height="2" fill="#ffd54f"/><rect x="14" y="6" width="2" height="2" fill="#ffd54f"/><rect x="16" y="6" width="2" height="2" fill="#ffd54f"/><rect x="18" y="6" width="2" height="2" fill="#ffd54f"/><rect x="20" y="6" width="2" height="2" fill="#ffd54f"/><rect x="2" y="8" width="2" height="2" fill="#4a3d26"/><rect x="4" y="8" width="2" height="2" fill="#6b5a3a"/><rect x="6" y="8" width="2" height="2" fill="#ffd54f"/><rect x="8" y="8" width="2" height="2" fill="#ffd54f"/><rect x="10" y="8" width="2" height="2" fill="#ffffff"/><rect x="12" y="8" width="2" height="2" fill="#ffffff"/><rect x="14" y="8" width="2" height="2" fill="#ffffff"/><rect x="16" y="8" width="2" height="2" fill="#ffd54f"/><rect x="18" y="8" width="2" height="2" fill="#e0a800"/><rect x="20" y="8" width="2" height="2" fill="#ffd54f"/><rect x="2" y="10" width="2" height="2" fill="#4a3d26"/><rect x="4" y="10" width="2" height="2" fill="#6b5a3a"/><rect x="6" y="10" width="2" height="2" fill="#ffd54f"/><rect x="8" y="10" width="2" height="2" fill="#ffd54f"/><rect x="10" y="10" width="2" height="2" fill="#ffd54f"/><rect x="12" y="10" width="2" height="2" fill="#ffd54f"/><rect x="14" y="10" width="2" height="2" fill="#ffd54f"/><rect x="16" y="10" width="2" height="2" fill="#ffd54f"/><rect x="18" y="10" width="2" height="2" fill="#ffd54f"/><rect x="20" y="10" width="2" height="2" fill="#ffd54f"/><rect x="2" y="12" width="2" height="2" fill="#4a3d26"/><rect x="4" y="12" width="2" height="2" fill="#6b5a3a"/><rect x="6" y="12" width="2" height="2" fill="#e0a800"/><rect x="8" y="12" width="2" height="2" fill="#e0a800"/><rect x="10" y="12" width="2" height="2" fill="#e0a800"/><rect x="12" y="12" width="2" height="2" fill="#e0a800"/><rect x="14" y="12" width="2" height="2" fill="#e0a800"/><rect x="16" y="12" width="2" height="2" fill="#e0a800"/><rect x="18" y="12" width="2" height="2" fill="#e0a800"/><rect x="20" y="12" width="2" height="2" fill="#e0a800"/><rect x="2" y="14" width="2" height="2" fill="#4a3d26"/><rect x="4" y="14" width="2" height="2" fill="#6b5a3a"/><rect x="6" y="14" width="2" height="2" fill="#e0a800"/><rect x="8" y="14" width="2" height="2" fill="#e0a800"/><rect x="10" y="14" width="2" height="2" fill="#e0a800"/><rect x="12" y="14" width="2" height="2" fill="#e0a800"/><rect x="14" y="14" width="2" height="2" fill="#e0a800"/><rect x="16" y="14" width="2" height="2" fill="#e0a800"/><rect x="18" y="14" width="2" height="2" fill="#e0a800"/><rect x="20" y="14" width="2" height="2" fill="#e0a800"/><rect x="2" y="16" width="2" height="2" fill="#4a3d26"/><rect x="4" y="16" width="2" height="2" fill="#6b5a3a"/><rect x="2" y="18" width="2" height="2" fill="#4a3d26"/><rect x="4" y="18" width="2" height="2" fill="#6b5a3a"/><rect x="2" y="20" width="2" height="2" fill="#4a3d26"/><rect x="4" y="20" width="2" height="2" fill="#6b5a3a"/><rect x="2" y="22" width="2" height="2" fill="#4a3d26"/><rect x="4" y="22" width="2" height="2" fill="#6b5a3a"/><rect x="2" y="24" width="2" height="2" fill="#4a3d26"/><rect x="4" y="24" width="2" height="2" fill="#6b5a3a"/><rect x="2" y="26" width="2" height="2" fill="#4a3d26"/><rect x="4" y="26" width="2" height="2" fill="#6b5a3a"/><rect x="2" y="28" width="2" height="2" fill="#4a3d26"/><rect x="4" y="28" width="2" height="2" fill="#6b5a3a"/><rect x="2" y="30" width="2" height="2" fill="#4a3d26"/><rect x="4" y="30" width="2" height="2" fill="#6b5a3a"/><rect x="2" y="32" width="2" height="2" fill="#4a3d26"/><rect x="4" y="32" width="2" height="2" fill="#6b5a3a"/><rect x="2" y="34" width="2" height="2" fill="#4a3d26"/><rect x="4" y="34" width="2" height="2" fill="#6b5a3a"/><rect x="2" y="36" width="2" height="2" fill="#4a3d26"/><rect x="4" y="36" width="2" height="2" fill="#6b5a3a"/><rect x="2" y="38" width="2" height="2" fill="#4a3d26"/><rect x="4" y="38" width="2" height="2" fill="#6b5a3a"/><rect x="2" y="40" width="2" height="2" fill="#4a3d26"/><rect x="4" y="40" width="2" height="2" fill="#6b5a3a"/><rect x="2" y="42" width="2" height="2" fill="#4a3d26"/><rect x="4" y="42" width="2" height="2" fill="#6b5a3a"/></svg>