<svg xmlns="http://www.w3.org/2000/svg" viewBox="0 0 60 30" width="60" height="30"><rect x="15" y="6" width="3" height="3" fill="#ffffff"/><rect x="18" y="6" width="3" height="3" fill="#ffffff"/><rect x="21" y="6" width="3" height="3" fill="#ffffff"/><rect x="24" y="6" width="3" height="3" fill="#ffffff"/><rect x="27" y="6" width="3" height="3" fill="#ffffff"/><rect x="30" y="6" width="3" height="3" fill="#ffffff"/><rect x="33" y="6" width="3" height="3" fill="#ffffff"/><rect x="36" y="6" width="3" height="3" fill="#ffffff"/><rect x="39" y="6" width="3" height="3" fill="#ffffff"/><rect x="15" y="9" width="3" height="3" fill="#ffffff"/><rect x="18" y="9" width="3" height="3" fill="#ffffff"/><rect x="21" y="9" width="3" height="3" fill="#ffffff"/><rect x="24" y="9" width="3" height="3" fill="#ffffff"/><rect x="27" y="9" width="3" height="3" fill="#ffffff"/><rect x="30" y="9" width="3" height="3" fill="#ffffff"/><rect x="33" y="9" width="3" height="3" fill="#ffffff"/><rect x="36" y="9" width="3" height="3" fill="#ffffff"/><rect x="39" y="9" width="3" height="3" fill="#ffffff"/><rect x="9" y="12" width="3" height="3" fill="#ffffff"/><rect x="12" y="12" width="3" height="3" fill="#ffffff"/><rect x="15" y="12" width="3" height="3" fill="#ffffff"/><rect x="18" y="12" width="3" height="3" fill="#ffffff"/><rect x="21" y="12" width="3" height="3" fill="#ffffff"/><rect x="24" y="12" width="3" height="3" fill="#ffffff"/><rect x="27" y="12" width="3" height="3" fill="#ffffff"/><rect x="30" y="12" width="3" height="3" fill="#ffffff"/><rect x="33" y="12" width="3" height="3" fill="#ffffff"/><rect x="36" y="12" width="3" height="3" fill="#ffffff"/><rect x="39" y="12" width="3" height="3" fill="#ffffff"/><rect x="42" y="12" width="3" height="3" fill="#ffffff"/><rect x="45" y="12" width="3" height="3" fill="#ffffff"/><rect x="48" y="12" width="3" height="3" fill="#ffffff"/><rect x="3" y="15" width="3" height="3" fill="#ffffff"/><rect x="6" y="15" width="3" height="3" fill="#ffffff"/><rect x="9" y="15" width="3" height="3" fill="#ffffff"/><rect x="12" y="15" width="3" height="3" fill="#ffffff"/><rect x="15" y="15" width="3" height="3" fill="#ffffff"/><rect x="18" y="15" width="3" height="3" fill="#eaf6ff"/><rect x="21" y="15" width="3" height="3" fill="#eaf6ff"/><rect x="24" y="15" width="3" height="3" fill="#eaf6ff"/><rect x="27" y="15" width="3" height="3" fill="#eaf6ff"/><rect x="30" y="15" width="3" height="3" fill="#eaf6ff"/><rect x="33" y="15" width="3" height="3" fill="#eaf6ff"/><rect x="36" y="15" width="3" height="3" fill="#eaf6ff"/><rect x="39" y="15" width="3" height="3" fill="#eaf6ff"/><rect x="42" y="15" width="3" height="3" fill="#ffffff"/><rect x="45" y="15" width="3" height="3" fill="#ffffff"/><rect x="48" y="15" width="3" height="3" fill="#ffffff"/><rect x="51" y="15" width="3" height="3" fill="#ffffff"/><rect x="54" y="15" width="3" height="3" fill="#ffffff"/><rect x="3" y="18" width="3" height="3" fill="#ffffff"/><rect x="6" y="18" width="3" height="3" fill="#ffffff"/><rect x="9" y="18" width="3" height="3" fill="#ffffff"/><rect x="12" y="18" width="3" height="3" fill="#ffffff"/><rect x="15" y="18" width="3" height="3" fill="#ffffff"/><rect x="18" y="18" width="3" height="3" fill="#eaf6ff"/><rect x="21" y="18" width="3" height="3" fill="#eaf6ff"/><rect x="24" y="18" width="3" height="3" fill="#eaf6ff"/><rect x="27" y="18" width="3" height="3" fill="#eaf6ff"/><rect x="30" y="18" width="3" height="3" fill="#eaf6ff"/><rect x="33" y="18" width="3" height="3" fill="#eaf6ff"/><rect x="36" y="18" width="3" height="3" fill="#eaf6ff"/><rect x="39" y="18" width="3" height="3" fill="#eaf6ff"/><rect x="42" y="18" width="3" height="3" fill="#ffffff"/><rect x="45" y="18" width="3" height="3" fill="#ffffff"/><rect x="48" y="18" width="3" height="3" fill="#ffffff"/><rect x="51" y="18" width="3" height="3" fill="#ffffff"/><rect x="54" y="18" width="3" height="3" fill="#ffffff"/><rect x="3" y="21" width="3" height="3" fill="#ffffff"/><rect x="6" y="21" width="3" height="3" fill="#ffffff"/><rect x="9" y="21" width="3" height="3" fill="#ffffff"/><rect x="12" y="21" width="3" height="3" fill="#ffffff"/><rect x="15" y="21" width="3" height="3" fill="#ffffff"/><rect x="18" y="21" width="3" height="3" fill="#ffffff"/><rect x="21" y="21" width="3" height="3" fill="#ffffff"/><rect x="24" y="21" width="3" height="3" fill="#ffffff"/><rect x="27" y="21" width="3" height="3" fill="#ffffff"/><rect x="30" y="21" width="3" height="3" fill="#ffffff"/><rect x="33" y="21" width="3" height="3" fill="#ffffff"/><rect x="36" y="21" width="3" height="3" fill="#ffffff"/><rect x="39" y="21" width="3" height="3" fill="#ffffff"/><rect x="42" y="21" width="3" height="3" fill="#ffffff"/><rect x="45" y="21" width="3" height="3" fill="#ffffff"/><rect x="48" y="21" width="3" height="3" fill="#ffffff"/><rect x="51" y="21" width="3" height="3" fill="#ffffff"/><rect x="54" y="21" width="3" height="3" fill="#ffffff"/><rect x="9" y="24" width="3" height="3" fill="#ffffff"/><rect x="12" y="24" width="3" height="3" fill="#ffffff"/><rect x="15" y="24" width="3" height="3" fill="#ffffff"/><rect x="18" y="24" width="3" height="3" fill="#ffffff"/><rect x="21" y="24" width="3" height="3" fill="#ffffff"/><rect x="24" y="24" width="3" height="3" fill="#ffffff"/><rect x="27" y="24" width="3" height="3" fill="#ffffff"/><rect x="30" y="24" width="3" height="3" fill="#ffffff"/><rect x="33" y="24" width="3" height="3" fill="#ffffff"/><rect x="36" y="24" width="3" height="3" fill="#ffffff"/><rect x="39" y="24" width="3" height="3" fill="#ffffff"/><rect x="42" y="24" width="3" height="3" fill="#ffffff"/><rect x="45" y="24" width="3" height="3" fill="#ffffff"/><rect x="48" y="24" width="3" height="3" fill="#ffffff"/></svg>