<svg xmlns="http://www.w3.org/2000/svg" viewBox="0 0 20 24" width="20" height="24"><rect x="8" y="0" width="2" height="2" fill="#14141f"/><rect x="6" y="2" width="2" height="2" fill="#14141f"/><rect x="16" y="18" width="2" height="2" fill="#14141f"/><rect x="16" y="12" width="2" height="2" fill="#14141f"/><rect x="2" y="12" width="2" height="2" fill="#14141f"/><rect x="0" y="16" width="2" height="2" fill="#14141f"/><rect x="4" y="10" width="2" height="2" fill="#14141f"/><rect x="0" y="22" width="2" height="2" fill="#14141f"/><rect x="12" y="4" width="2" height="2" fill="#14141f"/><rect x="12" y="10" width="2" height="2" fill="#14141f"/><rect x="6" y="6" width="2" height="2" fill="#14141f"/><rect x="10" y="0" width="2" height="2" fill="#14141f"/><rect x="16" y="22" width="2" height="2" fill="#14141f"/><rect x="0" y="14" width="2" height="2" fill="#14141f"/><rect x="4" y="8" width="2" height="2" fill="#14141f"/><rect x="16" y="16" width="2" height="2" fill="#14141f"/><rect x="0" y="20" width="2" height="2" fill="#14141f"/><rect x="12" y="2" width="2" height="2" fill="#14141f"/><rect x="12" y="8" width="2" height="2" fill="#14141f"/><rect x="6" y="4" width="2" height="2" fill="#14141f"/><rect x="16" y="14" width="2" height="2" fill="#14141f"/><rect x="0" y="18" width="2" height="2" fill="#14141f"/><rect x="16" y="20" width="2" height="2" fill="#14141f"/><rect x="4" y="12" width="2" height="2" fill="#14141f"/><rect x="14" y="10" width="2" height="2" fill="#14141f"/><rect x="12" y="6" width="2" height="2" fill="#14141f"/><rect x="8" y="2" width="2" height="2" fill="#c8f2ff"/><rect x="10" y="2" width="2" height="2" fill="#c8f2ff"/><rect x="8" y="4" width="2" height="2" fill="#c8f2ff"/><rect x="10" y="4" width="2" height="2" fill="#c8f2ff"/><rect x="8" y="6" width="2" height="2" fill="#c8f2ff"/><rect x="10" y="6" width="2" height="2" fill="#c8f2ff"/><rect x="6" y="8" width="2" height="2" fill="#5fd0ff"/><rect x="8" y="8" width="2" height="2" fill="#c8f2ff"/><rect x="10" y="8" width="2" height="2" fill="#c8f2ff"/><rect x="6" y="10" width="2" height="2" fill="#5fd0ff"/><rect x="8" y="10" width="2" height="2" fill="#5fd0ff"/><rect x="10" y="10" width="2" height="2" fill="#5fd0ff"/><rect x="6" y="12" width="2" height="2" fill="#5fd0ff"/><rect x="8" y="12" width="2" height="2" fill="#5fd0ff"/><rect x="10" y="12" width="2" height="2" fill="#5fd0ff"/><rect x="12" y="12" width="2" height="2" fill="#5fd0ff"/><rect x="14" y="12" width="2" height="2" fill="#5fd0ff"/><rect x="2" y="14" width="2" height="2" fill="#2f90c8"/><rect x="4" y="14" width="2" height="2" fill="#2f90c8"/><rect x="6" y="14" width="2" height="2" fill="#5fd0ff"/><rect x="8" y="14" width="2" height="2" fill="#5fd0ff"/><rect x="10" y="14" width="2" height="2" fill="#5fd0ff"/><rect x="12" y="14" width="2" height="2" fill="#5fd0ff"/><rect x="14" y="14" width="2" height="2" fill="#5fd0ff"/><rect x="2" y="16" width="2" height="2" fill="#2f90c8"/><rect x="4" y="16" width="2" height="2" fill="#2f90c8"/><rect x="6" y="16" width="2" height="2" fill="#5fd0ff"/><rect x="8" y="16" width="2" height="2" fill="#5fd0ff"/><rect x="10" y="16" width="2" height="2" fill="#5fd0ff"/><rect x="12" y="16" width="2" height="2" fill="#5fd0ff"/><rect x="14" y="16" width="2" height="2" fill="#5fd0ff"/><rect x="2" y="18" width="2" height="2" fill="#2f90c8"/><rect x="4" y="18" width="2" height="2" fill="#2f90c8"/><rect x="6" y="18" width="2" height="2" fill="#5fd0ff"/><rect x="8" y="18" width="2" height="2" fill="#5fd0ff"/><rect x="10" y="18" width="2" height="2" fill="#5fd0ff"/><rect x="12" y="18" width="2" height="2" fill="#5fd0ff"/><rect x="14" y="18" width="2" height="2" fill="#5fd0ff"/><rect x="2" y="20" width="2" height="2" fill="#2f90c8"/><rect x="4" y="20" width="2" height="2" fill="#2f90c8"/><rect x="6" y="20" width="2" height="2" fill="#5fd0ff"/><rect x="8" y="20" width="2" height="2" fill="#5fd0ff"/><rect x="10" y="20" width="2" height="2" fill="#5fd0ff"/><rect x="12" y="20" width="2" height="2" fill="#5fd0ff"/><rect x="14" y="20" width="2" height="2" fill="#5fd0ff"/><rect x="2" y="22" width="2" height="2" fill="#2f90c8"/><rect x="4" y="22" width="2" height="2" fill="#2f90c8"/><rect x="6" y="22" width="2" height="2" fill="#5fd0ff"/><rect x="8" y="22" width="2" height="2" fill="#5fd0ff"/><rect x="10" y="22" width="2" height="2" fill="#5fd0ff"/><rect x="12" y="22" width="2" height="2" fill="#5fd0ff"/><rect x="14" y="22" width="2" height="2" fill="#5fd0ff"/></svg>