<svg xmlns="http://www.w3.org/2000/svg" viewBox="0 0 72 102" width="72" height="102"><rect x="51" y="36" width="3" height="3" fill="#161009"/><rect x="24" y="27" width="3" height="3" fill="#161009"/><rect x="30" y="18" width="3" height="3" fill="#161009"/><rect x="27" y="24" width="3" height="3" fill="#161009"/><rect x="42" y="66" width="3" height="3" fill="#161009"/><rect x="27" y="51" width="3" height="3" fill="#161009"/><rect x="42" y="93" width="3" height="3" fill="#161009"/><rect x="27" y="78" width="3" height="3" fill="#161009"/><rect x="63" y="27" width="3" height="3" fill="#161009"/><rect x="9" y="18" width="3" height="3" fill="#161009"/><rect x="42" y="45" width="3" height="3" fill="#161009"/><rect x="15" y="36" width="3" height="3" fill="#161009"/><rect x="42" y="72" width="3" height="3" fill="#161009"/><rect x="27" y="57" width="3" height="3" fill="#161009"/><rect x="42" y="99" width="3" height="3" fill="#161009"/><rect x="27" y="84" width="3" height="3" fill="#161009"/><rect x="18" y="39" width="3" height="3" fill="#161009"/><rect x="48" y="45" width="3" height="3" fill="#161009"/><rect x="21" y="36" width="3" height="3" fill="#161009"/><rect x="60" y="45" width="3" height="3" fill="#161009"/><rect x="9" y="24" width="3" height="3" fill="#161009"/><rect x="15" y="15" width="3" height="3" fill="#161009"/><rect x="42" y="24" width="3" height="3" fill="#161009"/><rect x="42" y="51" width="3" height="3" fill="#161009"/><rect x="15" y="42" width="3" height="3" fill="#161009"/><rect x="27" y="36" width="3" height="3" fill="#161009"/><rect x="42" y="78" width="3" height="3" fill="#161009"/><rect x="27" y="63" width="3" height="3" fill="#161009"/><rect x="39" y="9" width="3" height="3" fill="#161009"/><rect x="21" y="42" width="3" height="3" fill="#161009"/><rect x="9" y="30" width="3" height="3" fill="#161009"/><rect x="51" y="27" width="3" height="3" fill="#161009"/><rect x="42" y="30" width="3" height="3" fill="#161009"/><rect x="33" y="6" width="3" height="3" fill="#161009"/><rect x="42" y="57" width="3" height="3" fill="#161009"/><rect x="27" y="42" width="3" height="3" fill="#161009"/><rect x="42" y="84" width="3" height="3" fill="#161009"/><rect x="39" y="15" width="3" height="3" fill="#161009"/><rect x="21" y="21" width="3" height="3" fill="#161009"/><rect x="54" y="21" width="3" height="3" fill="#161009"/><rect x="42" y="36" width="3" height="3" fill="#161009"/><rect x="51" y="33" width="3" height="3" fill="#161009"/><rect x="42" y="63" width="3" height="3" fill="#161009"/><rect x="27" y="48" width="3" height="3" fill="#161009"/><rect x="42" y="90" width="3" height="3" fill="#161009"/><rect x="39" y="21" width="3" height="3" fill="#161009"/><rect x="48" y="36" width="3" height="3" fill="#161009"/><rect x="21" y="27" width="3" height="3" fill="#161009"/><rect x="63" y="33" width="3" height="3" fill="#161009"/><rect x="27" y="27" width="3" height="3" fill="#161009"/><rect x="42" y="69" width="3" height="3" fill="#161009"/><rect x="42" y="96" width="3" height="3" fill="#161009"/><rect x="27" y="90" width="3" height="3" fill="#161009"/><rect x="18" y="45" width="3" height="3" fill="#161009"/><rect x="63" y="39" width="3" height="3" fill="#161009"/><rect x="9" y="21" width="3" height="3" fill="#161009"/><rect x="42" y="48" width="3" height="3" fill="#161009"/><rect x="42" y="75" width="3" height="3" fill="#161009"/><rect x="30" y="9" width="3" height="3" fill="#161009"/><rect x="57" y="45" width="3" height="3" fill="#161009"/><rect x="27" y="69" width="3" height="3" fill="#161009"/><rect x="27" y="96" width="3" height="3" fill="#161009"/><rect x="60" y="21" width="3" height="3" fill="#161009"/><rect x="9" y="27" width="3" height="3" fill="#161009"/><rect x="42" y="27" width="3" height="3" fill="#161009"/><rect x="42" y="54" width="3" height="3" fill="#161009"/><rect x="30" y="15" width="3" height="3" fill="#161009"/><rect x="39" y="12" width="3" height="3" fill="#161009"/><rect x="27" y="75" width="3" height="3" fill="#161009"/><rect x="63" y="24" width="3" height="3" fill="#161009"/><rect x="9" y="33" width="3" height="3" fill="#161009"/><rect x="42" y="33" width="3" height="3" fill="#161009"/><rect x="30" y="21" width="3" height="3" fill="#161009"/><rect x="27" y="54" width="3" height="3" fill="#161009"/><rect x="27" y="81" width="3" height="3" fill="#161009"/><rect x="45" y="45" width="3" height="3" fill="#161009"/><rect x="18" y="36" width="3" height="3" fill="#161009"/><rect x="63" y="30" width="3" height="3" fill="#161009"/><rect x="12" y="36" width="3" height="3" fill="#161009"/><rect x="51" y="45" width="3" height="3" fill="#161009"/><rect x="24" y="36" width="3" height="3" fill="#161009"/><rect x="27" y="60" width="3" height="3" fill="#161009"/><rect x="27" y="87" width="3" height="3" fill="#161009"/><rect x="18" y="15" width="3" height="3" fill="#161009"/><rect x="63" y="36" width="3" height="3" fill="#161009"/><rect x="12" y="15" width="3" height="3" fill="#161009"/><rect x="51" y="24" width="3" height="3" fill="#161009"/><rect x="27" y="39" width="3" height="3" fill="#161009"/><rect x="42" y="81" width="3" height="3" fill="#161009"/><rect x="27" y="66" width="3" height="3" fill="#161009"/><rect x="27" y="93" width="3" height="3" fill="#161009"/><rect x="21" y="18" width="3" height="3" fill="#161009"/><rect x="36" y="6" width="3" height="3" fill="#161009"/><rect x="54" y="45" width="3" height="3" fill="#161009"/><rect x="63" y="42" width="3" height="3" fill="#161009"/><rect x="51" y="30" width="3" height="3" fill="#161009"/><rect x="57" y="21" width="3" height="3" fill="#161009"/><rect x="30" y="12" width="3" height="3" fill="#161009"/><rect x="42" y="60" width="3" height="3" fill="#161009"/><rect x="27" y="45" width="3" height="3" fill="#161009"/><rect x="42" y="87" width="3" height="3" fill="#161009"/><rect x="27" y="72" width="3" height="3" fill="#161009"/><rect x="39" y="18" width="3" height="3" fill="#161009"/><rect x="27" y="99" width="3" height="3" fill="#161009"/><rect x="45" y="36" width="3" height="3" fill="#161009"/><rect x="21" y="24" width="3" height="3" fill="#161009"/><rect x="33" y="9" width="3" height="3" fill="#4a3a26"/><rect x="36" y="9" width="3" height="3" fill="#4a3a26"/><rect x="33" y="12" width="3" height="3" fill="#4a3a26"/><rect x="36" y="12" width="3" height="3" fill="#4a3a26"/><rect x="33" y="15" width="3" height="3" fill="#4a3a26"/><rect x="36" y="15" width="3" height="3" fill="#4a3a26"/><rect x="12" y="18" width="3" height="3" fill="#4a3a26"/><rect x="15" y="18" width="3" height="3" fill="#4a3a26"/><rect x="18" y="18" width="3" height="3" fill="#4a3a26"/><rect x="33" y="18" width="3" height="3" fill="#4a3a26"/><rect x="36" y="18" width="3" height="3" fill="#4a3a26"/><rect x="12" y="21" width="3" height="3" fill="#4a3a26"/><rect x="15" y="21" width="3" height="3" fill="#4a3a26"/><rect x="18" y="21" width="3" height="3" fill="#4a3a26"/><rect x="33" y="21" width="3" height="3" fill="#4a3a26"/><rect x="36" y="21" width="3" height="3" fill="#4a3a26"/><rect x="12" y="24" width="3" height="3" fill="#4a3a26"/><rect x="15" y="24" width="3" height="3" fill="#4a3a26"/><rect x="18" y="24" width="3" height="3" fill="#4a3a26"/><rect x="30" y="24" width="3" height="3" fill="#5f4c32"/><rect x="33" y="24" width="3" height="3" fill="#4a3a26"/><rect x="36" y="24" width="3" height="3" fill="#4a3a26"/><rect x="39" y="24" width="3" height="3" fill="#31261a"/><rect x="54" y="24" width="3" height="3" fill="#4a3a26"/><rect x="57" y="24" width="3" height="3" fill="#4a3a26"/><rect x="60" y="24" width="3" height="3" fill="#4a3a26"/><rect x="12" y="27" width="3" height="3" fill="#4a3a26"/><rect x="15" y="27" width="3" height="3" fill="#4a3a26"/><rect x="18" y="27" width="3" height="3" fill="#4a3a26"/><rect x="30" y="27" width="3" height="3" fill="#5f4c32"/><rect x="33" y="27" width="3" height="3" fill="#5f4c32"/><rect x="36" y="27" width="3" height="3" fill="#31261a"/><rect x="39" y="27" width="3" height="3" fill="#31261a"/><rect x="54" y="27" width="3" height="3" fill="#4a3a26"/><rect x="57" y="27" width="3" height="3" fill="#4a3a26"/><rect x="60" y="27" width="3" height="3" fill="#4a3a26"/><rect x="12" y="30" width="3" height="3" fill="#4a3a26"/><rect x="15" y="30" width="3" height="3" fill="#4a3a26"/><rect x="18" y="30" width="3" height="3" fill="#4a3a26"/><rect x="21" y="30" width="3" height="3" fill="#4a3a26"/><rect x="24" y="30" width="3" height="3" fill="#4a3a26"/><rect x="27" y="30" width="3" height="3" fill="#4a3a26"/><rect x="30" y="30" width="3" height="3" fill="#4a3a26"/><rect x="33" y="30" width="3" height="3" fill="#5f4c32"/><rect x="36" y="30" width="3" height="3" fill="#31261a"/><rect x="39" y="30" width="3" height="3" fill="#31261a"/><rect x="54" y="30" width="3" height="3" fill="#4a3a26"/><rect x="57" y="30" width="3" height="3" fill="#4a3a26"/><rect x="60" y="30" width="3" height="3" fill="#4a3a26"/><rect x="12" y="33" width="3" height="3" fill="#4a3a26"/><rect x="15" y="33" width="3" height="3" fill="#4a3a26"/><rect x="18" y="33" width="3" height="3" fill="#4a3a26"/><rect x="21" y="33" width="3" height="3" fill="#4a3a26"/><rect x="24" y="33" width="3" height="3" fill="#4a3a26"/><rect x="27" y="33" width="3" height="3" fill="#4a3a26"/><rect x="30" y="33" width="3" height="3" fill="#4a3a26"/><rect x="33" y="33" width="3" height="3" fill="#5f4c32"/><rect x="36" y="33" width="3" height="3" fill="#31261a"/><rect x="39" y="33" width="3" height="3" fill="#31261a"/><rect x="54" y="33" width="3" height="3" fill="#4a3a26"/><rect x="57" y="33" width="3" height="3" fill="#4a3a26"/><rect x="60" y="33" width="3" height="3" fill="#4a3a26"/><rect x="30" y="36" width="3" height="3" fill="#5f4c32"/><rect x="33" y="36" width="3" height="3" fill="#5f4c32"/><rect x="36" y="36" width="3" height="3" fill="#31261a"/><rect x="39" y="36" width="3" height="3" fill="#31261a"/><rect x="54" y="36" width="3" height="3" fill="#4a3a26"/><rect x="57" y="36" width="3" height="3" fill="#4a3a26"/><rect x="60" y="36" width="3" height="3" fill="#4a3a26"/><rect x="30" y="39" width="3" height="3" fill="#5f4c32"/><rect x="33" y="39" width="3" height="3" fill="#5f4c32"/><rect x="36" y="39" width="3" height="3" fill="#31261a"/><rect x="39" y="39" width="3" height="3" fill="#4a3a26"/><rect x="42" y="39" width="3" height="3" fill="#4a3a26"/><rect x="45" y="39" width="3" height="3" fill="#4a3a26"/><rect x="48" y="39" width="3" height="3" fill="#4a3a26"/><rect x="51" y="39" width="3" height="3" fill="#4a3a26"/><rect x="54" y="39" width="3" height="3" fill="#4a3a26"/><rect x="57" y="39" width="3" height="3" fill="#4a3a26"/><rect x="60" y="39" width="3" height="3" fill="#4a3a26"/><rect x="18" y="42" width="3" height="3" fill="#3e5626"/><rect x="30" y="42" width="3" height="3" fill="#5f4c32"/><rect x="33" y="42" width="3" height="3" fill="#5f4c32"/><rect x="36" y="42" width="3" height="3" fill="#31261a"/><rect x="39" y="42" width="3" height="3" fill="#4a3a26"/><rect x="42" y="42" width="3" height="3" fill="#4a3a26"/><rect x="45" y="42" width="3" height="3" fill="#4a3a26"/><rect x="48" y="42" width="3" height="3" fill="#4a3a26"/><rect x="51" y="42" width="3" height="3" fill="#4a3a26"/><rect x="54" y="42" width="3" height="3" fill="#4a3a26"/><rect x="57" y="42" width="3" height="3" fill="#4a3a26"/><rect x="60" y="42" width="3" height="3" fill="#4a3a26"/><rect x="30" y="45" width="3" height="3" fill="#5f4c32"/><rect x="33" y="45" width="3" height="3" fill="#5f4c32"/><rect x="36" y="45" width="3" height="3" fill="#31261a"/><rect x="39" y="45" width="3" height="3" fill="#31261a"/><rect x="30" y="48" width="3" height="3" fill="#5f4c32"/><rect x="33" y="48" width="3" height="3" fill="#5f4c32"/><rect x="36" y="48" width="3" height="3" fill="#31261a"/><rect x="39" y="48" width="3" height="3" fill="#31261a"/><rect x="30" y="51" width="3" height="3" fill="#5f4c32"/><rect x="33" y="51" width="3" height="3" fill="#5f4c32"/><rect x="36" y="51" width="3" height="3" fill="#31261a"/><rect x="39" y="51" width="3" height="3" fill="#31261a"/><rect x="30" y="54" width="3" height="3" fill="#5f4c32"/><rect x="33" y="54" width="3" height="3" fill="#5f4c32"/><rect x="36" y="54" width="3" height="3" fill="#31261a"/><rect x="39" y="54" width="3" height="3" fill="#31261a"/><rect x="30" y="57" width="3" height="3" fill="#5f4c32"/><rect x="33" y="57" width="3" height="3" fill="#5f4c32"/><rect x="36" y="57" width="3" height="3" fill="#31261a"/><rect x="39" y="57" width="3" height="3" fill="#31261a"/><rect x="30" y="60" width="3" height="3" fill="#5f4c32"/><rect x="33" y="60" width="3" height="3" fill="#5f4c32"/><rect x="36" y="60" width="3" height="3" fill="#31261a"/><rect x="39" y="60" width="3" height="3" fill="#31261a"/><rect x="30" y="63" width="3" height="3" fill="#5f4c32"/><rect x="33" y="63" width="3" height="3" fill="#5f4c32"/><rect x="36" y="63" width="3" height="3" fill="#31261a"/><rect x="39" y="63" width="3" height="3" fill="#31261a"/><rect x="30" y="66" width="3" height="3" fill="#5f4c32"/><rect x="33" y="66" width="3" height="3" fill="#5f4c32"/><rect x="36" y="66" width="3" height="3" fill="#31261a"/><rect x="39" y="66" width="3" height="3" fill="#31261a"/><rect x="30" y="69" width="3" height="3" fill="#5f4c32"/><rect x="33" y="69" width="3" height="3" fill="#5f4c32"/><rect x="36" y="69" width="3" height="3" fill="#31261a"/><rect x="39" y="69" width="3" height="3" fill="#31261a"/><rect x="30" y="72" width="3" height="3" fill="#5f4c32"/><rect x="33" y="72" width="3" height="3" fill="#5f4c32"/><rect x="36" y="72" width="3" height="3" fill="#31261a"/><rect x="39" y="72" width="3" height="3" fill="#31261a"/><rect x="30" y="75" width="3" height="3" fill="#5f4c32"/><rect x="33" y="75" width="3" height="3" fill="#5f4c32"/><rect x="36" y="75" width="3" height="3" fill="#31261a"/><rect x="39" y="75" width="3" height="3" fill="#31261a"/><rect x="30" y="78" width="3" height="3" fill="#5f4c32"/><rect x="33" y="78" width="3" height="3" fill="#5f4c32"/><rect x="36" y="78" width="3" height="3" fill="#31261a"/><rect x="39" y="78" width="3" height="3" fill="#31261a"/><rect x="30" y="81" width="3" height="3" fill="#5f4c32"/><rect x="33" y="81" width="3" height="3" fill="#5f4c32"/><rect x="36" y="81" width="3" height="3" fill="#31261a"/><rect x="39" y="81" width="3" height="3" fill="#31261a"/><rect x="30" y="84" width="3" height="3" fill="#5f4c32"/><rect x="33" y="84" width="3" height="3" fill="#5f4c32"/><rect x="36" y="84" width="3" height="3" fill="#31261a"/><rect x="39" y="84" width="3" height="3" fill="#31261a"/><rect x="30" y="87" width="3" height="3" fill="#5f4c32"/><rect x="33" y="87" width="3" height="3" fill="#5f4c32"/><rect x="36" y="87" width="3" height="3" fill="#31261a"/><rect x="39" y="87" width="3" height="3" fill="#31261a"/><rect x="30" y="90" width="3" height="3" fill="#5f4c32"/><rect x="33" y="90" width="3" height="3" fill="#5f4c32"/><rect x="36" y="90" width="3" height="3" fill="#31261a"/><rect x="39" y="90" width="3" height="3" fill="#31261a"/><rect x="30" y="93" width="3" height="3" fill="#5f4c32"/><rect x="33" y="93" width="3" height="3" fill="#5f4c32"/><rect x="36" y="93" width="3" height="3" fill="#31261a"/><rect x="39" y="93" width="3" height="3" fill="#31261a"/><rect x="30" y="96" width="3" height="3" fill="#5f4c32"/><rect x="33" y="96" width="3" height="3" fill="#5f4c32"/><rect x="36" y="96" width="3" height="3" fill="#31261a"/><rect x="39" y="96" width="3" height="3" fill="#31261a"/><rect x="30" y="99" width="3" height="3" fill="#5f4c32"/><rect x="33" y="99" width="3" height="3" fill="#5f4c32"/><rect x="36" y="99" width="3" height="3" fill="#31261a"/><rect x="39" y="99" width="3" height="3" fill="#31261a"/></svg>