<svg xmlns="http://www.w3.org/2000/svg" viewBox="0 0 24 16" width="24" height="16"><rect x="20" y="10" width="2" height="2" fill="#14141f"/><rect x="12" y="0" width="2" height="2" fill="#14141f"/><rect x="14" y="2" width="2" height="2" fill="#14141f"/><rect x="16" y="2" width="2" height="2" fill="#14141f"/><rect x="6" y="2" width="2" height="2" fill="#14141f"/><rect x="20" y="8" width="2" height="2" fill="#14141f"/><rect x="2" y="10" width="2" height="2" fill="#14141f"/><rect x="10" y="2" width="2" height="2" fill="#14141f"/><rect x="18" y="4" width="2" height="2" fill="#14141f"/><rect x="2" y="8" width="2" height="2" fill="#14141f"/><rect x="4" y="6" width="2" height="2" fill="#14141f"/><rect x="20" y="6" width="2" height="2" fill="#14141f"/><rect x="2" y="14" width="2" height="2" fill="#14141f"/><rect x="20" y="14" width="2" height="2" fill="#14141f"/><rect x="20" y="12" width="2" height="2" fill="#14141f"/><rect x="4" y="4" width="2" height="2" fill="#14141f"/><rect x="2" y="12" width="2" height="2" fill="#14141f"/><rect x="8" y="2" width="2" height="2" fill="#14141f"/><rect x="12" y="2" width="2" height="2" fill="#8a6633"/><rect x="6" y="4" width="2" height="2" fill="#b58a4a"/><rect x="8" y="4" width="2" height="2" fill="#b58a4a"/><rect x="10" y="4" width="2" height="2" fill="#b58a4a"/><rect x="12" y="4" width="2" height="2" fill="#b58a4a"/><rect x="14" y="4" width="2" height="2" fill="#b58a4a"/><rect x="16" y="4" width="2" height="2" fill="#b58a4a"/><rect x="6" y="6" width="2" height="2" fill="#8a6633"/><rect x="8" y="6" width="2" height="2" fill="#b58a4a"/><rect x="10" y="6" width="2" height="2" fill="#b58a4a"/><rect x="12" y="6" width="2" height="2" fill="#b58a4a"/><rect x="14" y="6" width="2" height="2" fill="#b58a4a"/><rect x="16" y="6" width="2" height="2" fill="#b58a4a"/><rect x="18" y="6" width="2" height="2" fill="#8a6633"/><rect x="4" y="8" width="2" height="2" fill="#b58a4a"/><rect x="6" y="8" width="2" height="2" fill="#b58a4a"/><rect x="8" y="8" width="2" height="2" fill="#b58a4a"/><rect x="10" y="8" width="2" height="2" fill="#b58a4a"/><rect x="12" y="8" width="2" height="2" fill="#b58a4a"/><rect x="14" y="8" width="2" height="2" fill="#b58a4a"/><rect x="16" y="8" width="2" height="2" fill="#b58a4a"/><rect x="18" y="8" width="2" height="2" fill="#b58a4a"/><rect x="4" y="10" width="2" height="2" fill="#b58a4a"/><rect x="6" y="10" width="2" height="2" fill="#b58a4a"/><rect x="8" y="10" width="2" height="2" fill="#b58a4a"/><rect x="10" y="10" width="2" height="2" fill="#8a6633"/><rect x="12" y="10" width="2" height="2" fill="#b58a4a"/><rect x="14" y="10" width="2" height="2" fill="#b58a4a"/><rect x="16" y="10" width="2" height="2" fill="#8a6633"/><rect x="18" y="10" width="2" height="2" fill="#b58a4a"/><rect x="4" y="12" width="2" height="2" fill="#8a6633"/><rect x="6" y="12" width="2" height="2" fill="#8a6633"/><rect x="8" y="12" width="2" height="2" fill="#8a6633"/><rect x="10" y="12" width="2" height="2" fill="#8a6633"/><rect x="12" y="12" width="2" height="2" fill="#8a6633"/><rect x="14" y="12" width="2" height="2" fill="#8a6633"/><rect x="16" y="12" width="2" height="2" fill="#8a6633"/><rect x="18" y="12" width="2" height="2" fill="#8a6633"/><rect x="4" y="14" width="2" height="2" fill="#8a6633"/><rect x="6" y="14" width="2" height="2" fill="#8a6633"/><rect x="8" y="14" width="2" height="2" fill="#8a6633"/><rect x="10" y="14" width="2" height="2" fill="#8a6633"/><rect x="12" y="14" width="2" height="2" fill="#8a6633"/><rect x="14" y="14" width="2" height="2" fill="#8a6633"/><rect x="16" y="14" width="2" height="2" fill="#8a6633"/><rect x="18" y="14" width="2" height="2" fill="#8a6633"/></svg>