<svg xmlns="http://www.w3.org/2000/svg" viewBox="0 0 22 22" width="22" height="22"><rect x="8" y="0" width="2" height="2" fill="#7a7a6a"/><rect x="8" y="18" width="2" height="2" fill="#7a7a6a"/><rect x="18" y="4" width="2" height="2" fill="#7a7a6a"/><rect x="16" y="6" width="2" height="2" fill="#7a7a6a"/><rect x="16" y="18" width="2" height="2" fill="#7a7a6a"/><rect x="20" y="12" width="2" height="2" fill="#7a7a6a"/><rect x="18" y="16" width="2" height="2" fill="#7a7a6a"/><rect x="16" y="12" width="2" height="2" fill="#7a7a6a"/><rect x="2" y="12" width="2" height="2" fill="#7a7a6a"/><rect x="4" y="10" width="2" height="2" fill="#7a7a6a"/><rect x="12" y="4" width="2" height="2" fill="#7a7a6a"/><rect x="12" y="16" width="2" height="2" fill="#7a7a6a"/><rect x="8" y="4" width="2" height="2" fill="#7a7a6a"/><rect x="8" y="16" width="2" height="2" fill="#7a7a6a"/><rect x="16" y="10" width="2" height="2" fill="#7a7a6a"/><rect x="18" y="8" width="2" height="2" fill="#7a7a6a"/><rect x="4" y="8" width="2" height="2" fill="#7a7a6a"/><rect x="2" y="4" width="2" height="2" fill="#7a7a6a"/><rect x="0" y="8" width="2" height="2" fill="#7a7a6a"/><rect x="4" y="2" width="2" height="2" fill="#7a7a6a"/><rect x="4" y="14" width="2" height="2" fill="#7a7a6a"/><rect x="12" y="2" width="2" height="2" fill="#7a7a6a"/><rect x="2" y="16" width="2" height="2" fill="#7a7a6a"/><rect x="12" y="20" width="2" height="2" fill="#7a7a6a"/><rect x="6" y="4" width="2" height="2" fill="#7a7a6a"/><rect x="8" y="2" width="2" height="2" fill="#7a7a6a"/><rect x="10" y="4" width="2" height="2" fill="#7a7a6a"/><rect x="8" y="20" width="2" height="2" fill="#7a7a6a"/><rect x="6" y="16" width="2" height="2" fill="#7a7a6a"/><rect x="16" y="8" width="2" height="2" fill="#7a7a6a"/><rect x="16" y="2" width="2" height="2" fill="#7a7a6a"/><rect x="10" y="16" width="2" height="2" fill="#7a7a6a"/><rect x="20" y="8" width="2" height="2" fill="#7a7a6a"/><rect x="18" y="12" width="2" height="2" fill="#7a7a6a"/><rect x="16" y="14" width="2" height="2" fill="#7a7a6a"/><rect x="2" y="8" width="2" height="2" fill="#7a7a6a"/><rect x="0" y="12" width="2" height="2" fill="#7a7a6a"/><rect x="4" y="6" width="2" height="2" fill="#7a7a6a"/><rect x="4" y="18" width="2" height="2" fill="#7a7a6a"/><rect x="4" y="12" width="2" height="2" fill="#7a7a6a"/><rect x="14" y="4" width="2" height="2" fill="#7a7a6a"/><rect x="12" y="0" width="2" height="2" fill="#7a7a6a"/><rect x="12" y="18" width="2" height="2" fill="#7a7a6a"/><rect x="14" y="16" width="2" height="2" fill="#7a7a6a"/><rect x="10" y="0" width="2" height="2" fill="#f4f4ea"/><rect x="10" y="2" width="2" height="2" fill="#f4f4ea"/><rect x="4" y="4" width="2" height="2" fill="#f4f4ea"/><rect x="16" y="4" width="2" height="2" fill="#f4f4ea"/><rect x="6" y="6" width="2" height="2" fill="#f4f4ea"/><rect x="8" y="6" width="2" height="2" fill="#f4f4ea"/><rect x="10" y="6" width="2" height="2" fill="#f4f4ea"/><rect x="12" y="6" width="2" height="2" fill="#f4f4ea"/><rect x="14" y="6" width="2" height="2" fill="#f4f4ea"/><rect x="6" y="8" width="2" height="2" fill="#f4f4ea"/><rect x="8" y="8" width="2" height="2" fill="#e0b83a"/><rect x="10" y="8" width="2" height="2" fill="#e0b83a"/><rect x="12" y="8" width="2" height="2" fill="#e0b83a"/><rect x="14" y="8" width="2" height="2" fill="#f4f4ea"/><rect x="0" y="10" width="2" height="2" fill="#f4f4ea"/><rect x="2" y="10" width="2" height="2" fill="#f4f4ea"/><rect x="6" y="10" width="2" height="2" fill="#f4f4ea"/><rect x="8" y="10" width="2" height="2" fill="#e0b83a"/><rect x="10" y="10" width="2" height="2" fill="#fff3b0"/><rect x="12" y="10" width="2" height="2" fill="#e0b83a"/><rect x="14" y="10" width="2" height="2" fill="#f4f4ea"/><rect x="18" y="10" width="2" height="2" fill="#f4f4ea"/><rect x="20" y="10" width="2" height="2" fill="#f4f4ea"/><rect x="6" y="12" width="2" height="2" fill="#f4f4ea"/><rect x="8" y="12" width="2" height="2" fill="#e0b83a"/><rect x="10" y="12" width="2" height="2" fill="#e0b83a"/><rect x="12" y="12" width="2" height="2" fill="#e0b83a"/><rect x="14" y="12" width="2" height="2" fill="#f4f4ea"/><rect x="6" y="14" width="2" height="2" fill="#cfcfc0"/><rect x="8" y="14" width="2" height="2" fill="#f4f4ea"/><rect x="10" y="14" width="2" height="2" fill="#f4f4ea"/><rect x="12" y="14" width="2" height="2" fill="#f4f4ea"/><rect x="14" y="14" width="2" height="2" fill="#cfcfc0"/><rect x="4" y="16" width="2" height="2" fill="#f4f4ea"/><rect x="16" y="16" width="2" height="2" fill="#f4f4ea"/><rect x="10" y="18" width="2" height="2" fill="#f4f4ea"/><rect x="10" y="20" width="2" height="2" fill="#f4f4ea"/></svg>