<svg xmlns="http://www.w3.org/2000/svg" viewBox="0 0 20 28" width="20" height="28"><rect x="8" y="6" width="2" height="2" fill="#14141f"/><rect x="10" y="2" width="2" height="2" fill="#14141f"/><rect x="16" y="18" width="2" height="2" fill="#14141f"/><rect x="18" y="16" width="2" height="2" fill="#14141f"/><rect x="16" y="12" width="2" height="2" fill="#14141f"/><rect x="2" y="12" width="2" height="2" fill="#14141f"/><rect x="0" y="16" width="2" height="2" fill="#14141f"/><rect x="4" y="10" width="2" height="2" fill="#14141f"/><rect x="4" y="22" width="2" height="2" fill="#14141f"/><rect x="2" y="18" width="2" height="2" fill="#14141f"/><rect x="4" y="16" width="2" height="2" fill="#14141f"/><rect x="14" y="8" width="2" height="2" fill="#14141f"/><rect x="12" y="4" width="2" height="2" fill="#14141f"/><rect x="14" y="14" width="2" height="2" fill="#14141f"/><rect x="14" y="20" width="2" height="2" fill="#14141f"/><rect x="14" y="26" width="2" height="2" fill="#14141f"/><rect x="10" y="6" width="2" height="2" fill="#14141f"/><rect x="18" y="14" width="2" height="2" fill="#14141f"/><rect x="0" y="14" width="2" height="2" fill="#14141f"/><rect x="4" y="8" width="2" height="2" fill="#14141f"/><rect x="4" y="14" width="2" height="2" fill="#14141f"/><rect x="4" y="20" width="2" height="2" fill="#14141f"/><rect x="4" y="26" width="2" height="2" fill="#14141f"/><rect x="14" y="6" width="2" height="2" fill="#14141f"/><rect x="14" y="24" width="2" height="2" fill="#14141f"/><rect x="6" y="4" width="2" height="2" fill="#14141f"/><rect x="8" y="2" width="2" height="2" fill="#14141f"/><rect x="4" y="6" width="2" height="2" fill="#14141f"/><rect x="4" y="24" width="2" height="2" fill="#14141f"/><rect x="14" y="10" width="2" height="2" fill="#14141f"/><rect x="14" y="22" width="2" height="2" fill="#14141f"/><rect x="14" y="16" width="2" height="2" fill="#14141f"/><rect x="8" y="4" width="2" height="2" fill="#5fbf6f"/><rect x="10" y="4" width="2" height="2" fill="#5fbf6f"/><rect x="6" y="6" width="2" height="2" fill="#5fbf6f"/><rect x="12" y="6" width="2" height="2" fill="#5fbf6f"/><rect x="6" y="8" width="2" height="2" fill="#3a8f4f"/><rect x="8" y="8" width="2" height="2" fill="#3a8f4f"/><rect x="10" y="8" width="2" height="2" fill="#3a8f4f"/><rect x="12" y="8" width="2" height="2" fill="#3a8f4f"/><rect x="6" y="10" width="2" height="2" fill="#3a8f4f"/><rect x="8" y="10" width="2" height="2" fill="#3a8f4f"/><rect x="10" y="10" width="2" height="2" fill="#3a8f4f"/><rect x="12" y="10" width="2" height="2" fill="#3a8f4f"/><rect x="4" y="12" width="2" height="2" fill="#3a8f4f"/><rect x="6" y="12" width="2" height="2" fill="#3a8f4f"/><rect x="8" y="12" width="2" height="2" fill="#3a8f4f"/><rect x="10" y="12" width="2" height="2" fill="#3a8f4f"/><rect x="12" y="12" width="2" height="2" fill="#3a8f4f"/><rect x="14" y="12" width="2" height="2" fill="#3a8f4f"/><rect x="2" y="14" width="2" height="2" fill="#5fbf6f"/><rect x="6" y="14" width="2" height="2" fill="#3a8f4f"/><rect x="8" y="14" width="2" height="2" fill="#3a8f4f"/><rect x="10" y="14" width="2" height="2" fill="#3a8f4f"/><rect x="12" y="14" width="2" height="2" fill="#3a8f4f"/><rect x="16" y="14" width="2" height="2" fill="#5fbf6f"/><rect x="2" y="16" width="2" height="2" fill="#3a8f4f"/><rect x="6" y="16" width="2" height="2" fill="#3a8f4f"/><rect x="8" y="16" width="2" height="2" fill="#3a8f4f"/><rect x="10" y="16" width="2" height="2" fill="#3a8f4f"/><rect x="12" y="16" width="2" height="2" fill="#3a8f4f"/><rect x="16" y="16" width="2" height="2" fill="#3a8f4f"/><rect x="4" y="18" width="2" height="2" fill="#3a8f4f"/><rect x="6" y="18" width="2" height="2" fill="#3a8f4f"/><rect x="8" y="18" width="2" height="2" fill="#3a8f4f"/><rect x="10" y="18" width="2" height="2" fill="#3a8f4f"/><rect x="12" y="18" width="2" height="2" fill="#3a8f4f"/><rect x="14" y="18" width="2" height="2" fill="#3a8f4f"/><rect x="6" y="20" width="2" height="2" fill="#3a8f4f"/><rect x="8" y="20" width="2" height="2" fill="#3a8f4f"/><rect x="10" y="20" width="2" height="2" fill="#3a8f4f"/><rect x="12" y="20" width="2" height="2" fill="#3a8f4f"/><rect x="6" y="22" width="2" height="2" fill="#bd6a3c"/><rect x="8" y="22" width="2" height="2" fill="#bd6a3c"/><rect x="10" y="22" width="2" height="2" fill="#bd6a3c"/><rect x="12" y="22" width="2" height="2" fill="#bd6a3c"/><rect x="6" y="24" width="2" height="2" fill="#bd6a3c"/><rect x="8" y="24" width="2" height="2" fill="#bd6a3c"/><rect x="10" y="24" width="2" height="2" fill="#bd6a3c"/><rect x="12" y="24" width="2" height="2" fill="#bd6a3c"/><rect x="6" y="26" width="2" height="2" fill="#8f4c28"/><rect x="8" y="26" width="2" height="2" fill="#8f4c28"/><rect x="10" y="26" width="2" height="2" fill="#8f4c28"/><rect x="12" y="26" width="2" height="2" fill="#8f4c28"/></svg>