<svg xmlns="http://www.w3.org/2000/svg" viewBox="0 0 36 24" width="36" height="24"><rect x="24" y="2" width="2" height="2" fill="#14141f"/><rect x="6" y="8" width="2" height="2" fill="#14141f"/><rect x="28" y="2" width="2" height="2" fill="#14141f"/><rect x="6" y="14" width="2" height="2" fill="#14141f"/><rect x="8" y="18" width="2" height="2" fill="#14141f"/><rect x="24" y="20" width="2" height="2" fill="#14141f"/><rect x="10" y="2" width="2" height="2" fill="#14141f"/><rect x="16" y="0" width="2" height="2" fill="#14141f"/><rect x="10" y="20" width="2" height="2" fill="#14141f"/><rect x="20" y="0" width="2" height="2" fill="#14141f"/><rect x="32" y="2" width="2" height="2" fill="#14141f"/><rect x="32" y="14" width="2" height="2" fill="#14141f"/><rect x="14" y="2" width="2" height="2" fill="#14141f"/><rect x="30" y="16" width="2" height="2" fill="#14141f"/><rect x="14" y="20" width="2" height="2" fill="#14141f"/><rect x="8" y="4" width="2" height="2" fill="#14141f"/><rect x="6" y="6" width="2" height="2" fill="#14141f"/><rect x="28" y="18" width="2" height="2" fill="#14141f"/><rect x="18" y="20" width="2" height="2" fill="#14141f"/><rect x="22" y="20" width="2" height="2" fill="#14141f"/><rect x="26" y="2" width="2" height="2" fill="#14141f"/><rect x="12" y="2" width="2" height="2" fill="#14141f"/><rect x="30" y="2" width="2" height="2" fill="#14141f"/><rect x="30" y="14" width="2" height="2" fill="#14141f"/><rect x="26" y="20" width="2" height="2" fill="#14141f"/><rect x="12" y="20" width="2" height="2" fill="#14141f"/><rect x="6" y="10" width="2" height="2" fill="#14141f"/><rect x="18" y="0" width="2" height="2" fill="#14141f"/><rect x="34" y="2" width="2" height="2" fill="#14141f"/><rect x="34" y="14" width="2" height="2" fill="#14141f"/><rect x="6" y="16" width="2" height="2" fill="#14141f"/><rect x="22" y="0" width="2" height="2" fill="#14141f"/><rect x="16" y="20" width="2" height="2" fill="#14141f"/><rect x="20" y="20" width="2" height="2" fill="#14141f"/><rect x="4" y="12" width="2" height="2" fill="#14141f"/><rect x="16" y="2" width="2" height="2" fill="#ffd23f"/><rect x="18" y="2" width="2" height="2" fill="#ffd23f"/><rect x="20" y="2" width="2" height="2" fill="#ffd23f"/><rect x="22" y="2" width="2" height="2" fill="#ffd23f"/><rect x="10" y="4" width="2" height="2" fill="#4aae9a"/><rect x="12" y="4" width="2" height="2" fill="#4aae9a"/><rect x="14" y="4" width="2" height="2" fill="#4aae9a"/><rect x="16" y="4" width="2" height="2" fill="#ffd23f"/><rect x="18" y="4" width="2" height="2" fill="#ffd23f"/><rect x="20" y="4" width="2" height="2" fill="#ffd23f"/><rect x="22" y="4" width="2" height="2" fill="#ffd23f"/><rect x="24" y="4" width="2" height="2" fill="#4aae9a"/><rect x="26" y="4" width="2" height="2" fill="#4aae9a"/><rect x="28" y="4" width="2" height="2" fill="#4aae9a"/><rect x="30" y="4" width="2" height="2" fill="#4aae9a"/><rect x="32" y="4" width="2" height="2" fill="#4aae9a"/><rect x="34" y="4" width="2" height="2" fill="#4aae9a"/><rect x="8" y="6" width="2" height="2" fill="#7fd6c0"/><rect x="10" y="6" width="2" height="2" fill="#7fd6c0"/><rect x="12" y="6" width="2" height="2" fill="#7fd6c0"/><rect x="14" y="6" width="2" height="2" fill="#7fd6c0"/><rect x="16" y="6" width="2" height="2" fill="#4aae9a"/><rect x="18" y="6" width="2" height="2" fill="#4aae9a"/><rect x="20" y="6" width="2" height="2" fill="#4aae9a"/><rect x="22" y="6" width="2" height="2" fill="#2f8f7a"/><rect x="24" y="6" width="2" height="2" fill="#2f8f7a"/><rect x="26" y="6" width="2" height="2" fill="#2f8f7a"/><rect x="28" y="6" width="2" height="2" fill="#4aae9a"/><rect x="30" y="6" width="2" height="2" fill="#4aae9a"/><rect x="32" y="6" width="2" height="2" fill="#4aae9a"/><rect x="34" y="6" width="2" height="2" fill="#4aae9a"/><rect x="8" y="8" width="2" height="2" fill="#7fd6c0"/><rect x="10" y="8" width="2" height="2" fill="#7fd6c0"/><rect x="12" y="8" width="2" height="2" fill="#7fd6c0"/><rect x="14" y="8" width="2" height="2" fill="#7fd6c0"/><rect x="16" y="8" width="2" height="2" fill="#4aae9a"/><rect x="18" y="8" width="2" height="2" fill="#4aae9a"/><rect x="20" y="8" width="2" height="2" fill="#4aae9a"/><rect x="22" y="8" width="2" height="2" fill="#2f8f7a"/><rect x="24" y="8" width="2" height="2" fill="#2f8f7a"/><rect x="26" y="8" width="2" height="2" fill="#2f8f7a"/><rect x="28" y="8" width="2" height="2" fill="#4aae9a"/><rect x="30" y="8" width="2" height="2" fill="#4aae9a"/><rect x="32" y="8" width="2" height="2" fill="#4aae9a"/><rect x="34" y="8" width="2" height="2" fill="#4aae9a"/><rect x="8" y="10" width="2" height="2" fill="#7fd6c0"/><rect x="10" y="10" width="2" height="2" fill="#7fd6c0"/><rect x="12" y="10" width="2" height="2" fill="#12242a"/><rect x="14" y="10" width="2" height="2" fill="#7fd6c0"/><rect x="16" y="10" width="2" height="2" fill="#4aae9a"/><rect x="18" y="10" width="2" height="2" fill="#4aae9a"/><rect x="20" y="10" width="2" height="2" fill="#4aae9a"/><rect x="22" y="10" width="2" height="2" fill="#2f8f7a"/><rect x="24" y="10" width="2" height="2" fill="#2f8f7a"/><rect x="26" y="10" width="2" height="2" fill="#2f8f7a"/><rect x="28" y="10" width="2" height="2" fill="#4aae9a"/><rect x="30" y="10" width="2" height="2" fill="#2f8f7a"/><rect x="32" y="10" width="2" height="2" fill="#2f8f7a"/><rect x="34" y="10" width="2" height="2" fill="#2f8f7a"/><rect x="6" y="12" width="2" height="2" fill="#2f8f7a"/><rect x="8" y="12" width="2" height="2" fill="#7fd6c0"/><rect x="10" y="12" width="2" height="2" fill="#7fd6c0"/><rect x="12" y="12" width="2" height="2" fill="#7fd6c0"/><rect x="14" y="12" width="2" height="2" fill="#7fd6c0"/><rect x="16" y="12" width="2" height="2" fill="#4aae9a"/><rect x="18" y="12" width="2" height="2" fill="#4aae9a"/><rect x="20" y="12" width="2" height="2" fill="#4aae9a"/><rect x="22" y="12" width="2" height="2" fill="#2f8f7a"/><rect x="24" y="12" width="2" height="2" fill="#2f8f7a"/><rect x="26" y="12" width="2" height="2" fill="#2f8f7a"/><rect x="28" y="12" width="2" height="2" fill="#2f8f7a"/><rect x="30" y="12" width="2" height="2" fill="#2f8f7a"/><rect x="32" y="12" width="2" height="2" fill="#2f8f7a"/><rect x="34" y="12" width="2" height="2" fill="#2f8f7a"/><rect x="8" y="14" width="2" height="2" fill="#7fd6c0"/><rect x="10" y="14" width="2" height="2" fill="#7fd6c0"/><rect x="12" y="14" width="2" height="2" fill="#7fd6c0"/><rect x="14" y="14" width="2" height="2" fill="#7fd6c0"/><rect x="16" y="14" width="2" height="2" fill="#4aae9a"/><rect x="18" y="14" width="2" height="2" fill="#4aae9a"/><rect x="20" y="14" width="2" height="2" fill="#4aae9a"/><rect x="22" y="14" width="2" height="2" fill="#2f8f7a"/><rect x="24" y="14" width="2" height="2" fill="#2f8f7a"/><rect x="26" y="14" width="2" height="2" fill="#2f8f7a"/><rect x="28" y="14" width="2" height="2" fill="#2f8f7a"/><rect x="8" y="16" width="2" height="2" fill="#7fd6c0"/><rect x="10" y="16" width="2" height="2" fill="#7fd6c0"/><rect x="12" y="16" width="2" height="2" fill="#7fd6c0"/><rect x="14" y="16" width="2" height="2" fill="#7fd6c0"/><rect x="16" y="16" width="2" height="2" fill="#4aae9a"/><rect x="18" y="16" width="2" height="2" fill="#4aae9a"/><rect x="20" y="16" width="2" height="2" fill="#4aae9a"/><rect x="22" y="16" width="2" height="2" fill="#2f8f7a"/><rect x="24" y="16" width="2" height="2" fill="#2f8f7a"/><rect x="26" y="16" width="2" height="2" fill="#2f8f7a"/><rect x="28" y="16" width="2" height="2" fill="#2f8f7a"/><rect x="10" y="18" width="2" height="2" fill="#4aae9a"/><rect x="12" y="18" width="2" height="2" fill="#4aae9a"/><rect x="14" y="18" width="2" height="2" fill="#4aae9a"/><rect x="16" y="18" width="2" height="2" fill="#4aae9a"/><rect x="18" y="18" width="2" height="2" fill="#4aae9a"/><rect x="20" y="18" width="2" height="2" fill="#4aae9a"/><rect x="22" y="18" width="2" height="2" fill="#4aae9a"/><rect x="24" y="18" width="2" height="2" fill="#4aae9a"/><rect x="26" y="18" width="2" height="2" fill="#4aae9a"/></svg>