<svg xmlns="http://www.w3.org/2000/svg" viewBox="0 0 28 16" width="28" height="16"><rect x="8" y="0" width="2" height="2" fill="#14141f"/><rect x="24" y="14" width="2" height="2" fill="#14141f"/><rect x="8" y="12" width="2" height="2" fill="#14141f"/><rect x="18" y="4" width="2" height="2" fill="#14141f"/><rect x="16" y="0" width="2" height="2" fill="#14141f"/><rect x="18" y="10" width="2" height="2" fill="#14141f"/><rect x="20" y="0" width="2" height="2" fill="#14141f"/><rect x="2" y="0" width="2" height="2" fill="#14141f"/><rect x="2" y="12" width="2" height="2" fill="#14141f"/><rect x="12" y="4" width="2" height="2" fill="#14141f"/><rect x="12" y="10" width="2" height="2" fill="#14141f"/><rect x="24" y="0" width="2" height="2" fill="#14141f"/><rect x="8" y="4" width="2" height="2" fill="#14141f"/><rect x="6" y="0" width="2" height="2" fill="#14141f"/><rect x="8" y="10" width="2" height="2" fill="#14141f"/><rect x="24" y="12" width="2" height="2" fill="#14141f"/><rect x="10" y="0" width="2" height="2" fill="#14141f"/><rect x="16" y="4" width="2" height="2" fill="#14141f"/><rect x="18" y="14" width="2" height="2" fill="#14141f"/><rect x="16" y="10" width="2" height="2" fill="#14141f"/><rect x="20" y="4" width="2" height="2" fill="#14141f"/><rect x="0" y="2" width="2" height="2" fill="#14141f"/><rect x="2" y="4" width="2" height="2" fill="#14141f"/><rect x="0" y="8" width="2" height="2" fill="#14141f"/><rect x="26" y="8" width="2" height="2" fill="#14141f"/><rect x="26" y="2" width="2" height="2" fill="#14141f"/><rect x="2" y="10" width="2" height="2" fill="#14141f"/><rect x="14" y="0" width="2" height="2" fill="#14141f"/><rect x="24" y="4" width="2" height="2" fill="#14141f"/><rect x="24" y="10" width="2" height="2" fill="#14141f"/><rect x="6" y="4" width="2" height="2" fill="#14141f"/><rect x="8" y="14" width="2" height="2" fill="#14141f"/><rect x="10" y="4" width="2" height="2" fill="#14141f"/><rect x="18" y="0" width="2" height="2" fill="#14141f"/><rect x="10" y="10" width="2" height="2" fill="#14141f"/><rect x="22" y="0" width="2" height="2" fill="#14141f"/><rect x="18" y="12" width="2" height="2" fill="#14141f"/><rect x="0" y="6" width="2" height="2" fill="#14141f"/><rect x="4" y="0" width="2" height="2" fill="#14141f"/><rect x="26" y="6" width="2" height="2" fill="#14141f"/><rect x="2" y="14" width="2" height="2" fill="#14141f"/><rect x="14" y="4" width="2" height="2" fill="#14141f"/><rect x="12" y="0" width="2" height="2" fill="#14141f"/><rect x="14" y="10" width="2" height="2" fill="#14141f"/><rect x="2" y="2" width="2" height="2" fill="#aab4a8"/><rect x="4" y="2" width="2" height="2" fill="#aab4a8"/><rect x="6" y="2" width="2" height="2" fill="#aab4a8"/><rect x="8" y="2" width="2" height="2" fill="#aab4a8"/><rect x="10" y="2" width="2" height="2" fill="#aab4a8"/><rect x="12" y="2" width="2" height="2" fill="#aab4a8"/><rect x="14" y="2" width="2" height="2" fill="#aab4a8"/><rect x="16" y="2" width="2" height="2" fill="#aab4a8"/><rect x="18" y="2" width="2" height="2" fill="#aab4a8"/><rect x="20" y="2" width="2" height="2" fill="#aab4a8"/><rect x="22" y="2" width="2" height="2" fill="#aab4a8"/><rect x="24" y="2" width="2" height="2" fill="#aab4a8"/><rect x="4" y="4" width="2" height="2" fill="#aab4a8"/><rect x="22" y="4" width="2" height="2" fill="#aab4a8"/><rect x="2" y="6" width="2" height="2" fill="#f2f6f2"/><rect x="4" y="6" width="2" height="2" fill="#aab4a8"/><rect x="6" y="6" width="2" height="2" fill="#f2f6f2"/><rect x="8" y="6" width="2" height="2" fill="#f2f6f2"/><rect x="10" y="6" width="2" height="2" fill="#f2f6f2"/><rect x="12" y="6" width="2" height="2" fill="#f2f6f2"/><rect x="14" y="6" width="2" height="2" fill="#f2f6f2"/><rect x="16" y="6" width="2" height="2" fill="#f2f6f2"/><rect x="18" y="6" width="2" height="2" fill="#f2f6f2"/><rect x="20" y="6" width="2" height="2" fill="#f2f6f2"/><rect x="22" y="6" width="2" height="2" fill="#aab4a8"/><rect x="24" y="6" width="2" height="2" fill="#f2f6f2"/><rect x="2" y="8" width="2" height="2" fill="#e2e8e2"/><rect x="4" y="8" width="2" height="2" fill="#e2e8e2"/><rect x="6" y="8" width="2" height="2" fill="#e2e8e2"/><rect x="8" y="8" width="2" height="2" fill="#e2e8e2"/><rect x="10" y="8" width="2" height="2" fill="#e2e8e2"/><rect x="12" y="8" width="2" height="2" fill="#e2e8e2"/><rect x="14" y="8" width="2" height="2" fill="#e2e8e2"/><rect x="16" y="8" width="2" height="2" fill="#e2e8e2"/><rect x="18" y="8" width="2" height="2" fill="#e2e8e2"/><rect x="20" y="8" width="2" height="2" fill="#e2e8e2"/><rect x="22" y="8" width="2" height="2" fill="#e2e8e2"/><rect x="24" y="8" width="2" height="2" fill="#e2e8e2"/><rect x="4" y="10" width="2" height="2" fill="#8a968a"/><rect x="6" y="10" width="2" height="2" fill="#8a968a"/><rect x="20" y="10" width="2" height="2" fill="#8a968a"/><rect x="22" y="10" width="2" height="2" fill="#8a968a"/><rect x="4" y="12" width="2" height="2" fill="#8a968a"/><rect x="6" y="12" width="2" height="2" fill="#8a968a"/><rect x="20" y="12" width="2" height="2" fill="#8a968a"/><rect x="22" y="12" width="2" height="2" fill="#8a968a"/><rect x="4" y="14" width="2" height="2" fill="#8a968a"/><rect x="6" y="14" width="2" height="2" fill="#8a968a"/><rect x="20" y="14" width="2" height="2" fill="#8a968a"/><rect x="22" y="14" width="2" height="2" fill="#8a968a"/></svg>