<svg xmlns="http://www.w3.org/2000/svg" viewBox="0 0 36 30" width="36" height="30"><rect x="8" y="0" width="2" height="2" fill="#20202c"/><rect x="6" y="2" width="2" height="2" fill="#20202c"/><rect x="6" y="20" width="2" height="2" fill="#20202c"/><rect x="28" y="20" width="2" height="2" fill="#20202c"/><rect x="0" y="10" width="2" height="2" fill="#20202c"/><rect x="4" y="4" width="2" height="2" fill="#20202c"/><rect x="22" y="28" width="2" height="2" fill="#20202c"/><rect x="2" y="6" width="2" height="2" fill="#20202c"/><rect x="32" y="8" width="2" height="2" fill="#20202c"/><rect x="26" y="22" width="2" height="2" fill="#20202c"/><rect x="12" y="28" width="2" height="2" fill="#20202c"/><rect x="24" y="24" width="2" height="2" fill="#20202c"/><rect x="34" y="10" width="2" height="2" fill="#20202c"/><rect x="8" y="22" width="2" height="2" fill="#20202c"/><rect x="10" y="24" width="2" height="2" fill="#20202c"/><rect x="0" y="14" width="2" height="2" fill="#20202c"/><rect x="26" y="2" width="2" height="2" fill="#20202c"/><rect x="22" y="26" width="2" height="2" fill="#20202c"/><rect x="2" y="16" width="2" height="2" fill="#20202c"/><rect x="12" y="26" width="2" height="2" fill="#20202c"/><rect x="28" y="4" width="2" height="2" fill="#20202c"/><rect x="8" y="2" width="2" height="2" fill="#20202c"/><rect x="34" y="14" width="2" height="2" fill="#20202c"/><rect x="26" y="0" width="2" height="2" fill="#20202c"/><rect x="2" y="8" width="2" height="2" fill="#20202c"/><rect x="4" y="18" width="2" height="2" fill="#20202c"/><rect x="30" y="6" width="2" height="2" fill="#20202c"/><rect x="30" y="18" width="2" height="2" fill="#20202c"/><rect x="32" y="16" width="2" height="2" fill="#20202c"/><rect x="10" y="0" width="2" height="2" fill="#ffffff"/><rect x="12" y="0" width="2" height="2" fill="#ffffff"/><rect x="14" y="0" width="2" height="2" fill="#ffffff"/><rect x="16" y="0" width="2" height="2" fill="#ffffff"/><rect x="18" y="0" width="2" height="2" fill="#ffffff"/><rect x="20" y="0" width="2" height="2" fill="#ffffff"/><rect x="22" y="0" width="2" height="2" fill="#ffffff"/><rect x="24" y="0" width="2" height="2" fill="#ffffff"/><rect x="10" y="2" width="2" height="2" fill="#ffffff"/><rect x="12" y="2" width="2" height="2" fill="#ffffff"/><rect x="14" y="2" width="2" height="2" fill="#ffffff"/><rect x="16" y="2" width="2" height="2" fill="#ffffff"/><rect x="18" y="2" width="2" height="2" fill="#ffffff"/><rect x="20" y="2" width="2" height="2" fill="#ffffff"/><rect x="22" y="2" width="2" height="2" fill="#ffffff"/><rect x="24" y="2" width="2" height="2" fill="#ffffff"/><rect x="6" y="4" width="2" height="2" fill="#ffffff"/><rect x="8" y="4" width="2" height="2" fill="#ffffff"/><rect x="10" y="4" width="2" height="2" fill="#3c3c3c"/><rect x="12" y="4" width="2" height="2" fill="#3c3c3c"/><rect x="14" y="4" width="2" height="2" fill="#3c3c3c"/><rect x="16" y="4" width="2" height="2" fill="#3c3c3c"/><rect x="18" y="4" width="2" height="2" fill="#3c3c3c"/><rect x="20" y="4" width="2" height="2" fill="#3c3c3c"/><rect x="22" y="4" width="2" height="2" fill="#3c3c3c"/><rect x="24" y="4" width="2" height="2" fill="#3c3c3c"/><rect x="26" y="4" width="2" height="2" fill="#c3c3c3"/><rect x="4" y="6" width="2" height="2" fill="#ffffff"/><rect x="6" y="6" width="2" height="2" fill="#ffffff"/><rect x="8" y="6" width="2" height="2" fill="#ffffff"/><rect x="10" y="6" width="2" height="2" fill="#fafafa"/><rect x="12" y="6" width="2" height="2" fill="#fafafa"/><rect x="14" y="6" width="2" height="2" fill="#e0e0e0"/><rect x="16" y="6" width="2" height="2" fill="#4c4c4c"/><rect x="18" y="6" width="2" height="2" fill="#e0e0e0"/><rect x="20" y="6" width="2" height="2" fill="#e0e0e0"/><rect x="22" y="6" width="2" height="2" fill="#b7b7b7"/><rect x="24" y="6" width="2" height="2" fill="#b7b7b7"/><rect x="26" y="6" width="2" height="2" fill="#3c3c3c"/><rect x="28" y="6" width="2" height="2" fill="#b7b7b7"/><rect x="4" y="8" width="2" height="2" fill="#3c3c3c"/><rect x="6" y="8" width="2" height="2" fill="#ffffff"/><rect x="8" y="8" width="2" height="2" fill="#e7e7e7"/><rect x="10" y="8" width="2" height="2" fill="#e7e7e7"/><rect x="12" y="8" width="2" height="2" fill="#cfcfcf"/><rect x="14" y="8" width="2" height="2" fill="#cfcfcf"/><rect x="16" y="8" width="2" height="2" fill="#4c4c4c"/><rect x="18" y="8" width="2" height="2" fill="#cfcfcf"/><rect x="20" y="8" width="2" height="2" fill="#f4f4f4"/><rect x="22" y="8" width="2" height="2" fill="#cfcfcf"/><rect x="24" y="8" width="2" height="2" fill="#a9a9a9"/><rect x="26" y="8" width="2" height="2" fill="#a9a9a9"/><rect x="28" y="8" width="2" height="2" fill="#3c3c3c"/><rect x="30" y="8" width="2" height="2" fill="#3c3c3c"/><rect x="2" y="10" width="2" height="2" fill="#3c3c3c"/><rect x="4" y="10" width="2" height="2" fill="#d5d5d5"/><rect x="6" y="10" width="2" height="2" fill="#d5d5d5"/><rect x="8" y="10" width="2" height="2" fill="#d5d5d5"/><rect x="10" y="10" width="2" height="2" fill="#d5d5d5"/><rect x="12" y="10" width="2" height="2" fill="#bfbfbf"/><rect x="14" y="10" width="2" height="2" fill="#bfbfbf"/><rect x="16" y="10" width="2" height="2" fill="#4c4c4c"/><rect x="18" y="10" width="2" height="2" fill="#bfbfbf"/><rect x="20" y="10" width="2" height="2" fill="#bfbfbf"/><rect x="22" y="10" width="2" height="2" fill="#bfbfbf"/><rect x="24" y="10" width="2" height="2" fill="#9c9c9c"/><rect x="26" y="10" width="2" height="2" fill="#9c9c9c"/><rect x="28" y="10" width="2" height="2" fill="#9c9c9c"/><rect x="30" y="10" width="2" height="2" fill="#9c9c9c"/><rect x="32" y="10" width="2" height="2" fill="#3c3c3c"/><rect x="0" y="12" width="2" height="2" fill="#3c3c3c"/><rect x="2" y="12" width="2" height="2" fill="#c7c7c7"/><rect x="4" y="12" width="2" height="2" fill="#c7c7c7"/><rect x="6" y="12" width="2" height="2" fill="#c7c7c7"/><rect x="8" y="12" width="2" height="2" fill="#3c3c3c"/><rect x="10" y="12" width="2" height="2" fill="#c7c7c7"/><rect x="12" y="12" width="2" height="2" fill="#b2b2b2"/><rect x="14" y="12" width="2" height="2" fill="#b2b2b2"/><rect x="16" y="12" width="2" height="2" fill="#4c4c4c"/><rect x="18" y="12" width="2" height="2" fill="#b2b2b2"/><rect x="20" y="12" width="2" height="2" fill="#b2b2b2"/><rect x="22" y="12" width="2" height="2" fill="#b2b2b2"/><rect x="24" y="12" width="2" height="2" fill="#919191"/><rect x="26" y="12" width="2" height="2" fill="#3c3c3c"/><rect x="28" y="12" width="2" height="2" fill="#919191"/><rect x="30" y="12" width="2" height="2" fill="#919191"/><rect x="32" y="12" width="2" height="2" fill="#919191"/><rect x="34" y="12" width="2" height="2" fill="#3c3c3c"/><rect x="2" y="14" width="2" height="2" fill="#3c3c3c"/><rect x="4" y="14" width="2" height="2" fill="#b2b2b2"/><rect x="6" y="14" width="2" height="2" fill="#b2b2b2"/><rect x="8" y="14" width="2" height="2" fill="#3c3c3c"/><rect x="10" y="14" width="2" height="2" fill="#b2b2b2"/><rect x="12" y="14" width="2" height="2" fill="#9f9f9f"/><rect x="14" y="14" width="2" height="2" fill="#9f9f9f"/><rect x="16" y="14" width="2" height="2" fill="#4c4c4c"/><rect x="18" y="14" width="2" height="2" fill="#9f9f9f"/><rect x="20" y="14" width="2" height="2" fill="#9f9f9f"/><rect x="22" y="14" width="2" height="2" fill="#9f9f9f"/><rect x="24" y="14" width="2" height="2" fill="#828282"/><rect x="26" y="14" width="2" height="2" fill="#3c3c3c"/><rect x="28" y="14" width="2" height="2" fill="#828282"/><rect x="30" y="14" width="2" height="2" fill="#828282"/><rect x="32" y="14" width="2" height="2" fill="#3c3c3c"/><rect x="4" y="16" width="2" height="2" fill="#3c3c3c"/><rect x="6" y="16" width="2" height="2" fill="#a3a3a3"/><rect x="8" y="16" width="2" height="2" fill="#a3a3a3"/><rect x="10" y="16" width="2" height="2" fill="#3c3c3c"/><rect x="12" y="16" width="2" height="2" fill="#929292"/><rect x="14" y="16" width="2" height="2" fill="#929292"/><rect x="16" y="16" width="2" height="2" fill="#4c4c4c"/><rect x="18" y="16" width="2" height="2" fill="#929292"/><rect x="20" y="16" width="2" height="2" fill="#929292"/><rect x="22" y="16" width="2" height="2" fill="#929292"/><rect x="24" y="16" width="2" height="2" fill="#3c3c3c"/><rect x="26" y="16" width="2" height="2" fill="#777777"/><rect x="28" y="16" width="2" height="2" fill="#777777"/><rect x="30" y="16" width="2" height="2" fill="#3c3c3c"/><rect x="6" y="18" width="2" height="2" fill="#3c3c3c"/><rect x="8" y="18" width="2" height="2" fill="#939393"/><rect x="10" y="18" width="2" height="2" fill="#3c3c3c"/><rect x="12" y="18" width="2" height="2" fill="#939393"/><rect x="14" y="18" width="2" height="2" fill="#848484"/><rect x="16" y="18" width="2" height="2" fill="#4c4c4c"/><rect x="18" y="18" width="2" height="2" fill="#848484"/><rect x="20" y="18" width="2" height="2" fill="#848484"/><rect x="22" y="18" width="2" height="2" fill="#6c6c6c"/><rect x="24" y="18" width="2" height="2" fill="#3c3c3c"/><rect x="26" y="18" width="2" height="2" fill="#6c6c6c"/><rect x="28" y="18" width="2" height="2" fill="#3c3c3c"/><rect x="8" y="20" width="2" height="2" fill="#3c3c3c"/><rect x="10" y="20" width="2" height="2" fill="#868686"/><rect x="12" y="20" width="2" height="2" fill="#3c3c3c"/><rect x="14" y="20" width="2" height="2" fill="#787878"/><rect x="16" y="20" width="2" height="2" fill="#4c4c4c"/><rect x="18" y="20" width="2" height="2" fill="#787878"/><rect x="20" y="20" width="2" height="2" fill="#787878"/><rect x="22" y="20" width="2" height="2" fill="#3c3c3c"/><rect x="24" y="20" width="2" height="2" fill="#626262"/><rect x="26" y="20" width="2" height="2" fill="#3c3c3c"/><rect x="10" y="22" width="2" height="2" fill="#3c3c3c"/><rect x="12" y="22" width="2" height="2" fill="#3c3c3c"/><rect x="14" y="22" width="2" height="2" fill="#6b6b6b"/><rect x="16" y="22" width="2" height="2" fill="#4c4c4c"/><rect x="18" y="22" width="2" height="2" fill="#6b6b6b"/><rect x="20" y="22" width="2" height="2" fill="#6b6b6b"/><rect x="22" y="22" width="2" height="2" fill="#3c3c3c"/><rect x="24" y="22" width="2" height="2" fill="#3c3c3c"/><rect x="12" y="24" width="2" height="2" fill="#3c3c3c"/><rect x="14" y="24" width="2" height="2" fill="#6a6a6a"/><rect x="16" y="24" width="2" height="2" fill="#4c4c4c"/><rect x="18" y="24" width="2" height="2" fill="#5f5f5f"/><rect x="20" y="24" width="2" height="2" fill="#4d4d4d"/><rect x="22" y="24" width="2" height="2" fill="#3c3c3c"/><rect x="14" y="26" width="2" height="2" fill="#3c3c3c"/><rect x="16" y="26" width="2" height="2" fill="#4c4c4c"/><rect x="18" y="26" width="2" height="2" fill="#545454"/><rect x="20" y="26" width="2" height="2" fill="#3c3c3c"/><rect x="14" y="28" width="2" height="2" fill="#3c3c3c"/><rect x="16" y="28" width="2" height="2" fill="#3c3c3c"/><rect x="18" y="28" width="2" height="2" fill="#3c3c3c"/><rect x="20" y="28" width="2" height="2" fill="#3c3c3c"/></svg>