<svg xmlns="http://www.w3.org/2000/svg" viewBox="0 0 18 18" width="18" height="18"><rect x="8" y="0" width="2" height="2" fill="#241a3a"/><rect x="2" y="6" width="2" height="2" fill="#241a3a"/><rect x="4" y="16" width="2" height="2" fill="#241a3a"/><rect x="14" y="8" width="2" height="2" fill="#241a3a"/><rect x="12" y="16" width="2" height="2" fill="#241a3a"/><rect x="6" y="0" width="2" height="2" fill="#241a3a"/><rect x="10" y="0" width="2" height="2" fill="#241a3a"/><rect x="2" y="4" width="2" height="2" fill="#241a3a"/><rect x="4" y="2" width="2" height="2" fill="#241a3a"/><rect x="4" y="14" width="2" height="2" fill="#241a3a"/><rect x="2" y="10" width="2" height="2" fill="#241a3a"/><rect x="12" y="2" width="2" height="2" fill="#241a3a"/><rect x="14" y="6" width="2" height="2" fill="#241a3a"/><rect x="12" y="14" width="2" height="2" fill="#241a3a"/><rect x="2" y="8" width="2" height="2" fill="#241a3a"/><rect x="4" y="12" width="2" height="2" fill="#241a3a"/><rect x="14" y="4" width="2" height="2" fill="#241a3a"/><rect x="12" y="12" width="2" height="2" fill="#241a3a"/><rect x="14" y="10" width="2" height="2" fill="#241a3a"/><rect x="6" y="2" width="2" height="2" fill="#d9a6ff"/><rect x="8" y="2" width="2" height="2" fill="#d9a6ff"/><rect x="10" y="2" width="2" height="2" fill="#d9a6ff"/><rect x="4" y="4" width="2" height="2" fill="#b06cff"/><rect x="6" y="4" width="2" height="2" fill="#d9a6ff"/><rect x="8" y="4" width="2" height="2" fill="#d9a6ff"/><rect x="10" y="4" width="2" height="2" fill="#d9a6ff"/><rect x="12" y="4" width="2" height="2" fill="#b06cff"/><rect x="4" y="6" width="2" height="2" fill="#8a4fd0"/><rect x="6" y="6" width="2" height="2" fill="#b06cff"/><rect x="8" y="6" width="2" height="2" fill="#f0e0ff"/><rect x="10" y="6" width="2" height="2" fill="#b06cff"/><rect x="12" y="6" width="2" height="2" fill="#b06cff"/><rect x="4" y="8" width="2" height="2" fill="#b06cff"/><rect x="6" y="8" width="2" height="2" fill="#b06cff"/><rect x="8" y="8" width="2" height="2" fill="#b06cff"/><rect x="10" y="8" width="2" height="2" fill="#b06cff"/><rect x="12" y="8" width="2" height="2" fill="#8a4fd0"/><rect x="4" y="10" width="2" height="2" fill="#b06cff"/><rect x="6" y="10" width="2" height="2" fill="#b06cff"/><rect x="8" y="10" width="2" height="2" fill="#b06cff"/><rect x="10" y="10" width="2" height="2" fill="#b06cff"/><rect x="12" y="10" width="2" height="2" fill="#b06cff"/><rect x="6" y="12" width="2" height="2" fill="#3f8f5a"/><rect x="8" y="12" width="2" height="2" fill="#3f8f5a"/><rect x="10" y="12" width="2" height="2" fill="#3f8f5a"/><rect x="6" y="14" width="2" height="2" fill="#3f8f5a"/><rect x="8" y="14" width="2" height="2" fill="#3f8f5a"/><rect x="10" y="14" width="2" height="2" fill="#3f8f5a"/><rect x="6" y="16" width="2" height="2" fill="#3f8f5a"/><rect x="8" y="16" width="2" height="2" fill="#3f8f5a"/><rect x="10" y="16" width="2" height="2" fill="#3f8f5a"/></svg>