<svg xmlns="http://www.w3.org/2000/svg" viewBox="0 0 16 16" width="16" height="16"><rect x="10" y="8" width="2" height="2" fill="#14141f"/><rect x="10" y="2" width="2" height="2" fill="#14141f"/><rect x="10" y="14" width="2" height="2" fill="#14141f"/><rect x="0" y="4" width="2" height="2" fill="#14141f"/><rect x="0" y="10" width="2" height="2" fill="#14141f"/><rect x="12" y="4" width="2" height="2" fill="#14141f"/><rect x="12" y="10" width="2" height="2" fill="#14141f"/><rect x="8" y="4" width="2" height="2" fill="#14141f"/><rect x="8" y="10" width="2" height="2" fill="#14141f"/><rect x="10" y="0" width="2" height="2" fill="#14141f"/><rect x="10" y="12" width="2" height="2" fill="#14141f"/><rect x="10" y="6" width="2" height="2" fill="#14141f"/><rect x="4" y="8" width="2" height="2" fill="#14141f"/><rect x="2" y="4" width="2" height="2" fill="#14141f"/><rect x="4" y="2" width="2" height="2" fill="#14141f"/><rect x="4" y="14" width="2" height="2" fill="#14141f"/><rect x="2" y="10" width="2" height="2" fill="#14141f"/><rect x="6" y="4" width="2" height="2" fill="#14141f"/><rect x="6" y="10" width="2" height="2" fill="#14141f"/><rect x="4" y="0" width="2" height="2" fill="#14141f"/><rect x="4" y="6" width="2" height="2" fill="#14141f"/><rect x="4" y="12" width="2" height="2" fill="#14141f"/><rect x="14" y="4" width="2" height="2" fill="#14141f"/><rect x="14" y="10" width="2" height="2" fill="#14141f"/><rect x="6" y="0" width="2" height="2" fill="#ff9ecf"/><rect x="8" y="0" width="2" height="2" fill="#ff9ecf"/><rect x="6" y="2" width="2" height="2" fill="#ff9ecf"/><rect x="8" y="2" width="2" height="2" fill="#ff9ecf"/><rect x="0" y="6" width="2" height="2" fill="#ff9ecf"/><rect x="2" y="6" width="2" height="2" fill="#ff9ecf"/><rect x="6" y="6" width="2" height="2" fill="#fff3b0"/><rect x="8" y="6" width="2" height="2" fill="#fff3b0"/><rect x="12" y="6" width="2" height="2" fill="#ff9ecf"/><rect x="14" y="6" width="2" height="2" fill="#ff9ecf"/><rect x="0" y="8" width="2" height="2" fill="#ff9ecf"/><rect x="2" y="8" width="2" height="2" fill="#ff9ecf"/><rect x="6" y="8" width="2" height="2" fill="#fff3b0"/><rect x="8" y="8" width="2" height="2" fill="#fff3b0"/><rect x="12" y="8" width="2" height="2" fill="#ff9ecf"/><rect x="14" y="8" width="2" height="2" fill="#ff9ecf"/><rect x="6" y="12" width="2" height="2" fill="#ff9ecf"/><rect x="8" y="12" width="2" height="2" fill="#ff9ecf"/><rect x="6" y="14" width="2" height="2" fill="#ff9ecf"/><rect x="8" y="14" width="2" height="2" fill="#ff9ecf"/></svg>