<svg xmlns="http://www.w3.org/2000/svg" viewBox="0 0 320 56" width="320" height="56"><rect x="164" y="4" width="4" height="4" fill="#3ee6ff"/><rect x="168" y="4" width="4" height="4" fill="#3ee6ff"/><rect x="172" y="4" width="4" height="4" fill="#3ee6ff"/><rect x="176" y="4" width="4" height="4" fill="#3ee6ff"/><rect x="180" y="4" width="4" height="4" fill="#3ee6ff"/><rect x="184" y="4" width="4" height="4" fill="#3ee6ff"/><rect x="136" y="8" width="4" height="4" fill="#3ee6ff"/><rect x="140" y="8" width="4" height="4" fill="#3ee6ff"/><rect x="144" y="8" width="4" height="4" fill="#3ee6ff"/><rect x="148" y="8" width="4" height="4" fill="#3ee6ff"/><rect x="152" y="8" width="4" height="4" fill="#3ee6ff"/><rect x="156" y="8" width="4" height="4" fill="#3ee6ff"/><rect x="160" y="8" width="4" height="4" fill="#3ee6ff"/><rect x="164" y="8" width="4" height="4" fill="#ffffff"/><rect x="168" y="8" width="4" height="4" fill="#ffffff"/><rect x="172" y="8" width="4" height="4" fill="#ffffff"/><rect x="176" y="8" width="4" height="4" fill="#ffffff"/><rect x="180" y="8" width="4" height="4" fill="#ffffff"/><rect x="184" y="8" width="4" height="4" fill="#ffffff"/><rect x="188" y="8" width="4" height="4" fill="#3ee6ff"/><rect x="192" y="8" width="4" height="4" fill="#3ee6ff"/><rect x="196" y="8" width="4" height="4" fill="#3ee6ff"/><rect x="200" y="8" width="4" height="4" fill="#3ee6ff"/><rect x="204" y="8" width="4" height="4" fill="#3ee6ff"/><rect x="208" y="8" width="4" height="4" fill="#3ee6ff"/><rect x="212" y="8" width="4" height="4" fill="#3ee6ff"/><rect x="48" y="12" width="4" height="4" fill="#a8f0ff"/><rect x="52" y="12" width="4" height="4" fill="#a8f0ff"/><rect x="56" y="12" width="4" height="4" fill="#a8f0ff"/><rect x="60" y="12" width="4" height="4" fill="#a8f0ff"/><rect x="64" y="12" width="4" height="4" fill="#a8f0ff"/><rect x="68" y="12" width="4" height="4" fill="#a8f0ff"/><rect x="72" y="12" width="4" height="4" fill="#a8f0ff"/><rect x="76" y="12" width="4" height="4" fill="#a8f0ff"/><rect x="80" y="12" width="4" height="4" fill="#a8f0ff"/><rect x="108" y="12" width="4" height="4" fill="#3ee6ff"/><rect x="112" y="12" width="4" height="4" fill="#3ee6ff"/><rect x="116" y="12" width="4" height="4" fill="#3ee6ff"/><rect x="120" y="12" width="4" height="4" fill="#3ee6ff"/><rect x="124" y="12" width="4" height="4" fill="#3ee6ff"/><rect x="128" y="12" width="4" height="4" fill="#3ee6ff"/><rect x="132" y="12" width="4" height="4" fill="#3ee6ff"/><rect x="136" y="12" width="4" height="4" fill="#ffffff"/><rect x="140" y="12" width="4" height="4" fill="#ffffff"/><rect x="144" y="12" width="4" height="4" fill="#ffffff"/><rect x="148" y="12" width="4" height="4" fill="#ffffff"/><rect x="152" y="12" width="4" height="4" fill="#ffffff"/><rect x="156" y="12" width="4" height="4" fill="#ffffff"/><rect x="160" y="12" width="4" height="4" fill="#ffffff"/><rect x="164" y="12" width="4" height="4" fill="#ffffff"/><rect x="168" y="12" width="4" height="4" fill="#ffffff"/><rect x="172" y="12" width="4" height="4" fill="#ffffff"/><rect x="176" y="12" width="4" height="4" fill="#ffffff"/><rect x="180" y="12" width="4" height="4" fill="#ffffff"/><rect x="184" y="12" width="4" height="4" fill="#ffffff"/><rect x="188" y="12" width="4" height="4" fill="#ffffff"/><rect x="192" y="12" width="4" height="4" fill="#ffffff"/><rect x="196" y="12" width="4" height="4" fill="#ffffff"/><rect x="200" y="12" width="4" height="4" fill="#ffffff"/><rect x="204" y="12" width="4" height="4" fill="#ffffff"/><rect x="208" y="12" width="4" height="4" fill="#ffffff"/><rect x="212" y="12" width="4" height="4" fill="#ffffff"/><rect x="216" y="12" width="4" height="4" fill="#3ee6ff"/><rect x="220" y="12" width="4" height="4" fill="#3ee6ff"/><rect x="224" y="12" width="4" height="4" fill="#3ee6ff"/><rect x="228" y="12" width="4" height="4" fill="#3ee6ff"/><rect x="232" y="12" width="4" height="4" fill="#3ee6ff"/><rect x="236" y="12" width="4" height="4" fill="#3ee6ff"/><rect x="24" y="16" width="4" height="4" fill="#a8f0ff"/><rect x="28" y="16" width="4" height="4" fill="#a8f0ff"/><rect x="32" y="16" width="4" height="4" fill="#a8f0ff"/><rect x="36" y="16" width="4" height="4" fill="#a8f0ff"/><rect x="40" y="16" width="4" height="4" fill="#a8f0ff"/><rect x="44" y="16" width="4" height="4" fill="#a8f0ff"/><rect x="48" y="16" width="4" height="4" fill="#a8f0ff"/><rect x="52" y="16" width="4" height="4" fill="#a8f0ff"/><rect x="56" y="16" width="4" height="4" fill="#a8f0ff"/><rect x="84" y="16" width="4" height="4" fill="#3ee6ff"/><rect x="88" y="16" width="4" height="4" fill="#3ee6ff"/><rect x="92" y="16" width="4" height="4" fill="#3ee6ff"/><rect x="96" y="16" width="4" height="4" fill="#3ee6ff"/><rect x="100" y="16" width="4" height="4" fill="#3ee6ff"/><rect x="104" y="16" width="4" height="4" fill="#3ee6ff"/><rect x="108" y="16" width="4" height="4" fill="#ffffff"/><rect x="112" y="16" width="4" height="4" fill="#ffffff"/><rect x="116" y="16" width="4" height="4" fill="#ffffff"/><rect x="120" y="16" width="4" height="4" fill="#ffffff"/><rect x="124" y="16" width="4" height="4" fill="#ffffff"/><rect x="128" y="16" width="4" height="4" fill="#ffffff"/><rect x="132" y="16" width="4" height="4" fill="#ffffff"/><rect x="136" y="16" width="4" height="4" fill="#ffffff"/><rect x="140" y="16" width="4" height="4" fill="#ffffff"/><rect x="144" y="16" width="4" height="4" fill="#ffffff"/><rect x="148" y="16" width="4" height="4" fill="#ffffff"/><rect x="152" y="16" width="4" height="4" fill="#ffffff"/><rect x="156" y="16" width="4" height="4" fill="#ffffff"/><rect x="160" y="16" width="4" height="4" fill="#ffffff"/><rect x="164" y="16" width="4" height="4" fill="#ffffff"/><rect x="168" y="16" width="4" height="4" fill="#ffffff"/><rect x="172" y="16" width="4" height="4" fill="#ffffff"/><rect x="176" y="16" width="4" height="4" fill="#ffffff"/><rect x="180" y="16" width="4" height="4" fill="#ffffff"/><rect x="184" y="16" width="4" height="4" fill="#ffffff"/><rect x="188" y="16" width="4" height="4" fill="#ffffff"/><rect x="192" y="16" width="4" height="4" fill="#ffffff"/><rect x="196" y="16" width="4" height="4" fill="#ffffff"/><rect x="200" y="16" width="4" height="4" fill="#ffffff"/><rect x="204" y="16" width="4" height="4" fill="#ffffff"/><rect x="208" y="16" width="4" height="4" fill="#ffffff"/><rect x="212" y="16" width="4" height="4" fill="#ffffff"/><rect x="216" y="16" width="4" height="4" fill="#ffffff"/><rect x="220" y="16" width="4" height="4" fill="#ffffff"/><rect x="224" y="16" width="4" height="4" fill="#ffffff"/><rect x="228" y="16" width="4" height="4" fill="#ffffff"/><rect x="232" y="16" width="4" height="4" fill="#ffffff"/><rect x="236" y="16" width="4" height="4" fill="#ffffff"/><rect x="240" y="16" width="4" height="4" fill="#3ee6ff"/><rect x="244" y="16" width="4" height="4" fill="#3ee6ff"/><rect x="248" y="16" width="4" height="4" fill="#3ee6ff"/><rect x="252" y="16" width="4" height="4" fill="#3ee6ff"/><rect x="256" y="16" width="4" height="4" fill="#3ee6ff"/><rect x="260" y="16" width="4" height="4" fill="#3ee6ff"/><rect x="264" y="16" width="4" height="4" fill="#3ee6ff"/><rect x="56" y="20" width="4" height="4" fill="#3ee6ff"/><rect x="60" y="20" width="4" height="4" fill="#3ee6ff"/><rect x="64" y="20" width="4" height="4" fill="#3ee6ff"/><rect x="68" y="20" width="4" height="4" fill="#3ee6ff"/><rect x="72" y="20" width="4" height="4" fill="#3ee6ff"/><rect x="76" y="20" width="4" height="4" fill="#3ee6ff"/><rect x="80" y="20" width="4" height="4" fill="#3ee6ff"/><rect x="84" y="20" width="4" height="4" fill="#ffffff"/><rect x="88" y="20" width="4" height="4" fill="#ffffff"/><rect x="92" y="20" width="4" height="4" fill="#ffffff"/><rect x="96" y="20" width="4" height="4" fill="#ffffff"/><rect x="100" y="20" width="4" height="4" fill="#ffffff"/><rect x="104" y="20" width="4" height="4" fill="#ffffff"/><rect x="108" y="20" width="4" height="4" fill="#ffffff"/><rect x="112" y="20" width="4" height="4" fill="#ffffff"/><rect x="116" y="20" width="4" height="4" fill="#ffffff"/><rect x="120" y="20" width="4" height="4" fill="#ffffff"/><rect x="124" y="20" width="4" height="4" fill="#ffffff"/><rect x="128" y="20" width="4" height="4" fill="#ffffff"/><rect x="132" y="20" width="4" height="4" fill="#ffffff"/><rect x="136" y="20" width="4" height="4" fill="#ffffff"/><rect x="140" y="20" width="4" height="4" fill="#ffffff"/><rect x="144" y="20" width="4" height="4" fill="#ffffff"/><rect x="148" y="20" width="4" height="4" fill="#ffffff"/><rect x="152" y="20" width="4" height="4" fill="#ffffff"/><rect x="156" y="20" width="4" height="4" fill="#ffffff"/><rect x="160" y="20" width="4" height="4" fill="#ffffff"/><rect x="164" y="20" width="4" height="4" fill="#ffffff"/><rect x="168" y="20" width="4" height="4" fill="#ffffff"/><rect x="172" y="20" width="4" height="4" fill="#ffffff"/><rect x="176" y="20" width="4" height="4" fill="#ffffff"/><rect x="180" y="20" width="4" height="4" fill="#ffffff"/><rect x="184" y="20" width="4" height="4" fill="#ffffff"/><rect x="188" y="20" width="4" height="4" fill="#ffffff"/><rect x="192" y="20" width="4" height="4" fill="#ffffff"/><rect x="196" y="20" width="4" height="4" fill="#ffffff"/><rect x="200" y="20" width="4" height="4" fill="#ffffff"/><rect x="204" y="20" width="4" height="4" fill="#ffffff"/><rect x="208" y="20" width="4" height="4" fill="#ffffff"/><rect x="212" y="20" width="4" height="4" fill="#ffffff"/><rect x="216" y="20" width="4" height="4" fill="#ffffff"/><rect x="220" y="20" width="4" height="4" fill="#ffffff"/><rect x="224" y="20" width="4" height="4" fill="#ffffff"/><rect x="228" y="20" width="4" height="4" fill="#ffffff"/><rect x="232" y="20" width="4" height="4" fill="#ffffff"/><rect x="236" y="20" width="4" height="4" fill="#ffffff"/><rect x="240" y="20" width="4" height="4" fill="#ffffff"/><rect x="244" y="20" width="4" height="4" fill="#ffffff"/><rect x="248" y="20" width="4" height="4" fill="#ffffff"/><rect x="252" y="20" width="4" height="4" fill="#ffffff"/><rect x="256" y="20" width="4" height="4" fill="#ffffff"/><rect x="260" y="20" width="4" height="4" fill="#ffffff"/><rect x="264" y="20" width="4" height="4" fill="#ffffff"/><rect x="268" y="20" width="4" height="4" fill="#3ee6ff"/><rect x="272" y="20" width="4" height="4" fill="#3ee6ff"/><rect x="276" y="20" width="4" height="4" fill="#3ee6ff"/><rect x="280" y="20" width="4" height="4" fill="#3ee6ff"/><rect x="284" y="20" width="4" height="4" fill="#3ee6ff"/><rect x="288" y="20" width="4" height="4" fill="#3ee6ff"/><rect x="292" y="20" width="4" height="4" fill="#3ee6ff"/><rect x="32" y="24" width="4" height="4" fill="#3ee6ff"/><rect x="36" y="24" width="4" height="4" fill="#3ee6ff"/><rect x="40" y="24" width="4" height="4" fill="#3ee6ff"/><rect x="44" y="24" width="4" height="4" fill="#3ee6ff"/><rect x="48" y="24" width="4" height="4" fill="#3ee6ff"/><rect x="52" y="24" width="4" height="4" fill="#3ee6ff"/><rect x="56" y="24" width="4" height="4" fill="#ffffff"/><rect x="60" y="24" width="4" height="4" fill="#ffffff"/><rect x="64" y="24" width="4" height="4" fill="#ffffff"/><rect x="68" y="24" width="4" height="4" fill="#ffffff"/><rect x="72" y="24" width="4" height="4" fill="#ffffff"/><rect x="76" y="24" width="4" height="4" fill="#ffffff"/><rect x="80" y="24" width="4" height="4" fill="#ffffff"/><rect x="84" y="24" width="4" height="4" fill="#ffffff"/><rect x="88" y="24" width="4" height="4" fill="#ffffff"/><rect x="92" y="24" width="4" height="4" fill="#ffffff"/><rect x="96" y="24" width="4" height="4" fill="#ffffff"/><rect x="100" y="24" width="4" height="4" fill="#ffffff"/><rect x="104" y="24" width="4" height="4" fill="#ffffff"/><rect x="108" y="24" width="4" height="4" fill="#ffffff"/><rect x="112" y="24" width="4" height="4" fill="#ffffff"/><rect x="116" y="24" width="4" height="4" fill="#ffffff"/><rect x="120" y="24" width="4" height="4" fill="#ffffff"/><rect x="124" y="24" width="4" height="4" fill="#ffffff"/><rect x="128" y="24" width="4" height="4" fill="#ffffff"/><rect x="132" y="24" width="4" height="4" fill="#ffffff"/><rect x="136" y="24" width="4" height="4" fill="#ffffff"/><rect x="140" y="24" width="4" height="4" fill="#ffffff"/><rect x="144" y="24" width="4" height="4" fill="#ffffff"/><rect x="148" y="24" width="4" height="4" fill="#ffffff"/><rect x="152" y="24" width="4" height="4" fill="#ffffff"/><rect x="156" y="24" width="4" height="4" fill="#ffffff"/><rect x="160" y="24" width="4" height="4" fill="#ffffff"/><rect x="164" y="24" width="4" height="4" fill="#ffffff"/><rect x="168" y="24" width="4" height="4" fill="#ffffff"/><rect x="172" y="24" width="4" height="4" fill="#ffffff"/><rect x="176" y="24" width="4" height="4" fill="#ffffff"/><rect x="180" y="24" width="4" height="4" fill="#ffffff"/><rect x="184" y="24" width="4" height="4" fill="#ffffff"/><rect x="188" y="24" width="4" height="4" fill="#ffffff"/><rect x="192" y="24" width="4" height="4" fill="#ffffff"/><rect x="196" y="24" width="4" height="4" fill="#ffffff"/><rect x="200" y="24" width="4" height="4" fill="#ffffff"/><rect x="204" y="24" width="4" height="4" fill="#ffffff"/><rect x="208" y="24" width="4" height="4" fill="#ffffff"/><rect x="212" y="24" width="4" height="4" fill="#ffffff"/><rect x="216" y="24" width="4" height="4" fill="#ffffff"/><rect x="220" y="24" width="4" height="4" fill="#ffffff"/><rect x="224" y="24" width="4" height="4" fill="#ffffff"/><rect x="228" y="24" width="4" height="4" fill="#ffffff"/><rect x="232" y="24" width="4" height="4" fill="#ffffff"/><rect x="236" y="24" width="4" height="4" fill="#ffffff"/><rect x="240" y="24" width="4" height="4" fill="#ffffff"/><rect x="244" y="24" width="4" height="4" fill="#ffffff"/><rect x="248" y="24" width="4" height="4" fill="#ffffff"/><rect x="252" y="24" width="4" height="4" fill="#ffffff"/><rect x="256" y="24" width="4" height="4" fill="#ffffff"/><rect x="260" y="24" width="4" height="4" fill="#ffffff"/><rect x="264" y="24" width="4" height="4" fill="#ffffff"/><rect x="268" y="24" width="4" height="4" fill="#ffffff"/><rect x="272" y="24" width="4" height="4" fill="#ffffff"/><rect x="276" y="24" width="4" height="4" fill="#ffffff"/><rect x="280" y="24" width="4" height="4" fill="#ffffff"/><rect x="284" y="24" width="4" height="4" fill="#ffffff"/><rect x="288" y="24" width="4" height="4" fill="#ffffff"/><rect x="292" y="24" width="4" height="4" fill="#ffffff"/><rect x="296" y="24" width="4" height="4" fill="#3ee6ff"/><rect x="300" y="24" width="4" height="4" fill="#3ee6ff"/><rect x="304" y="24" width="4" height="4" fill="#3ee6ff"/><rect x="308" y="24" width="4" height="4" fill="#3ee6ff"/><rect x="312" y="24" width="4" height="4" fill="#3ee6ff"/><rect x="316" y="24" width="4" height="4" fill="#3ee6ff"/><rect x="32" y="28" width="4" height="4" fill="#3ee6ff"/><rect x="36" y="28" width="4" height="4" fill="#3ee6ff"/><rect x="40" y="28" width="4" height="4" fill="#3ee6ff"/><rect x="44" y="28" width="4" height="4" fill="#3ee6ff"/><rect x="48" y="28" width="4" height="4" fill="#3ee6ff"/><rect x="52" y="28" width="4" height="4" fill="#3ee6ff"/><rect x="56" y="28" width="4" height="4" fill="#ffffff"/><rect x="60" y="28" width="4" height="4" fill="#ffffff"/><rect x="64" y="28" width="4" height="4" fill="#ffffff"/><rect x="68" y="28" width="4" height="4" fill="#ffffff"/><rect x="72" y="28" width="4" height="4" fill="#ffffff"/><rect x="76" y="28" width="4" height="4" fill="#ffffff"/><rect x="80" y="28" width="4" height="4" fill="#ffffff"/><rect x="84" y="28" width="4" height="4" fill="#ffffff"/><rect x="88" y="28" width="4" height="4" fill="#ffffff"/><rect x="92" y="28" width="4" height="4" fill="#ffffff"/><rect x="96" y="28" width="4" height="4" fill="#ffffff"/><rect x="100" y="28" width="4" height="4" fill="#ffffff"/><rect x="104" y="28" width="4" height="4" fill="#ffffff"/><rect x="108" y="28" width="4" height="4" fill="#ffffff"/><rect x="112" y="28" width="4" height="4" fill="#ffffff"/><rect x="116" y="28" width="4" height="4" fill="#ffffff"/><rect x="120" y="28" width="4" height="4" fill="#ffffff"/><rect x="124" y="28" width="4" height="4" fill="#ffffff"/><rect x="128" y="28" width="4" height="4" fill="#ffffff"/><rect x="132" y="28" width="4" height="4" fill="#ffffff"/><rect x="136" y="28" width="4" height="4" fill="#ffffff"/><rect x="140" y="28" width="4" height="4" fill="#ffffff"/><rect x="144" y="28" width="4" height="4" fill="#ffffff"/><rect x="148" y="28" width="4" height="4" fill="#ffffff"/><rect x="152" y="28" width="4" height="4" fill="#ffffff"/><rect x="156" y="28" width="4" height="4" fill="#ffffff"/><rect x="160" y="28" width="4" height="4" fill="#ffffff"/><rect x="164" y="28" width="4" height="4" fill="#ffffff"/><rect x="168" y="28" width="4" height="4" fill="#ffffff"/><rect x="172" y="28" width="4" height="4" fill="#ffffff"/><rect x="176" y="28" width="4" height="4" fill="#ffffff"/><rect x="180" y="28" width="4" height="4" fill="#ffffff"/><rect x="184" y="28" width="4" height="4" fill="#ffffff"/><rect x="188" y="28" width="4" height="4" fill="#ffffff"/><rect x="192" y="28" width="4" height="4" fill="#ffffff"/><rect x="196" y="28" width="4" height="4" fill="#ffffff"/><rect x="200" y="28" width="4" height="4" fill="#ffffff"/><rect x="204" y="28" width="4" height="4" fill="#ffffff"/><rect x="208" y="28" width="4" height="4" fill="#ffffff"/><rect x="212" y="28" width="4" height="4" fill="#ffffff"/><rect x="216" y="28" width="4" height="4" fill="#ffffff"/><rect x="220" y="28" width="4" height="4" fill="#ffffff"/><rect x="224" y="28" width="4" height="4" fill="#ffffff"/><rect x="228" y="28" width="4" height="4" fill="#ffffff"/><rect x="232" y="28" width="4" height="4" fill="#ffffff"/><rect x="236" y="28" width="4" height="4" fill="#ffffff"/><rect x="240" y="28" width="4" height="4" fill="#ffffff"/><rect x="244" y="28" width="4" height="4" fill="#ffffff"/><rect x="248" y="28" width="4" height="4" fill="#ffffff"/><rect x="252" y="28" width="4" height="4" fill="#ffffff"/><rect x="256" y="28" width="4" height="4" fill="#ffffff"/><rect x="260" y="28" width="4" height="4" fill="#ffffff"/><rect x="264" y="28" width="4" height="4" fill="#ffffff"/><rect x="268" y="28" width="4" height="4" fill="#ffffff"/><rect x="272" y="28" width="4" height="4" fill="#ffffff"/><rect x="276" y="28" width="4" height="4" fill="#ffffff"/><rect x="280" y="28" width="4" height="4" fill="#ffffff"/><rect x="284" y="28" width="4" height="4" fill="#ffffff"/><rect x="288" y="28" width="4" height="4" fill="#ffffff"/><rect x="292" y="28" width="4" height="4" fill="#ffffff"/><rect x="296" y="28" width="4" height="4" fill="#3ee6ff"/><rect x="300" y="28" width="4" height="4" fill="#3ee6ff"/><rect x="304" y="28" width="4" height="4" fill="#3ee6ff"/><rect x="308" y="28" width="4" height="4" fill="#3ee6ff"/><rect x="312" y="28" width="4" height="4" fill="#3ee6ff"/><rect x="316" y="28" width="4" height="4" fill="#3ee6ff"/><rect x="32" y="32" width="4" height="4" fill="#3ee6ff"/><rect x="36" y="32" width="4" height="4" fill="#3ee6ff"/><rect x="40" y="32" width="4" height="4" fill="#3ee6ff"/><rect x="44" y="32" width="4" height="4" fill="#3ee6ff"/><rect x="48" y="32" width="4" height="4" fill="#3ee6ff"/><rect x="52" y="32" width="4" height="4" fill="#3ee6ff"/><rect x="56" y="32" width="4" height="4" fill="#ffffff"/><rect x="60" y="32" width="4" height="4" fill="#ffffff"/><rect x="64" y="32" width="4" height="4" fill="#ffffff"/><rect x="68" y="32" width="4" height="4" fill="#ffffff"/><rect x="72" y="32" width="4" height="4" fill="#ffffff"/><rect x="76" y="32" width="4" height="4" fill="#ffffff"/><rect x="80" y="32" width="4" height="4" fill="#ffffff"/><rect x="84" y="32" width="4" height="4" fill="#ffffff"/><rect x="88" y="32" width="4" height="4" fill="#ffffff"/><rect x="92" y="32" width="4" height="4" fill="#ffffff"/><rect x="96" y="32" width="4" height="4" fill="#ffffff"/><rect x="100" y="32" width="4" height="4" fill="#ffffff"/><rect x="104" y="32" width="4" height="4" fill="#ffffff"/><rect x="108" y="32" width="4" height="4" fill="#ffffff"/><rect x="112" y="32" width="4" height="4" fill="#ffffff"/><rect x="116" y="32" width="4" height="4" fill="#ffffff"/><rect x="120" y="32" width="4" height="4" fill="#ffffff"/><rect x="124" y="32" width="4" height="4" fill="#ffffff"/><rect x="128" y="32" width="4" height="4" fill="#ffffff"/><rect x="132" y="32" width="4" height="4" fill="#ffffff"/><rect x="136" y="32" width="4" height="4" fill="#ffffff"/><rect x="140" y="32" width="4" height="4" fill="#ffffff"/><rect x="144" y="32" width="4" height="4" fill="#ffffff"/><rect x="148" y="32" width="4" height="4" fill="#ffffff"/><rect x="152" y="32" width="4" height="4" fill="#ffffff"/><rect x="156" y="32" width="4" height="4" fill="#ffffff"/><rect x="160" y="32" width="4" height="4" fill="#ffffff"/><rect x="164" y="32" width="4" height="4" fill="#ffffff"/><rect x="168" y="32" width="4" height="4" fill="#ffffff"/><rect x="172" y="32" width="4" height="4" fill="#ffffff"/><rect x="176" y="32" width="4" height="4" fill="#ffffff"/><rect x="180" y="32" width="4" height="4" fill="#ffffff"/><rect x="184" y="32" width="4" height="4" fill="#ffffff"/><rect x="188" y="32" width="4" height="4" fill="#ffffff"/><rect x="192" y="32" width="4" height="4" fill="#ffffff"/><rect x="196" y="32" width="4" height="4" fill="#ffffff"/><rect x="200" y="32" width="4" height="4" fill="#ffffff"/><rect x="204" y="32" width="4" height="4" fill="#ffffff"/><rect x="208" y="32" width="4" height="4" fill="#ffffff"/><rect x="212" y="32" width="4" height="4" fill="#ffffff"/><rect x="216" y="32" width="4" height="4" fill="#ffffff"/><rect x="220" y="32" width="4" height="4" fill="#ffffff"/><rect x="224" y="32" width="4" height="4" fill="#ffffff"/><rect x="228" y="32" width="4" height="4" fill="#ffffff"/><rect x="232" y="32" width="4" height="4" fill="#ffffff"/><rect x="236" y="32" width="4" height="4" fill="#ffffff"/><rect x="240" y="32" width="4" height="4" fill="#ffffff"/><rect x="244" y="32" width="4" height="4" fill="#ffffff"/><rect x="248" y="32" width="4" height="4" fill="#ffffff"/><rect x="252" y="32" width="4" height="4" fill="#ffffff"/><rect x="256" y="32" width="4" height="4" fill="#ffffff"/><rect x="260" y="32" width="4" height="4" fill="#ffffff"/><rect x="264" y="32" width="4" height="4" fill="#ffffff"/><rect x="268" y="32" width="4" height="4" fill="#ffffff"/><rect x="272" y="32" width="4" height="4" fill="#ffffff"/><rect x="276" y="32" width="4" height="4" fill="#ffffff"/><rect x="280" y="32" width="4" height="4" fill="#ffffff"/><rect x="284" y="32" width="4" height="4" fill="#ffffff"/><rect x="288" y="32" width="4" height="4" fill="#ffffff"/><rect x="292" y="32" width="4" height="4" fill="#ffffff"/><rect x="296" y="32" width="4" height="4" fill="#3ee6ff"/><rect x="300" y="32" width="4" height="4" fill="#3ee6ff"/><rect x="304" y="32" width="4" height="4" fill="#3ee6ff"/><rect x="308" y="32" width="4" height="4" fill="#3ee6ff"/><rect x="312" y="32" width="4" height="4" fill="#3ee6ff"/><rect x="316" y="32" width="4" height="4" fill="#3ee6ff"/><rect x="56" y="36" width="4" height="4" fill="#3ee6ff"/><rect x="60" y="36" width="4" height="4" fill="#3ee6ff"/><rect x="64" y="36" width="4" height="4" fill="#3ee6ff"/><rect x="68" y="36" width="4" height="4" fill="#3ee6ff"/><rect x="72" y="36" width="4" height="4" fill="#3ee6ff"/><rect x="76" y="36" width="4" height="4" fill="#3ee6ff"/><rect x="80" y="36" width="4" height="4" fill="#3ee6ff"/><rect x="84" y="36" width="4" height="4" fill="#ffffff"/><rect x="88" y="36" width="4" height="4" fill="#ffffff"/><rect x="92" y="36" width="4" height="4" fill="#ffffff"/><rect x="96" y="36" width="4" height="4" fill="#ffffff"/><rect x="100" y="36" width="4" height="4" fill="#ffffff"/><rect x="104" y="36" width="4" height="4" fill="#ffffff"/><rect x="108" y="36" width="4" height="4" fill="#ffffff"/><rect x="112" y="36" width="4" height="4" fill="#ffffff"/><rect x="116" y="36" width="4" height="4" fill="#ffffff"/><rect x="120" y="36" width="4" height="4" fill="#ffffff"/><rect x="124" y="36" width="4" height="4" fill="#ffffff"/><rect x="128" y="36" width="4" height="4" fill="#ffffff"/><rect x="132" y="36" width="4" height="4" fill="#ffffff"/><rect x="136" y="36" width="4" height="4" fill="#ffffff"/><rect x="140" y="36" width="4" height="4" fill="#ffffff"/><rect x="144" y="36" width="4" height="4" fill="#ffffff"/><rect x="148" y="36" width="4" height="4" fill="#ffffff"/><rect x="152" y="36" width="4" height="4" fill="#ffffff"/><rect x="156" y="36" width="4" height="4" fill="#ffffff"/><rect x="160" y="36" width="4" height="4" fill="#ffffff"/><rect x="164" y="36" width="4" height="4" fill="#ffffff"/><rect x="168" y="36" width="4" height="4" fill="#ffffff"/><rect x="172" y="36" width="4" height="4" fill="#ffffff"/><rect x="176" y="36" width="4" height="4" fill="#ffffff"/><rect x="180" y="36" width="4" height="4" fill="#ffffff"/><rect x="184" y="36" width="4" height="4" fill="#ffffff"/><rect x="188" y="36" width="4" height="4" fill="#ffffff"/><rect x="192" y="36" width="4" height="4" fill="#ffffff"/><rect x="196" y="36" width="4" height="4" fill="#ffffff"/><rect x="200" y="36" width="4" height="4" fill="#ffffff"/><rect x="204" y="36" width="4" height="4" fill="#ffffff"/><rect x="208" y="36" width="4" height="4" fill="#ffffff"/><rect x="212" y="36" width="4" height="4" fill="#ffffff"/><rect x="216" y="36" width="4" height="4" fill="#ffffff"/><rect x="220" y="36" width="4" height="4" fill="#ffffff"/><rect x="224" y="36" width="4" height="4" fill="#ffffff"/><rect x="228" y="36" width="4" height="4" fill="#ffffff"/><rect x="232" y="36" width="4" height="4" fill="#ffffff"/><rect x="236" y="36" width="4" height="4" fill="#ffffff"/><rect x="240" y="36" width="4" height="4" fill="#ffffff"/><rect x="244" y="36" width="4" height="4" fill="#ffffff"/><rect x="248" y="36" width="4" height="4" fill="#ffffff"/><rect x="252" y="36" width="4" height="4" fill="#ffffff"/><rect x="256" y="36" width="4" height="4" fill="#ffffff"/><rect x="260" y="36" width="4" height="4" fill="#ffffff"/><rect x="264" y="36" width="4" height="4" fill="#ffffff"/><rect x="268" y="36" width="4" height="4" fill="#3ee6ff"/><rect x="272" y="36" width="4" height="4" fill="#3ee6ff"/><rect x="276" y="36" width="4" height="4" fill="#3ee6ff"/><rect x="280" y="36" width="4" height="4" fill="#3ee6ff"/><rect x="284" y="36" width="4" height="4" fill="#3ee6ff"/><rect x="288" y="36" width="4" height="4" fill="#3ee6ff"/><rect x="292" y="36" width="4" height="4" fill="#3ee6ff"/><rect x="64" y="40" width="4" height="4" fill="#a8f0ff"/><rect x="68" y="40" width="4" height="4" fill="#a8f0ff"/><rect x="72" y="40" width="4" height="4" fill="#a8f0ff"/><rect x="76" y="40" width="4" height="4" fill="#a8f0ff"/><rect x="80" y="40" width="4" height="4" fill="#a8f0ff"/><rect x="84" y="40" width="4" height="4" fill="#a8f0ff"/><rect x="88" y="40" width="4" height="4" fill="#a8f0ff"/><rect x="92" y="40" width="4" height="4" fill="#a8f0ff"/><rect x="96" y="40" width="4" height="4" fill="#a8f0ff"/><rect x="100" y="40" width="4" height="4" fill="#3ee6ff"/><rect x="104" y="40" width="4" height="4" fill="#3ee6ff"/><rect x="108" y="40" width="4" height="4" fill="#ffffff"/><rect x="112" y="40" width="4" height="4" fill="#ffffff"/><rect x="116" y="40" width="4" height="4" fill="#ffffff"/><rect x="120" y="40" width="4" height="4" fill="#ffffff"/><rect x="124" y="40" width="4" height="4" fill="#ffffff"/><rect x="128" y="40" width="4" height="4" fill="#ffffff"/><rect x="132" y="40" width="4" height="4" fill="#ffffff"/><rect x="136" y="40" width="4" height="4" fill="#ffffff"/><rect x="140" y="40" width="4" height="4" fill="#ffffff"/><rect x="144" y="40" width="4" height="4" fill="#ffffff"/><rect x="148" y="40" width="4" height="4" fill="#ffffff"/><rect x="152" y="40" width="4" height="4" fill="#ffffff"/><rect x="156" y="40" width="4" height="4" fill="#ffffff"/><rect x="160" y="40" width="4" height="4" fill="#ffffff"/><rect x="164" y="40" width="4" height="4" fill="#ffffff"/><rect x="168" y="40" width="4" height="4" fill="#ffffff"/><rect x="172" y="40" width="4" height="4" fill="#ffffff"/><rect x="176" y="40" width="4" height="4" fill="#ffffff"/><rect x="180" y="40" width="4" height="4" fill="#ffffff"/><rect x="184" y="40" width="4" height="4" fill="#ffffff"/><rect x="188" y="40" width="4" height="4" fill="#ffffff"/><rect x="192" y="40" width="4" height="4" fill="#ffffff"/><rect x="196" y="40" width="4" height="4" fill="#ffffff"/><rect x="200" y="40" width="4" height="4" fill="#ffffff"/><rect x="204" y="40" width="4" height="4" fill="#ffffff"/><rect x="208" y="40" width="4" height="4" fill="#ffffff"/><rect x="212" y="40" width="4" height="4" fill="#ffffff"/><rect x="216" y="40" width="4" height="4" fill="#ffffff"/><rect x="220" y="40" width="4" height="4" fill="#ffffff"/><rect x="224" y="40" width="4" height="4" fill="#ffffff"/><rect x="228" y="40" width="4" height="4" fill="#ffffff"/><rect x="232" y="40" width="4" height="4" fill="#ffffff"/><rect x="236" y="40" width="4" height="4" fill="#ffffff"/><rect x="240" y="40" width="4" height="4" fill="#3ee6ff"/><rect x="244" y="40" width="4" height="4" fill="#3ee6ff"/><rect x="248" y="40" width="4" height="4" fill="#3ee6ff"/><rect x="252" y="40" width="4" height="4" fill="#3ee6ff"/><rect x="256" y="40" width="4" height="4" fill="#3ee6ff"/><rect x="260" y="40" width="4" height="4" fill="#3ee6ff"/><rect x="264" y="40" width="4" height="4" fill="#3ee6ff"/><rect x="40" y="44" width="4" height="4" fill="#a8f0ff"/><rect x="44" y="44" width="4" height="4" fill="#a8f0ff"/><rect x="48" y="44" width="4" height="4" fill="#a8f0ff"/><rect x="52" y="44" width="4" height="4" fill="#a8f0ff"/><rect x="56" y="44" width="4" height="4" fill="#a8f0ff"/><rect x="60" y="44" width="4" height="4" fill="#a8f0ff"/><rect x="64" y="44" width="4" height="4" fill="#a8f0ff"/><rect x="68" y="44" width="4" height="4" fill="#a8f0ff"/><rect x="72" y="44" width="4" height="4" fill="#a8f0ff"/><rect x="108" y="44" width="4" height="4" fill="#3ee6ff"/><rect x="112" y="44" width="4" height="4" fill="#3ee6ff"/><rect x="116" y="44" width="4" height="4" fill="#3ee6ff"/><rect x="120" y="44" width="4" height="4" fill="#3ee6ff"/><rect x="124" y="44" width="4" height="4" fill="#3ee6ff"/><rect x="128" y="44" width="4" height="4" fill="#3ee6ff"/><rect x="132" y="44" width="4" height="4" fill="#3ee6ff"/><rect x="136" y="44" width="4" height="4" fill="#ffffff"/><rect x="140" y="44" width="4" height="4" fill="#ffffff"/><rect x="144" y="44" width="4" height="4" fill="#ffffff"/><rect x="148" y="44" width="4" height="4" fill="#ffffff"/><rect x="152" y="44" width="4" height="4" fill="#ffffff"/><rect x="156" y="44" width="4" height="4" fill="#ffffff"/><rect x="160" y="44" width="4" height="4" fill="#ffffff"/><rect x="164" y="44" width="4" height="4" fill="#ffffff"/><rect x="168" y="44" width="4" height="4" fill="#ffffff"/><rect x="172" y="44" width="4" height="4" fill="#ffffff"/><rect x="176" y="44" width="4" height="4" fill="#ffffff"/><rect x="180" y="44" width="4" height="4" fill="#ffffff"/><rect x="184" y="44" width="4" height="4" fill="#ffffff"/><rect x="188" y="44" width="4" height="4" fill="#ffffff"/><rect x="192" y="44" width="4" height="4" fill="#ffffff"/><rect x="196" y="44" width="4" height="4" fill="#ffffff"/><rect x="200" y="44" width="4" height="4" fill="#ffffff"/><rect x="204" y="44" width="4" height="4" fill="#ffffff"/><rect x="208" y="44" width="4" height="4" fill="#ffffff"/><rect x="212" y="44" width="4" height="4" fill="#ffffff"/><rect x="216" y="44" width="4" height="4" fill="#3ee6ff"/><rect x="220" y="44" width="4" height="4" fill="#3ee6ff"/><rect x="224" y="44" width="4" height="4" fill="#3ee6ff"/><rect x="228" y="44" width="4" height="4" fill="#3ee6ff"/><rect x="232" y="44" width="4" height="4" fill="#3ee6ff"/><rect x="236" y="44" width="4" height="4" fill="#3ee6ff"/><rect x="136" y="48" width="4" height="4" fill="#3ee6ff"/><rect x="140" y="48" width="4" height="4" fill="#3ee6ff"/><rect x="144" y="48" width="4" height="4" fill="#3ee6ff"/><rect x="148" y="48" width="4" height="4" fill="#3ee6ff"/><rect x="152" y="48" width="4" height="4" fill="#3ee6ff"/><rect x="156" y="48" width="4" height="4" fill="#3ee6ff"/><rect x="160" y="48" width="4" height="4" fill="#3ee6ff"/><rect x="164" y="48" width="4" height="4" fill="#ffffff"/><rect x="168" y="48" width="4" height="4" fill="#ffffff"/><rect x="172" y="48" width="4" height="4" fill="#ffffff"/><rect x="176" y="48" width="4" height="4" fill="#ffffff"/><rect x="180" y="48" width="4" height="4" fill="#ffffff"/><rect x="184" y="48" width="4" height="4" fill="#ffffff"/><rect x="188" y="48" width="4" height="4" fill="#3ee6ff"/><rect x="192" y="48" width="4" height="4" fill="#3ee6ff"/><rect x="196" y="48" width="4" height="4" fill="#3ee6ff"/><rect x="200" y="48" width="4" height="4" fill="#3ee6ff"/><rect x="204" y="48" width="4" height="4" fill="#3ee6ff"/><rect x="208" y="48" width="4" height="4" fill="#3ee6ff"/><rect x="212" y="48" width="4" height="4" fill="#3ee6ff"/><rect x="164" y="52" width="4" height="4" fill="#3ee6ff"/><rect x="168" y="52" width="4" height="4" fill="#3ee6ff"/><rect x="172" y="52" width="4" height="4" fill="#3ee6ff"/><rect x="176" y="52" width="4" height="4" fill="#3ee6ff"/><rect x="180" y="52" width="4" height="4" fill="#3ee6ff"/><rect x="184" y="52" width="4" height="4" fill="#3ee6ff"/></svg>