<svg xmlns="http://www.w3.org/2000/svg" viewBox="0 0 42 42" width="42" height="42"><rect x="15" y="0" width="3" height="3" fill="#ffffff"/><rect x="18" y="0" width="3" height="3" fill="#ffffff"/><rect x="21" y="0" width="3" height="3" fill="#ffffff"/><rect x="24" y="0" width="3" height="3" fill="#ffffff"/><rect x="15" y="3" width="3" height="3" fill="#ffffff"/><rect x="18" y="3" width="3" height="3" fill="#ffffff"/><rect x="21" y="3" width="3" height="3" fill="#ffffff"/><rect x="24" y="3" width="3" height="3" fill="#ffffff"/><rect x="15" y="6" width="3" height="3" fill="#ffffff"/><rect x="18" y="6" width="3" height="3" fill="#ffffff"/><rect x="21" y="6" width="3" height="3" fill="#ffffff"/><rect x="24" y="6" width="3" height="3" fill="#ffffff"/><rect x="9" y="9" width="3" height="3" fill="#eaffff"/><rect x="12" y="9" width="3" height="3" fill="#eaffff"/><rect x="15" y="9" width="3" height="3" fill="#eaffff"/><rect x="18" y="9" width="3" height="3" fill="#eaffff"/><rect x="21" y="9" width="3" height="3" fill="#eaffff"/><rect x="24" y="9" width="3" height="3" fill="#eaffff"/><rect x="27" y="9" width="3" height="3" fill="#eaffff"/><rect x="30" y="9" width="3" height="3" fill="#eaffff"/><rect x="9" y="12" width="3" height="3" fill="#eaffff"/><rect x="12" y="12" width="3" height="3" fill="#eaffff"/><rect x="15" y="12" width="3" height="3" fill="#eaffff"/><rect x="18" y="12" width="3" height="3" fill="#eaffff"/><rect x="21" y="12" width="3" height="3" fill="#eaffff"/><rect x="24" y="12" width="3" height="3" fill="#eaffff"/><rect x="27" y="12" width="3" height="3" fill="#eaffff"/><rect x="30" y="12" width="3" height="3" fill="#eaffff"/><rect x="0" y="15" width="3" height="3" fill="#ffffff"/><rect x="3" y="15" width="3" height="3" fill="#ffffff"/><rect x="6" y="15" width="3" height="3" fill="#ffffff"/><rect x="9" y="15" width="3" height="3" fill="#eaffff"/><rect x="12" y="15" width="3" height="3" fill="#eaffff"/><rect x="15" y="15" width="3" height="3" fill="#3ee6ff"/><rect x="18" y="15" width="3" height="3" fill="#3ee6ff"/><rect x="21" y="15" width="3" height="3" fill="#3ee6ff"/><rect x="24" y="15" width="3" height="3" fill="#3ee6ff"/><rect x="27" y="15" width="3" height="3" fill="#eaffff"/><rect x="30" y="15" width="3" height="3" fill="#eaffff"/><rect x="33" y="15" width="3" height="3" fill="#ffffff"/><rect x="36" y="15" width="3" height="3" fill="#ffffff"/><rect x="39" y="15" width="3" height="3" fill="#ffffff"/><rect x="0" y="18" width="3" height="3" fill="#ffffff"/><rect x="3" y="18" width="3" height="3" fill="#ffffff"/><rect x="6" y="18" width="3" height="3" fill="#ffffff"/><rect x="9" y="18" width="3" height="3" fill="#eaffff"/><rect x="12" y="18" width="3" height="3" fill="#eaffff"/><rect x="15" y="18" width="3" height="3" fill="#3ee6ff"/><rect x="18" y="18" width="3" height="3" fill="#3ee6ff"/><rect x="21" y="18" width="3" height="3" fill="#3ee6ff"/><rect x="24" y="18" width="3" height="3" fill="#3ee6ff"/><rect x="27" y="18" width="3" height="3" fill="#eaffff"/><rect x="30" y="18" width="3" height="3" fill="#eaffff"/><rect x="33" y="18" width="3" height="3" fill="#ffffff"/><rect x="36" y="18" width="3" height="3" fill="#ffffff"/><rect x="39" y="18" width="3" height="3" fill="#ffffff"/><rect x="0" y="21" width="3" height="3" fill="#ffffff"/><rect x="3" y="21" width="3" height="3" fill="#ffffff"/><rect x="6" y="21" width="3" height="3" fill="#ffffff"/><rect x="9" y="21" width="3" height="3" fill="#eaffff"/><rect x="12" y="21" width="3" height="3" fill="#eaffff"/><rect x="15" y="21" width="3" height="3" fill="#3ee6ff"/><rect x="18" y="21" width="3" height="3" fill="#3ee6ff"/><rect x="21" y="21" width="3" height="3" fill="#3ee6ff"/><rect x="24" y="21" width="3" height="3" fill="#3ee6ff"/><rect x="27" y="21" width="3" height="3" fill="#eaffff"/><rect x="30" y="21" width="3" height="3" fill="#eaffff"/><rect x="33" y="21" width="3" height="3" fill="#ffffff"/><rect x="36" y="21" width="3" height="3" fill="#ffffff"/><rect x="39" y="21" width="3" height="3" fill="#ffffff"/><rect x="0" y="24" width="3" height="3" fill="#ffffff"/><rect x="3" y="24" width="3" height="3" fill="#ffffff"/><rect x="6" y="24" width="3" height="3" fill="#ffffff"/><rect x="9" y="24" width="3" height="3" fill="#eaffff"/><rect x="12" y="24" width="3" height="3" fill="#eaffff"/><rect x="15" y="24" width="3" height="3" fill="#3ee6ff"/><rect x="18" y="24" width="3" height="3" fill="#3ee6ff"/><rect x="21" y="24" width="3" height="3" fill="#3ee6ff"/><rect x="24" y="24" width="3" height="3" fill="#3ee6ff"/><rect x="27" y="24" width="3" height="3" fill="#eaffff"/><rect x="30" y="24" width="3" height="3" fill="#eaffff"/><rect x="33" y="24" width="3" height="3" fill="#ffffff"/><rect x="36" y="24" width="3" height="3" fill="#ffffff"/><rect x="39" y="24" width="3" height="3" fill="#ffffff"/><rect x="9" y="27" width="3" height="3" fill="#eaffff"/><rect x="12" y="27" width="3" height="3" fill="#eaffff"/><rect x="15" y="27" width="3" height="3" fill="#eaffff"/><rect x="18" y="27" width="3" height="3" fill="#eaffff"/><rect x="21" y="27" width="3" height="3" fill="#eaffff"/><rect x="24" y="27" width="3" height="3" fill="#eaffff"/><rect x="27" y="27" width="3" height="3" fill="#eaffff"/><rect x="30" y="27" width="3" height="3" fill="#eaffff"/><rect x="9" y="30" width="3" height="3" fill="#eaffff"/><rect x="12" y="30" width="3" height="3" fill="#eaffff"/><rect x="15" y="30" width="3" height="3" fill="#eaffff"/><rect x="18" y="30" width="3" height="3" fill="#eaffff"/><rect x="21" y="30" width="3" height="3" fill="#eaffff"/><rect x="24" y="30" width="3" height="3" fill="#eaffff"/><rect x="27" y="30" width="3" height="3" fill="#eaffff"/><rect x="30" y="30" width="3" height="3" fill="#eaffff"/><rect x="15" y="33" width="3" height="3" fill="#ffffff"/><rect x="18" y="33" width="3" height="3" fill="#ffffff"/><rect x="21" y="33" width="3" height="3" fill="#ffffff"/><rect x="24" y="33" width="3" height="3" fill="#ffffff"/><rect x="15" y="36" width="3" height="3" fill="#ffffff"/><rect x="18" y="36" width="3" height="3" fill="#ffffff"/><rect x="21" y="36" width="3" height="3" fill="#ffffff"/><rect x="24" y="36" width="3" height="3" fill="#ffffff"/><rect x="15" y="39" width="3" height="3" fill="#ffffff"/><rect x="18" y="39" width="3" height="3" fill="#ffffff"/><rect x="21" y="39" width="3" height="3" fill="#ffffff"/><rect x="24" y="39" width="3" height="3" fill="#ffffff"/></svg>