<svg xmlns="http://www.w3.org/2000/svg" viewBox="0 0 72 102" width="72" height="102"><rect x="3" y="84" width="3" height="3" fill="#5a3418"/><rect x="3" y="93" width="3" height="3" fill="#5a3418"/><rect x="63" y="39" width="3" height="3" fill="#5a3418"/><rect x="66" y="42" width="3" height="3" fill="#5a3418"/><rect x="66" y="60" width="3" height="3" fill="#5a3418"/><rect x="36" y="39" width="3" height="3" fill="#5a3418"/><rect x="66" y="51" width="3" height="3" fill="#5a3418"/><rect x="15" y="39" width="3" height="3" fill="#5a3418"/><rect x="9" y="39" width="3" height="3" fill="#5a3418"/><rect x="42" y="39" width="3" height="3" fill="#5a3418"/><rect x="3" y="54" width="3" height="3" fill="#5a3418"/><rect x="3" y="45" width="3" height="3" fill="#5a3418"/><rect x="3" y="63" width="3" height="3" fill="#5a3418"/><rect x="48" y="39" width="3" height="3" fill="#5a3418"/><rect x="3" y="72" width="3" height="3" fill="#5a3418"/><rect x="3" y="90" width="3" height="3" fill="#5a3418"/><rect x="60" y="39" width="3" height="3" fill="#5a3418"/><rect x="21" y="39" width="3" height="3" fill="#5a3418"/><rect x="54" y="39" width="3" height="3" fill="#5a3418"/><rect x="3" y="81" width="3" height="3" fill="#5a3418"/><rect x="3" y="99" width="3" height="3" fill="#5a3418"/><rect x="66" y="48" width="3" height="3" fill="#5a3418"/><rect x="69" y="63" width="3" height="3" fill="#5a3418"/><rect x="66" y="57" width="3" height="3" fill="#5a3418"/><rect x="27" y="39" width="3" height="3" fill="#5a3418"/><rect x="33" y="39" width="3" height="3" fill="#5a3418"/><rect x="3" y="42" width="3" height="3" fill="#5a3418"/><rect x="45" y="39" width="3" height="3" fill="#5a3418"/><rect x="6" y="39" width="3" height="3" fill="#5a3418"/><rect x="39" y="39" width="3" height="3" fill="#5a3418"/><rect x="3" y="51" width="3" height="3" fill="#5a3418"/><rect x="3" y="60" width="3" height="3" fill="#5a3418"/><rect x="18" y="39" width="3" height="3" fill="#5a3418"/><rect x="3" y="69" width="3" height="3" fill="#5a3418"/><rect x="3" y="78" width="3" height="3" fill="#5a3418"/><rect x="3" y="96" width="3" height="3" fill="#5a3418"/><rect x="3" y="87" width="3" height="3" fill="#5a3418"/><rect x="66" y="54" width="3" height="3" fill="#5a3418"/><rect x="66" y="45" width="3" height="3" fill="#5a3418"/><rect x="66" y="63" width="3" height="3" fill="#5a3418"/><rect x="12" y="39" width="3" height="3" fill="#5a3418"/><rect x="51" y="39" width="3" height="3" fill="#5a3418"/><rect x="30" y="39" width="3" height="3" fill="#5a3418"/><rect x="24" y="39" width="3" height="3" fill="#5a3418"/><rect x="57" y="39" width="3" height="3" fill="#5a3418"/><rect x="3" y="48" width="3" height="3" fill="#5a3418"/><rect x="3" y="57" width="3" height="3" fill="#5a3418"/><rect x="3" y="75" width="3" height="3" fill="#5a3418"/><rect x="3" y="66" width="3" height="3" fill="#5a3418"/><rect x="6" y="42" width="3" height="3" fill="#d99a5a"/><rect x="9" y="42" width="3" height="3" fill="#d99a5a"/><rect x="12" y="42" width="3" height="3" fill="#d99a5a"/><rect x="15" y="42" width="3" height="3" fill="#d99a5a"/><rect x="18" y="42" width="3" height="3" fill="#d99a5a"/><rect x="21" y="42" width="3" height="3" fill="#d99a5a"/><rect x="24" y="42" width="3" height="3" fill="#d99a5a"/><rect x="27" y="42" width="3" height="3" fill="#d99a5a"/><rect x="30" y="42" width="3" height="3" fill="#d99a5a"/><rect x="33" y="42" width="3" height="3" fill="#d99a5a"/><rect x="36" y="42" width="3" height="3" fill="#d99a5a"/><rect x="39" y="42" width="3" height="3" fill="#d99a5a"/><rect x="42" y="42" width="3" height="3" fill="#d99a5a"/><rect x="45" y="42" width="3" height="3" fill="#d99a5a"/><rect x="48" y="42" width="3" height="3" fill="#d99a5a"/><rect x="51" y="42" width="3" height="3" fill="#d99a5a"/><rect x="54" y="42" width="3" height="3" fill="#9a5a28"/><rect x="57" y="42" width="3" height="3" fill="#9a5a28"/><rect x="60" y="42" width="3" height="3" fill="#9a5a28"/><rect x="63" y="42" width="3" height="3" fill="#9a5a28"/><rect x="6" y="45" width="3" height="3" fill="#d99a5a"/><rect x="9" y="45" width="3" height="3" fill="#d99a5a"/><rect x="12" y="45" width="3" height="3" fill="#d99a5a"/><rect x="15" y="45" width="3" height="3" fill="#d99a5a"/><rect x="18" y="45" width="3" height="3" fill="#d99a5a"/><rect x="21" y="45" width="3" height="3" fill="#d99a5a"/><rect x="24" y="45" width="3" height="3" fill="#d99a5a"/><rect x="27" y="45" width="3" height="3" fill="#d99a5a"/><rect x="30" y="45" width="3" height="3" fill="#d99a5a"/><rect x="33" y="45" width="3" height="3" fill="#d99a5a"/><rect x="36" y="45" width="3" height="3" fill="#d99a5a"/><rect x="39" y="45" width="3" height="3" fill="#d99a5a"/><rect x="42" y="45" width="3" height="3" fill="#d99a5a"/><rect x="45" y="45" width="3" height="3" fill="#d99a5a"/><rect x="48" y="45" width="3" height="3" fill="#d99a5a"/><rect x="51" y="45" width="3" height="3" fill="#d99a5a"/><rect x="54" y="45" width="3" height="3" fill="#9a5a28"/><rect x="57" y="45" width="3" height="3" fill="#9a5a28"/><rect x="60" y="45" width="3" height="3" fill="#9a5a28"/><rect x="63" y="45" width="3" height="3" fill="#9a5a28"/><rect x="6" y="48" width="3" height="3" fill="#d99a5a"/><rect x="9" y="48" width="3" height="3" fill="#d99a5a"/><rect x="12" y="48" width="3" height="3" fill="#d99a5a"/><rect x="15" y="48" width="3" height="3" fill="#c07a3a"/><rect x="18" y="48" width="3" height="3" fill="#c07a3a"/><rect x="21" y="48" width="3" height="3" fill="#c07a3a"/><rect x="24" y="48" width="3" height="3" fill="#c07a3a"/><rect x="27" y="48" width="3" height="3" fill="#c07a3a"/><rect x="30" y="48" width="3" height="3" fill="#c07a3a"/><rect x="33" y="48" width="3" height="3" fill="#c07a3a"/><rect x="36" y="48" width="3" height="3" fill="#c07a3a"/><rect x="39" y="48" width="3" height="3" fill="#c07a3a"/><rect x="42" y="48" width="3" height="3" fill="#c07a3a"/><rect x="45" y="48" width="3" height="3" fill="#c07a3a"/><rect x="48" y="48" width="3" height="3" fill="#c07a3a"/><rect x="51" y="48" width="3" height="3" fill="#c07a3a"/><rect x="54" y="48" width="3" height="3" fill="#9a5a28"/><rect x="57" y="48" width="3" height="3" fill="#9a5a28"/><rect x="60" y="48" width="3" height="3" fill="#9a5a28"/><rect x="63" y="48" width="3" height="3" fill="#9a5a28"/><rect x="6" y="51" width="3" height="3" fill="#d99a5a"/><rect x="9" y="51" width="3" height="3" fill="#d99a5a"/><rect x="12" y="51" width="3" height="3" fill="#d99a5a"/><rect x="15" y="51" width="3" height="3" fill="#c07a3a"/><rect x="18" y="51" width="3" height="3" fill="#c07a3a"/><rect x="21" y="51" width="3" height="3" fill="#c07a3a"/><rect x="24" y="51" width="3" height="3" fill="#c07a3a"/><rect x="27" y="51" width="3" height="3" fill="#c07a3a"/><rect x="30" y="51" width="3" height="3" fill="#c07a3a"/><rect x="33" y="51" width="3" height="3" fill="#c07a3a"/><rect x="36" y="51" width="3" height="3" fill="#c07a3a"/><rect x="39" y="51" width="3" height="3" fill="#c07a3a"/><rect x="42" y="51" width="3" height="3" fill="#c07a3a"/><rect x="45" y="51" width="3" height="3" fill="#c07a3a"/><rect x="48" y="51" width="3" height="3" fill="#c07a3a"/><rect x="51" y="51" width="3" height="3" fill="#c07a3a"/><rect x="54" y="51" width="3" height="3" fill="#9a5a28"/><rect x="57" y="51" width="3" height="3" fill="#9a5a28"/><rect x="60" y="51" width="3" height="3" fill="#9a5a28"/><rect x="63" y="51" width="3" height="3" fill="#9a5a28"/><rect x="6" y="54" width="3" height="3" fill="#d99a5a"/><rect x="9" y="54" width="3" height="3" fill="#d99a5a"/><rect x="12" y="54" width="3" height="3" fill="#d99a5a"/><rect x="15" y="54" width="3" height="3" fill="#c07a3a"/><rect x="18" y="54" width="3" height="3" fill="#c07a3a"/><rect x="21" y="54" width="3" height="3" fill="#c07a3a"/><rect x="24" y="54" width="3" height="3" fill="#c07a3a"/><rect x="27" y="54" width="3" height="3" fill="#c07a3a"/><rect x="30" y="54" width="3" height="3" fill="#c07a3a"/><rect x="33" y="54" width="3" height="3" fill="#c07a3a"/><rect x="36" y="54" width="3" height="3" fill="#c07a3a"/><rect x="39" y="54" width="3" height="3" fill="#c07a3a"/><rect x="42" y="54" width="3" height="3" fill="#c07a3a"/><rect x="45" y="54" width="3" height="3" fill="#c07a3a"/><rect x="48" y="54" width="3" height="3" fill="#c07a3a"/><rect x="51" y="54" width="3" height="3" fill="#c07a3a"/><rect x="54" y="54" width="3" height="3" fill="#9a5a28"/><rect x="57" y="54" width="3" height="3" fill="#9a5a28"/><rect x="60" y="54" width="3" height="3" fill="#9a5a28"/><rect x="63" y="54" width="3" height="3" fill="#9a5a28"/><rect x="6" y="57" width="3" height="3" fill="#d99a5a"/><rect x="9" y="57" width="3" height="3" fill="#9a5a28"/><rect x="12" y="57" width="3" height="3" fill="#9a5a28"/><rect x="15" y="57" width="3" height="3" fill="#9a5a28"/><rect x="18" y="57" width="3" height="3" fill="#9a5a28"/><rect x="21" y="57" width="3" height="3" fill="#9a5a28"/><rect x="24" y="57" width="3" height="3" fill="#9a5a28"/><rect x="27" y="57" width="3" height="3" fill="#9a5a28"/><rect x="30" y="57" width="3" height="3" fill="#9a5a28"/><rect x="33" y="57" width="3" height="3" fill="#9a5a28"/><rect x="36" y="57" width="3" height="3" fill="#9a5a28"/><rect x="39" y="57" width="3" height="3" fill="#9a5a28"/><rect x="42" y="57" width="3" height="3" fill="#9a5a28"/><rect x="45" y="57" width="3" height="3" fill="#9a5a28"/><rect x="48" y="57" width="3" height="3" fill="#9a5a28"/><rect x="51" y="57" width="3" height="3" fill="#9a5a28"/><rect x="54" y="57" width="3" height="3" fill="#9a5a28"/><rect x="57" y="57" width="3" height="3" fill="#9a5a28"/><rect x="60" y="57" width="3" height="3" fill="#9a5a28"/><rect x="63" y="57" width="3" height="3" fill="#9a5a28"/><rect x="6" y="60" width="3" height="3" fill="#d99a5a"/><rect x="9" y="60" width="3" height="3" fill="#d99a5a"/><rect x="12" y="60" width="3" height="3" fill="#d99a5a"/><rect x="15" y="60" width="3" height="3" fill="#c07a3a"/><rect x="18" y="60" width="3" height="3" fill="#c07a3a"/><rect x="21" y="60" width="3" height="3" fill="#c07a3a"/><rect x="24" y="60" width="3" height="3" fill="#c07a3a"/><rect x="27" y="60" width="3" height="3" fill="#c07a3a"/><rect x="30" y="60" width="3" height="3" fill="#c07a3a"/><rect x="33" y="60" width="3" height="3" fill="#c07a3a"/><rect x="36" y="60" width="3" height="3" fill="#c07a3a"/><rect x="39" y="60" width="3" height="3" fill="#c07a3a"/><rect x="42" y="60" width="3" height="3" fill="#c07a3a"/><rect x="45" y="60" width="3" height="3" fill="#c07a3a"/><rect x="48" y="60" width="3" height="3" fill="#c07a3a"/><rect x="51" y="60" width="3" height="3" fill="#c07a3a"/><rect x="54" y="60" width="3" height="3" fill="#9a5a28"/><rect x="57" y="60" width="3" height="3" fill="#9a5a28"/><rect x="60" y="60" width="3" height="3" fill="#9a5a28"/><rect x="63" y="60" width="3" height="3" fill="#9a5a28"/><rect x="6" y="63" width="3" height="3" fill="#d99a5a"/><rect x="9" y="63" width="3" height="3" fill="#d99a5a"/><rect x="12" y="63" width="3" height="3" fill="#d99a5a"/><rect x="15" y="63" width="3" height="3" fill="#c07a3a"/><rect x="18" y="63" width="3" height="3" fill="#c07a3a"/><rect x="21" y="63" width="3" height="3" fill="#c07a3a"/><rect x="24" y="63" width="3" height="3" fill="#c07a3a"/><rect x="27" y="63" width="3" height="3" fill="#c07a3a"/><rect x="30" y="63" width="3" height="3" fill="#c07a3a"/><rect x="33" y="63" width="3" height="3" fill="#c07a3a"/><rect x="36" y="63" width="3" height="3" fill="#c07a3a"/><rect x="39" y="63" width="3" height="3" fill="#c07a3a"/><rect x="42" y="63" width="3" height="3" fill="#c07a3a"/><rect x="45" y="63" width="3" height="3" fill="#c07a3a"/><rect x="48" y="63" width="3" height="3" fill="#c07a3a"/><rect x="51" y="63" width="3" height="3" fill="#c07a3a"/><rect x="54" y="63" width="3" height="3" fill="#9a5a28"/><rect x="57" y="63" width="3" height="3" fill="#9a5a28"/><rect x="60" y="63" width="3" height="3" fill="#9a5a28"/><rect x="63" y="63" width="3" height="3" fill="#9a5a28"/><rect x="6" y="66" width="3" height="3" fill="#d99a5a"/><rect x="9" y="66" width="3" height="3" fill="#d99a5a"/><rect x="12" y="66" width="3" height="3" fill="#d99a5a"/><rect x="15" y="66" width="3" height="3" fill="#c07a3a"/><rect x="18" y="66" width="3" height="3" fill="#c07a3a"/><rect x="21" y="66" width="3" height="3" fill="#c07a3a"/><rect x="24" y="66" width="3" height="3" fill="#c07a3a"/><rect x="27" y="66" width="3" height="3" fill="#c07a3a"/><rect x="30" y="66" width="3" height="3" fill="#c07a3a"/><rect x="33" y="66" width="3" height="3" fill="#c07a3a"/><rect x="36" y="66" width="3" height="3" fill="#c07a3a"/><rect x="39" y="66" width="3" height="3" fill="#c07a3a"/><rect x="42" y="66" width="3" height="3" fill="#d99a5a"/><rect x="45" y="66" width="3" height="3" fill="#d99a5a"/><rect x="48" y="66" width="3" height="3" fill="#d99a5a"/><rect x="51" y="66" width="3" height="3" fill="#d99a5a"/><rect x="54" y="66" width="3" height="3" fill="#d99a5a"/><rect x="57" y="66" width="3" height="3" fill="#d99a5a"/><rect x="60" y="66" width="3" height="3" fill="#d99a5a"/><rect x="63" y="66" width="3" height="3" fill="#9a5a28"/><rect x="66" y="66" width="3" height="3" fill="#9a5a28"/><rect x="69" y="66" width="3" height="3" fill="#9a5a28"/><rect x="6" y="69" width="3" height="3" fill="#d99a5a"/><rect x="9" y="69" width="3" height="3" fill="#d99a5a"/><rect x="12" y="69" width="3" height="3" fill="#d99a5a"/><rect x="15" y="69" width="3" height="3" fill="#c07a3a"/><rect x="18" y="69" width="3" height="3" fill="#c07a3a"/><rect x="21" y="69" width="3" height="3" fill="#c07a3a"/><rect x="24" y="69" width="3" height="3" fill="#c07a3a"/><rect x="27" y="69" width="3" height="3" fill="#c07a3a"/><rect x="30" y="69" width="3" height="3" fill="#c07a3a"/><rect x="33" y="69" width="3" height="3" fill="#c07a3a"/><rect x="36" y="69" width="3" height="3" fill="#c07a3a"/><rect x="39" y="69" width="3" height="3" fill="#c07a3a"/><rect x="42" y="69" width="3" height="3" fill="#d99a5a"/><rect x="45" y="69" width="3" height="3" fill="#d99a5a"/><rect x="48" y="69" width="3" height="3" fill="#d99a5a"/><rect x="51" y="69" width="3" height="3" fill="#d99a5a"/><rect x="54" y="69" width="3" height="3" fill="#d99a5a"/><rect x="57" y="69" width="3" height="3" fill="#d99a5a"/><rect x="60" y="69" width="3" height="3" fill="#d99a5a"/><rect x="63" y="69" width="3" height="3" fill="#9a5a28"/><rect x="66" y="69" width="3" height="3" fill="#9a5a28"/><rect x="69" y="69" width="3" height="3" fill="#9a5a28"/><rect x="6" y="72" width="3" height="3" fill="#d99a5a"/><rect x="9" y="72" width="3" height="3" fill="#d99a5a"/><rect x="12" y="72" width="3" height="3" fill="#d99a5a"/><rect x="15" y="72" width="3" height="3" fill="#c07a3a"/><rect x="18" y="72" width="3" height="3" fill="#c07a3a"/><rect x="21" y="72" width="3" height="3" fill="#c07a3a"/><rect x="24" y="72" width="3" height="3" fill="#c07a3a"/><rect x="27" y="72" width="3" height="3" fill="#c07a3a"/><rect x="30" y="72" width="3" height="3" fill="#c07a3a"/><rect x="33" y="72" width="3" height="3" fill="#c07a3a"/><rect x="36" y="72" width="3" height="3" fill="#c07a3a"/><rect x="39" y="72" width="3" height="3" fill="#c07a3a"/><rect x="42" y="72" width="3" height="3" fill="#c07a3a"/><rect x="45" y="72" width="3" height="3" fill="#c07a3a"/><rect x="48" y="72" width="3" height="3" fill="#c07a3a"/><rect x="51" y="72" width="3" height="3" fill="#c07a3a"/><rect x="54" y="72" width="3" height="3" fill="#c07a3a"/><rect x="57" y="72" width="3" height="3" fill="#c07a3a"/><rect x="60" y="72" width="3" height="3" fill="#c07a3a"/><rect x="63" y="72" width="3" height="3" fill="#9a5a28"/><rect x="66" y="72" width="3" height="3" fill="#9a5a28"/><rect x="69" y="72" width="3" height="3" fill="#9a5a28"/><rect x="6" y="75" width="3" height="3" fill="#d99a5a"/><rect x="9" y="75" width="3" height="3" fill="#d99a5a"/><rect x="12" y="75" width="3" height="3" fill="#d99a5a"/><rect x="15" y="75" width="3" height="3" fill="#c07a3a"/><rect x="18" y="75" width="3" height="3" fill="#c07a3a"/><rect x="21" y="75" width="3" height="3" fill="#c07a3a"/><rect x="24" y="75" width="3" height="3" fill="#c07a3a"/><rect x="27" y="75" width="3" height="3" fill="#c07a3a"/><rect x="30" y="75" width="3" height="3" fill="#c07a3a"/><rect x="33" y="75" width="3" height="3" fill="#c07a3a"/><rect x="36" y="75" width="3" height="3" fill="#c07a3a"/><rect x="39" y="75" width="3" height="3" fill="#c07a3a"/><rect x="42" y="75" width="3" height="3" fill="#c07a3a"/><rect x="45" y="75" width="3" height="3" fill="#c07a3a"/><rect x="48" y="75" width="3" height="3" fill="#c07a3a"/><rect x="51" y="75" width="3" height="3" fill="#c07a3a"/><rect x="54" y="75" width="3" height="3" fill="#c07a3a"/><rect x="57" y="75" width="3" height="3" fill="#c07a3a"/><rect x="60" y="75" width="3" height="3" fill="#c07a3a"/><rect x="63" y="75" width="3" height="3" fill="#9a5a28"/><rect x="66" y="75" width="3" height="3" fill="#9a5a28"/><rect x="69" y="75" width="3" height="3" fill="#9a5a28"/><rect x="6" y="78" width="3" height="3" fill="#d99a5a"/><rect x="9" y="78" width="3" height="3" fill="#9a5a28"/><rect x="12" y="78" width="3" height="3" fill="#9a5a28"/><rect x="15" y="78" width="3" height="3" fill="#9a5a28"/><rect x="18" y="78" width="3" height="3" fill="#9a5a28"/><rect x="21" y="78" width="3" height="3" fill="#9a5a28"/><rect x="24" y="78" width="3" height="3" fill="#9a5a28"/><rect x="27" y="78" width="3" height="3" fill="#9a5a28"/><rect x="30" y="78" width="3" height="3" fill="#9a5a28"/><rect x="33" y="78" width="3" height="3" fill="#9a5a28"/><rect x="36" y="78" width="3" height="3" fill="#9a5a28"/><rect x="39" y="78" width="3" height="3" fill="#9a5a28"/><rect x="42" y="78" width="3" height="3" fill="#9a5a28"/><rect x="45" y="78" width="3" height="3" fill="#9a5a28"/><rect x="48" y="78" width="3" height="3" fill="#9a5a28"/><rect x="51" y="78" width="3" height="3" fill="#9a5a28"/><rect x="54" y="78" width="3" height="3" fill="#9a5a28"/><rect x="57" y="78" width="3" height="3" fill="#9a5a28"/><rect x="60" y="78" width="3" height="3" fill="#9a5a28"/><rect x="63" y="78" width="3" height="3" fill="#9a5a28"/><rect x="66" y="78" width="3" height="3" fill="#9a5a28"/><rect x="69" y="78" width="3" height="3" fill="#9a5a28"/><rect x="6" y="81" width="3" height="3" fill="#d99a5a"/><rect x="9" y="81" width="3" height="3" fill="#d99a5a"/><rect x="12" y="81" width="3" height="3" fill="#d99a5a"/><rect x="15" y="81" width="3" height="3" fill="#c07a3a"/><rect x="18" y="81" width="3" height="3" fill="#c07a3a"/><rect x="21" y="81" width="3" height="3" fill="#c07a3a"/><rect x="24" y="81" width="3" height="3" fill="#c07a3a"/><rect x="27" y="81" width="3" height="3" fill="#c07a3a"/><rect x="30" y="81" width="3" height="3" fill="#c07a3a"/><rect x="33" y="81" width="3" height="3" fill="#c07a3a"/><rect x="36" y="81" width="3" height="3" fill="#c07a3a"/><rect x="39" y="81" width="3" height="3" fill="#c07a3a"/><rect x="42" y="81" width="3" height="3" fill="#c07a3a"/><rect x="45" y="81" width="3" height="3" fill="#c07a3a"/><rect x="48" y="81" width="3" height="3" fill="#c07a3a"/><rect x="51" y="81" width="3" height="3" fill="#c07a3a"/><rect x="54" y="81" width="3" height="3" fill="#c07a3a"/><rect x="57" y="81" width="3" height="3" fill="#c07a3a"/><rect x="60" y="81" width="3" height="3" fill="#c07a3a"/><rect x="63" y="81" width="3" height="3" fill="#9a5a28"/><rect x="66" y="81" width="3" height="3" fill="#9a5a28"/><rect x="69" y="81" width="3" height="3" fill="#9a5a28"/><rect x="6" y="84" width="3" height="3" fill="#d99a5a"/><rect x="9" y="84" width="3" height="3" fill="#d99a5a"/><rect x="12" y="84" width="3" height="3" fill="#d99a5a"/><rect x="15" y="84" width="3" height="3" fill="#c07a3a"/><rect x="18" y="84" width="3" height="3" fill="#c07a3a"/><rect x="21" y="84" width="3" height="3" fill="#c07a3a"/><rect x="24" y="84" width="3" height="3" fill="#c07a3a"/><rect x="27" y="84" width="3" height="3" fill="#c07a3a"/><rect x="30" y="84" width="3" height="3" fill="#c07a3a"/><rect x="33" y="84" width="3" height="3" fill="#c07a3a"/><rect x="36" y="84" width="3" height="3" fill="#c07a3a"/><rect x="39" y="84" width="3" height="3" fill="#c07a3a"/><rect x="42" y="84" width="3" height="3" fill="#c07a3a"/><rect x="45" y="84" width="3" height="3" fill="#c07a3a"/><rect x="48" y="84" width="3" height="3" fill="#c07a3a"/><rect x="51" y="84" width="3" height="3" fill="#c07a3a"/><rect x="54" y="84" width="3" height="3" fill="#c07a3a"/><rect x="57" y="84" width="3" height="3" fill="#c07a3a"/><rect x="60" y="84" width="3" height="3" fill="#c07a3a"/><rect x="63" y="84" width="3" height="3" fill="#9a5a28"/><rect x="66" y="84" width="3" height="3" fill="#9a5a28"/><rect x="69" y="84" width="3" height="3" fill="#9a5a28"/><rect x="6" y="87" width="3" height="3" fill="#d99a5a"/><rect x="9" y="87" width="3" height="3" fill="#d99a5a"/><rect x="12" y="87" width="3" height="3" fill="#d99a5a"/><rect x="15" y="87" width="3" height="3" fill="#c07a3a"/><rect x="18" y="87" width="3" height="3" fill="#c07a3a"/><rect x="21" y="87" width="3" height="3" fill="#c07a3a"/><rect x="24" y="87" width="3" height="3" fill="#c07a3a"/><rect x="27" y="87" width="3" height="3" fill="#c07a3a"/><rect x="30" y="87" width="3" height="3" fill="#c07a3a"/><rect x="33" y="87" width="3" height="3" fill="#c07a3a"/><rect x="36" y="87" width="3" height="3" fill="#c07a3a"/><rect x="39" y="87" width="3" height="3" fill="#c07a3a"/><rect x="42" y="87" width="3" height="3" fill="#c07a3a"/><rect x="45" y="87" width="3" height="3" fill="#c07a3a"/><rect x="48" y="87" width="3" height="3" fill="#c07a3a"/><rect x="51" y="87" width="3" height="3" fill="#c07a3a"/><rect x="54" y="87" width="3" height="3" fill="#c07a3a"/><rect x="57" y="87" width="3" height="3" fill="#c07a3a"/><rect x="60" y="87" width="3" height="3" fill="#c07a3a"/><rect x="63" y="87" width="3" height="3" fill="#9a5a28"/><rect x="66" y="87" width="3" height="3" fill="#9a5a28"/><rect x="69" y="87" width="3" height="3" fill="#9a5a28"/><rect x="6" y="90" width="3" height="3" fill="#d99a5a"/><rect x="9" y="90" width="3" height="3" fill="#9a5a28"/><rect x="12" y="90" width="3" height="3" fill="#9a5a28"/><rect x="15" y="90" width="3" height="3" fill="#9a5a28"/><rect x="18" y="90" width="3" height="3" fill="#9a5a28"/><rect x="21" y="90" width="3" height="3" fill="#9a5a28"/><rect x="24" y="90" width="3" height="3" fill="#9a5a28"/><rect x="27" y="90" width="3" height="3" fill="#9a5a28"/><rect x="30" y="90" width="3" height="3" fill="#9a5a28"/><rect x="33" y="90" width="3" height="3" fill="#9a5a28"/><rect x="36" y="90" width="3" height="3" fill="#9a5a28"/><rect x="39" y="90" width="3" height="3" fill="#9a5a28"/><rect x="42" y="90" width="3" height="3" fill="#9a5a28"/><rect x="45" y="90" width="3" height="3" fill="#9a5a28"/><rect x="48" y="90" width="3" height="3" fill="#9a5a28"/><rect x="51" y="90" width="3" height="3" fill="#9a5a28"/><rect x="54" y="90" width="3" height="3" fill="#9a5a28"/><rect x="57" y="90" width="3" height="3" fill="#9a5a28"/><rect x="60" y="90" width="3" height="3" fill="#9a5a28"/><rect x="63" y="90" width="3" height="3" fill="#9a5a28"/><rect x="66" y="90" width="3" height="3" fill="#9a5a28"/><rect x="69" y="90" width="3" height="3" fill="#9a5a28"/><rect x="6" y="93" width="3" height="3" fill="#d99a5a"/><rect x="9" y="93" width="3" height="3" fill="#d99a5a"/><rect x="12" y="93" width="3" height="3" fill="#d99a5a"/><rect x="15" y="93" width="3" height="3" fill="#c07a3a"/><rect x="18" y="93" width="3" height="3" fill="#c07a3a"/><rect x="21" y="93" width="3" height="3" fill="#c07a3a"/><rect x="24" y="93" width="3" height="3" fill="#c07a3a"/><rect x="27" y="93" width="3" height="3" fill="#c07a3a"/><rect x="30" y="93" width="3" height="3" fill="#c07a3a"/><rect x="33" y="93" width="3" height="3" fill="#c07a3a"/><rect x="36" y="93" width="3" height="3" fill="#c07a3a"/><rect x="39" y="93" width="3" height="3" fill="#c07a3a"/><rect x="42" y="93" width="3" height="3" fill="#c07a3a"/><rect x="45" y="93" width="3" height="3" fill="#c07a3a"/><rect x="48" y="93" width="3" height="3" fill="#c07a3a"/><rect x="51" y="93" width="3" height="3" fill="#c07a3a"/><rect x="54" y="93" width="3" height="3" fill="#c07a3a"/><rect x="57" y="93" width="3" height="3" fill="#c07a3a"/><rect x="60" y="93" width="3" height="3" fill="#c07a3a"/><rect x="63" y="93" width="3" height="3" fill="#9a5a28"/><rect x="66" y="93" width="3" height="3" fill="#9a5a28"/><rect x="69" y="93" width="3" height="3" fill="#9a5a28"/><rect x="6" y="96" width="3" height="3" fill="#d99a5a"/><rect x="9" y="96" width="3" height="3" fill="#d99a5a"/><rect x="12" y="96" width="3" height="3" fill="#d99a5a"/><rect x="15" y="96" width="3" height="3" fill="#c07a3a"/><rect x="18" y="96" width="3" height="3" fill="#c07a3a"/><rect x="21" y="96" width="3" height="3" fill="#c07a3a"/><rect x="24" y="96" width="3" height="3" fill="#c07a3a"/><rect x="27" y="96" width="3" height="3" fill="#c07a3a"/><rect x="30" y="96" width="3" height="3" fill="#c07a3a"/><rect x="33" y="96" width="3" height="3" fill="#c07a3a"/><rect x="36" y="96" width="3" height="3" fill="#c07a3a"/><rect x="39" y="96" width="3" height="3" fill="#c07a3a"/><rect x="42" y="96" width="3" height="3" fill="#c07a3a"/><rect x="45" y="96" width="3" height="3" fill="#c07a3a"/><rect x="48" y="96" width="3" height="3" fill="#c07a3a"/><rect x="51" y="96" width="3" height="3" fill="#c07a3a"/><rect x="54" y="96" width="3" height="3" fill="#c07a3a"/><rect x="57" y="96" width="3" height="3" fill="#c07a3a"/><rect x="60" y="96" width="3" height="3" fill="#c07a3a"/><rect x="63" y="96" width="3" height="3" fill="#9a5a28"/><rect x="66" y="96" width="3" height="3" fill="#9a5a28"/><rect x="69" y="96" width="3" height="3" fill="#9a5a28"/><rect x="6" y="99" width="3" height="3" fill="#d99a5a"/><rect x="9" y="99" width="3" height="3" fill="#d99a5a"/><rect x="12" y="99" width="3" height="3" fill="#d99a5a"/><rect x="15" y="99" width="3" height="3" fill="#c07a3a"/><rect x="18" y="99" width="3" height="3" fill="#c07a3a"/><rect x="21" y="99" width="3" height="3" fill="#c07a3a"/><rect x="24" y="99" width="3" height="3" fill="#c07a3a"/><rect x="27" y="99" width="3" height="3" fill="#c07a3a"/><rect x="30" y="99" width="3" height="3" fill="#c07a3a"/><rect x="33" y="99" width="3" height="3" fill="#c07a3a"/><rect x="36" y="99" width="3" height="3" fill="#c07a3a"/><rect x="39" y="99" width="3" height="3" fill="#c07a3a"/><rect x="42" y="99" width="3" height="3" fill="#c07a3a"/><rect x="45" y="99" width="3" height="3" fill="#c07a3a"/><rect x="48" y="99" width="3" height="3" fill="#c07a3a"/><rect x="51" y="99" width="3" height="3" fill="#c07a3a"/><rect x="54" y="99" width="3" height="3" fill="#c07a3a"/><rect x="57" y="99" width="3" height="3" fill="#c07a3a"/><rect x="60" y="99" width="3" height="3" fill="#c07a3a"/><rect x="63" y="99" width="3" height="3" fill="#9a5a28"/><rect x="66" y="99" width="3" height="3" fill="#9a5a28"/><rect x="69" y="99" width="3" height="3" fill="#9a5a28"/></svg>