<svg xmlns="http://www.w3.org/2000/svg" viewBox="0 0 32 24" width="32" height="24"><rect x="28" y="8" width="2" height="2" fill="#191c2e"/><rect x="6" y="2" width="2" height="2" fill="#191c2e"/><rect x="28" y="14" width="2" height="2" fill="#191c2e"/><rect x="10" y="2" width="2" height="2" fill="#191c2e"/><rect x="28" y="20" width="2" height="2" fill="#191c2e"/><rect x="4" y="4" width="2" height="2" fill="#191c2e"/><rect x="26" y="4" width="2" height="2" fill="#191c2e"/><rect x="2" y="12" width="2" height="2" fill="#191c2e"/><rect x="18" y="22" width="2" height="2" fill="#191c2e"/><rect x="2" y="6" width="2" height="2" fill="#191c2e"/><rect x="2" y="18" width="2" height="2" fill="#191c2e"/><rect x="4" y="22" width="2" height="2" fill="#191c2e"/><rect x="22" y="22" width="2" height="2" fill="#191c2e"/><rect x="26" y="22" width="2" height="2" fill="#191c2e"/><rect x="14" y="2" width="2" height="2" fill="#191c2e"/><rect x="12" y="22" width="2" height="2" fill="#191c2e"/><rect x="28" y="12" width="2" height="2" fill="#191c2e"/><rect x="28" y="6" width="2" height="2" fill="#191c2e"/><rect x="28" y="18" width="2" height="2" fill="#191c2e"/><rect x="8" y="22" width="2" height="2" fill="#191c2e"/><rect x="18" y="2" width="2" height="2" fill="#191c2e"/><rect x="16" y="22" width="2" height="2" fill="#191c2e"/><rect x="22" y="2" width="2" height="2" fill="#191c2e"/><rect x="20" y="22" width="2" height="2" fill="#191c2e"/><rect x="2" y="10" width="2" height="2" fill="#191c2e"/><rect x="12" y="2" width="2" height="2" fill="#191c2e"/><rect x="2" y="16" width="2" height="2" fill="#191c2e"/><rect x="24" y="4" width="2" height="2" fill="#191c2e"/><rect x="24" y="22" width="2" height="2" fill="#191c2e"/><rect x="8" y="2" width="2" height="2" fill="#191c2e"/><rect x="28" y="10" width="2" height="2" fill="#191c2e"/><rect x="6" y="22" width="2" height="2" fill="#191c2e"/><rect x="28" y="16" width="2" height="2" fill="#191c2e"/><rect x="10" y="22" width="2" height="2" fill="#191c2e"/><rect x="16" y="2" width="2" height="2" fill="#191c2e"/><rect x="20" y="2" width="2" height="2" fill="#191c2e"/><rect x="2" y="8" width="2" height="2" fill="#191c2e"/><rect x="2" y="14" width="2" height="2" fill="#191c2e"/><rect x="2" y="20" width="2" height="2" fill="#191c2e"/><rect x="14" y="22" width="2" height="2" fill="#191c2e"/><rect x="6" y="4" width="2" height="2" fill="#767c98"/><rect x="8" y="4" width="2" height="2" fill="#767c98"/><rect x="10" y="4" width="2" height="2" fill="#767c98"/><rect x="12" y="4" width="2" height="2" fill="#767c98"/><rect x="14" y="4" width="2" height="2" fill="#767c98"/><rect x="16" y="4" width="2" height="2" fill="#767c98"/><rect x="18" y="4" width="2" height="2" fill="#767c98"/><rect x="20" y="4" width="2" height="2" fill="#767c98"/><rect x="22" y="4" width="2" height="2" fill="#767c98"/><rect x="4" y="6" width="2" height="2" fill="#767c98"/><rect x="6" y="6" width="2" height="2" fill="#767c98"/><rect x="8" y="6" width="2" height="2" fill="#767c98"/><rect x="10" y="6" width="2" height="2" fill="#767c98"/><rect x="12" y="6" width="2" height="2" fill="#767c98"/><rect x="14" y="6" width="2" height="2" fill="#767c98"/><rect x="16" y="6" width="2" height="2" fill="#767c98"/><rect x="18" y="6" width="2" height="2" fill="#767c98"/><rect x="20" y="6" width="2" height="2" fill="#767c98"/><rect x="22" y="6" width="2" height="2" fill="#767c98"/><rect x="24" y="6" width="2" height="2" fill="#5a5f78"/><rect x="26" y="6" width="2" height="2" fill="#5a5f78"/><rect x="4" y="8" width="2" height="2" fill="#767c98"/><rect x="6" y="8" width="2" height="2" fill="#767c98"/><rect x="8" y="8" width="2" height="2" fill="#5a5f78"/><rect x="10" y="8" width="2" height="2" fill="#5a5f78"/><rect x="12" y="8" width="2" height="2" fill="#5a5f78"/><rect x="14" y="8" width="2" height="2" fill="#5a5f78"/><rect x="16" y="8" width="2" height="2" fill="#5a5f78"/><rect x="18" y="8" width="2" height="2" fill="#5a5f78"/><rect x="20" y="8" width="2" height="2" fill="#5a5f78"/><rect x="22" y="8" width="2" height="2" fill="#3c4058"/><rect x="24" y="8" width="2" height="2" fill="#5a5f78"/><rect x="26" y="8" width="2" height="2" fill="#5a5f78"/><rect x="4" y="10" width="2" height="2" fill="#767c98"/><rect x="6" y="10" width="2" height="2" fill="#767c98"/><rect x="8" y="10" width="2" height="2" fill="#5a5f78"/><rect x="10" y="10" width="2" height="2" fill="#3c4058"/><rect x="12" y="10" width="2" height="2" fill="#5a5f78"/><rect x="14" y="10" width="2" height="2" fill="#5a5f78"/><rect x="16" y="10" width="2" height="2" fill="#5a5f78"/><rect x="18" y="10" width="2" height="2" fill="#5a5f78"/><rect x="20" y="10" width="2" height="2" fill="#5a5f78"/><rect x="22" y="10" width="2" height="2" fill="#5a5f78"/><rect x="24" y="10" width="2" height="2" fill="#5a5f78"/><rect x="26" y="10" width="2" height="2" fill="#5a5f78"/><rect x="4" y="12" width="2" height="2" fill="#767c98"/><rect x="6" y="12" width="2" height="2" fill="#767c98"/><rect x="8" y="12" width="2" height="2" fill="#5a5f78"/><rect x="10" y="12" width="2" height="2" fill="#5a5f78"/><rect x="12" y="12" width="2" height="2" fill="#767c98"/><rect x="14" y="12" width="2" height="2" fill="#5a5f78"/><rect x="16" y="12" width="2" height="2" fill="#5a5f78"/><rect x="18" y="12" width="2" height="2" fill="#5a5f78"/><rect x="20" y="12" width="2" height="2" fill="#5a5f78"/><rect x="22" y="12" width="2" height="2" fill="#5a5f78"/><rect x="24" y="12" width="2" height="2" fill="#5a5f78"/><rect x="26" y="12" width="2" height="2" fill="#5a5f78"/><rect x="4" y="14" width="2" height="2" fill="#767c98"/><rect x="6" y="14" width="2" height="2" fill="#767c98"/><rect x="8" y="14" width="2" height="2" fill="#5a5f78"/><rect x="10" y="14" width="2" height="2" fill="#5a5f78"/><rect x="12" y="14" width="2" height="2" fill="#5a5f78"/><rect x="14" y="14" width="2" height="2" fill="#5a5f78"/><rect x="16" y="14" width="2" height="2" fill="#5a5f78"/><rect x="18" y="14" width="2" height="2" fill="#3c4058"/><rect x="20" y="14" width="2" height="2" fill="#5a5f78"/><rect x="22" y="14" width="2" height="2" fill="#5a5f78"/><rect x="24" y="14" width="2" height="2" fill="#5a5f78"/><rect x="26" y="14" width="2" height="2" fill="#5a5f78"/><rect x="4" y="16" width="2" height="2" fill="#767c98"/><rect x="6" y="16" width="2" height="2" fill="#767c98"/><rect x="8" y="16" width="2" height="2" fill="#5a5f78"/><rect x="10" y="16" width="2" height="2" fill="#5a5f78"/><rect x="12" y="16" width="2" height="2" fill="#5a5f78"/><rect x="14" y="16" width="2" height="2" fill="#5a5f78"/><rect x="16" y="16" width="2" height="2" fill="#5a5f78"/><rect x="18" y="16" width="2" height="2" fill="#5a5f78"/><rect x="20" y="16" width="2" height="2" fill="#5a5f78"/><rect x="22" y="16" width="2" height="2" fill="#5a5f78"/><rect x="24" y="16" width="2" height="2" fill="#5a5f78"/><rect x="26" y="16" width="2" height="2" fill="#5a5f78"/><rect x="4" y="18" width="2" height="2" fill="#767c98"/><rect x="6" y="18" width="2" height="2" fill="#767c98"/><rect x="8" y="18" width="2" height="2" fill="#3c4058"/><rect x="10" y="18" width="2" height="2" fill="#3c4058"/><rect x="12" y="18" width="2" height="2" fill="#3c4058"/><rect x="14" y="18" width="2" height="2" fill="#3c4058"/><rect x="16" y="18" width="2" height="2" fill="#3c4058"/><rect x="18" y="18" width="2" height="2" fill="#3c4058"/><rect x="20" y="18" width="2" height="2" fill="#3c4058"/><rect x="22" y="18" width="2" height="2" fill="#3c4058"/><rect x="24" y="18" width="2" height="2" fill="#3c4058"/><rect x="26" y="18" width="2" height="2" fill="#3c4058"/><rect x="4" y="20" width="2" height="2" fill="#3c4058"/><rect x="6" y="20" width="2" height="2" fill="#3c4058"/><rect x="8" y="20" width="2" height="2" fill="#3c4058"/><rect x="10" y="20" width="2" height="2" fill="#3c4058"/><rect x="12" y="20" width="2" height="2" fill="#3c4058"/><rect x="14" y="20" width="2" height="2" fill="#3c4058"/><rect x="16" y="20" width="2" height="2" fill="#3c4058"/><rect x="18" y="20" width="2" height="2" fill="#3c4058"/><rect x="20" y="20" width="2" height="2" fill="#3c4058"/><rect x="22" y="20" width="2" height="2" fill="#3c4058"/><rect x="24" y="20" width="2" height="2" fill="#3c4058"/><rect x="26" y="20" width="2" height="2" fill="#3c4058"/></svg>