<svg xmlns="http://www.w3.org/2000/svg" viewBox="0 0 18 10" width="18" height="10"><rect x="0" y="2" width="2" height="2" fill="#0a2010"/><rect x="14" y="8" width="2" height="2" fill="#0a2010"/><rect x="16" y="8" width="2" height="2" fill="#0a2010"/><rect x="4" y="2" width="2" height="2" fill="#0a2010"/><rect x="8" y="6" width="2" height="2" fill="#0a2010"/><rect x="6" y="2" width="2" height="2" fill="#0a2010"/><rect x="8" y="2" width="2" height="2" fill="#0a2010"/><rect x="2" y="2" width="2" height="2" fill="#0a2010"/><rect x="14" y="0" width="2" height="2" fill="#0a2010"/><rect x="0" y="6" width="2" height="2" fill="#0a2010"/><rect x="10" y="2" width="2" height="2" fill="#0a2010"/><rect x="16" y="0" width="2" height="2" fill="#0a2010"/><rect x="10" y="8" width="2" height="2" fill="#0a2010"/><rect x="4" y="6" width="2" height="2" fill="#0a2010"/><rect x="6" y="6" width="2" height="2" fill="#0a2010"/><rect x="10" y="0" width="2" height="2" fill="#0a2010"/><rect x="10" y="6" width="2" height="2" fill="#0a2010"/><rect x="2" y="6" width="2" height="2" fill="#0a2010"/><rect x="12" y="0" width="2" height="2" fill="#54b45a"/><rect x="12" y="2" width="2" height="2" fill="#8fe07a"/><rect x="14" y="2" width="2" height="2" fill="#8fe07a"/><rect x="16" y="2" width="2" height="2" fill="#8fe07a"/><rect x="0" y="4" width="2" height="2" fill="#2f8a3f"/><rect x="2" y="4" width="2" height="2" fill="#54b45a"/><rect x="4" y="4" width="2" height="2" fill="#54b45a"/><rect x="6" y="4" width="2" height="2" fill="#54b45a"/><rect x="8" y="4" width="2" height="2" fill="#54b45a"/><rect x="10" y="4" width="2" height="2" fill="#2f8a3f"/><rect x="12" y="4" width="2" height="2" fill="#8fe07a"/><rect x="14" y="4" width="2" height="2" fill="#8fe07a"/><rect x="16" y="4" width="2" height="2" fill="#8fe07a"/><rect x="12" y="6" width="2" height="2" fill="#8fe07a"/><rect x="14" y="6" width="2" height="2" fill="#8fe07a"/><rect x="16" y="6" width="2" height="2" fill="#8fe07a"/><rect x="12" y="8" width="2" height="2" fill="#54b45a"/></svg>