<svg xmlns="http://www.w3.org/2000/svg" viewBox="0 0 30 30" width="30" height="30"><rect x="24" y="8" width="2" height="2" fill="#14141f"/><rect x="24" y="14" width="2" height="2" fill="#14141f"/><rect x="28" y="8" width="2" height="2" fill="#14141f"/><rect x="8" y="6" width="2" height="2" fill="#14141f"/><rect x="24" y="20" width="2" height="2" fill="#14141f"/><rect x="28" y="14" width="2" height="2" fill="#14141f"/><rect x="28" y="20" width="2" height="2" fill="#14141f"/><rect x="16" y="0" width="2" height="2" fill="#14141f"/><rect x="6" y="26" width="2" height="2" fill="#14141f"/><rect x="18" y="28" width="2" height="2" fill="#14141f"/><rect x="20" y="6" width="2" height="2" fill="#14141f"/><rect x="2" y="12" width="2" height="2" fill="#14141f"/><rect x="4" y="10" width="2" height="2" fill="#14141f"/><rect x="2" y="6" width="2" height="2" fill="#14141f"/><rect x="26" y="10" width="2" height="2" fill="#14141f"/><rect x="2" y="18" width="2" height="2" fill="#14141f"/><rect x="4" y="16" width="2" height="2" fill="#14141f"/><rect x="26" y="16" width="2" height="2" fill="#14141f"/><rect x="26" y="22" width="2" height="2" fill="#14141f"/><rect x="4" y="22" width="2" height="2" fill="#14141f"/><rect x="12" y="28" width="2" height="2" fill="#14141f"/><rect x="8" y="4" width="2" height="2" fill="#14141f"/><rect x="24" y="18" width="2" height="2" fill="#14141f"/><rect x="24" y="12" width="2" height="2" fill="#14141f"/><rect x="6" y="6" width="2" height="2" fill="#14141f"/><rect x="10" y="0" width="2" height="2" fill="#14141f"/><rect x="24" y="24" width="2" height="2" fill="#14141f"/><rect x="20" y="4" width="2" height="2" fill="#14141f"/><rect x="0" y="14" width="2" height="2" fill="#14141f"/><rect x="4" y="8" width="2" height="2" fill="#14141f"/><rect x="16" y="28" width="2" height="2" fill="#14141f"/><rect x="0" y="8" width="2" height="2" fill="#14141f"/><rect x="0" y="20" width="2" height="2" fill="#14141f"/><rect x="4" y="14" width="2" height="2" fill="#14141f"/><rect x="2" y="10" width="2" height="2" fill="#14141f"/><rect x="2" y="22" width="2" height="2" fill="#14141f"/><rect x="22" y="26" width="2" height="2" fill="#14141f"/><rect x="4" y="20" width="2" height="2" fill="#14141f"/><rect x="2" y="16" width="2" height="2" fill="#14141f"/><rect x="24" y="10" width="2" height="2" fill="#14141f"/><rect x="24" y="22" width="2" height="2" fill="#14141f"/><rect x="8" y="2" width="2" height="2" fill="#14141f"/><rect x="24" y="16" width="2" height="2" fill="#14141f"/><rect x="18" y="0" width="2" height="2" fill="#14141f"/><rect x="8" y="26" width="2" height="2" fill="#14141f"/><rect x="10" y="28" width="2" height="2" fill="#14141f"/><rect x="22" y="6" width="2" height="2" fill="#14141f"/><rect x="20" y="2" width="2" height="2" fill="#14141f"/><rect x="20" y="26" width="2" height="2" fill="#14141f"/><rect x="26" y="6" width="2" height="2" fill="#14141f"/><rect x="4" y="18" width="2" height="2" fill="#14141f"/><rect x="26" y="18" width="2" height="2" fill="#14141f"/><rect x="4" y="12" width="2" height="2" fill="#14141f"/><rect x="26" y="12" width="2" height="2" fill="#14141f"/><rect x="4" y="24" width="2" height="2" fill="#14141f"/><rect x="12" y="0" width="2" height="2" fill="#14141f"/><rect x="14" y="28" width="2" height="2" fill="#14141f"/><rect x="14" y="0" width="2" height="2" fill="#e8f0c0"/><rect x="10" y="2" width="2" height="2" fill="#5fae4a"/><rect x="12" y="2" width="2" height="2" fill="#5fae4a"/><rect x="14" y="2" width="2" height="2" fill="#3f8f3a"/><rect x="16" y="2" width="2" height="2" fill="#3f8f3a"/><rect x="18" y="2" width="2" height="2" fill="#2f6a2a"/><rect x="10" y="4" width="2" height="2" fill="#5fae4a"/><rect x="12" y="4" width="2" height="2" fill="#5fae4a"/><rect x="14" y="4" width="2" height="2" fill="#2a5f26"/><rect x="16" y="4" width="2" height="2" fill="#3f8f3a"/><rect x="18" y="4" width="2" height="2" fill="#2f6a2a"/><rect x="10" y="6" width="2" height="2" fill="#5fae4a"/><rect x="12" y="6" width="2" height="2" fill="#5fae4a"/><rect x="14" y="6" width="2" height="2" fill="#2a5f26"/><rect x="16" y="6" width="2" height="2" fill="#3f8f3a"/><rect x="18" y="6" width="2" height="2" fill="#2f6a2a"/><rect x="2" y="8" width="2" height="2" fill="#e8f0c0"/><rect x="6" y="8" width="2" height="2" fill="#3f8f3a"/><rect x="8" y="8" width="2" height="2" fill="#3f8f3a"/><rect x="10" y="8" width="2" height="2" fill="#5fae4a"/><rect x="12" y="8" width="2" height="2" fill="#5fae4a"/><rect x="14" y="8" width="2" height="2" fill="#2a5f26"/><rect x="16" y="8" width="2" height="2" fill="#3f8f3a"/><rect x="18" y="8" width="2" height="2" fill="#2f6a2a"/><rect x="20" y="8" width="2" height="2" fill="#3f8f3a"/><rect x="22" y="8" width="2" height="2" fill="#3f8f3a"/><rect x="26" y="8" width="2" height="2" fill="#e8f0c0"/><rect x="6" y="10" width="2" height="2" fill="#3f8f3a"/><rect x="8" y="10" width="2" height="2" fill="#3f8f3a"/><rect x="10" y="10" width="2" height="2" fill="#ffe066"/><rect x="12" y="10" width="2" height="2" fill="#5fae4a"/><rect x="14" y="10" width="2" height="2" fill="#2a5f26"/><rect x="16" y="10" width="2" height="2" fill="#3f8f3a"/><rect x="18" y="10" width="2" height="2" fill="#ffe066"/><rect x="20" y="10" width="2" height="2" fill="#3f8f3a"/><rect x="22" y="10" width="2" height="2" fill="#3f8f3a"/><rect x="6" y="12" width="2" height="2" fill="#3f8f3a"/><rect x="8" y="12" width="2" height="2" fill="#3f8f3a"/><rect x="10" y="12" width="2" height="2" fill="#5fae4a"/><rect x="12" y="12" width="2" height="2" fill="#5fae4a"/><rect x="14" y="12" width="2" height="2" fill="#2a5f26"/><rect x="16" y="12" width="2" height="2" fill="#3f8f3a"/><rect x="18" y="12" width="2" height="2" fill="#2f6a2a"/><rect x="20" y="12" width="2" height="2" fill="#3f8f3a"/><rect x="22" y="12" width="2" height="2" fill="#3f8f3a"/><rect x="2" y="14" width="2" height="2" fill="#e8f0c0"/><rect x="6" y="14" width="2" height="2" fill="#3f8f3a"/><rect x="8" y="14" width="2" height="2" fill="#3f8f3a"/><rect x="10" y="14" width="2" height="2" fill="#5fae4a"/><rect x="12" y="14" width="2" height="2" fill="#5fae4a"/><rect x="14" y="14" width="2" height="2" fill="#2a5f26"/><rect x="16" y="14" width="2" height="2" fill="#3f8f3a"/><rect x="18" y="14" width="2" height="2" fill="#2f6a2a"/><rect x="20" y="14" width="2" height="2" fill="#3f8f3a"/><rect x="22" y="14" width="2" height="2" fill="#3f8f3a"/><rect x="26" y="14" width="2" height="2" fill="#e8f0c0"/><rect x="6" y="16" width="2" height="2" fill="#3f8f3a"/><rect x="8" y="16" width="2" height="2" fill="#3f8f3a"/><rect x="10" y="16" width="2" height="2" fill="#5fae4a"/><rect x="12" y="16" width="2" height="2" fill="#5c1a2e"/><rect x="14" y="16" width="2" height="2" fill="#5c1a2e"/><rect x="16" y="16" width="2" height="2" fill="#5c1a2e"/><rect x="18" y="16" width="2" height="2" fill="#2f6a2a"/><rect x="20" y="16" width="2" height="2" fill="#3f8f3a"/><rect x="22" y="16" width="2" height="2" fill="#3f8f3a"/><rect x="6" y="18" width="2" height="2" fill="#3f8f3a"/><rect x="8" y="18" width="2" height="2" fill="#3f8f3a"/><rect x="10" y="18" width="2" height="2" fill="#5fae4a"/><rect x="12" y="18" width="2" height="2" fill="#5fae4a"/><rect x="14" y="18" width="2" height="2" fill="#2a5f26"/><rect x="16" y="18" width="2" height="2" fill="#3f8f3a"/><rect x="18" y="18" width="2" height="2" fill="#2f6a2a"/><rect x="20" y="18" width="2" height="2" fill="#3f8f3a"/><rect x="22" y="18" width="2" height="2" fill="#3f8f3a"/><rect x="2" y="20" width="2" height="2" fill="#e8f0c0"/><rect x="6" y="20" width="2" height="2" fill="#3f8f3a"/><rect x="8" y="20" width="2" height="2" fill="#3f8f3a"/><rect x="10" y="20" width="2" height="2" fill="#5fae4a"/><rect x="12" y="20" width="2" height="2" fill="#5fae4a"/><rect x="14" y="20" width="2" height="2" fill="#2a5f26"/><rect x="16" y="20" width="2" height="2" fill="#3f8f3a"/><rect x="18" y="20" width="2" height="2" fill="#2f6a2a"/><rect x="20" y="20" width="2" height="2" fill="#3f8f3a"/><rect x="22" y="20" width="2" height="2" fill="#3f8f3a"/><rect x="26" y="20" width="2" height="2" fill="#e8f0c0"/><rect x="6" y="22" width="2" height="2" fill="#2f6a2a"/><rect x="8" y="22" width="2" height="2" fill="#2f6a2a"/><rect x="10" y="22" width="2" height="2" fill="#2f6a2a"/><rect x="12" y="22" width="2" height="2" fill="#2f6a2a"/><rect x="14" y="22" width="2" height="2" fill="#2a5f26"/><rect x="16" y="22" width="2" height="2" fill="#2f6a2a"/><rect x="18" y="22" width="2" height="2" fill="#2f6a2a"/><rect x="20" y="22" width="2" height="2" fill="#2f6a2a"/><rect x="22" y="22" width="2" height="2" fill="#2f6a2a"/><rect x="6" y="24" width="2" height="2" fill="#2f6a2a"/><rect x="8" y="24" width="2" height="2" fill="#2f6a2a"/><rect x="10" y="24" width="2" height="2" fill="#2f6a2a"/><rect x="12" y="24" width="2" height="2" fill="#2f6a2a"/><rect x="14" y="24" width="2" height="2" fill="#2a5f26"/><rect x="16" y="24" width="2" height="2" fill="#2f6a2a"/><rect x="18" y="24" width="2" height="2" fill="#2f6a2a"/><rect x="20" y="24" width="2" height="2" fill="#2f6a2a"/><rect x="22" y="24" width="2" height="2" fill="#2f6a2a"/><rect x="10" y="26" width="2" height="2" fill="#5fae4a"/><rect x="12" y="26" width="2" height="2" fill="#5fae4a"/><rect x="14" y="26" width="2" height="2" fill="#3f8f3a"/><rect x="16" y="26" width="2" height="2" fill="#3f8f3a"/><rect x="18" y="26" width="2" height="2" fill="#2f6a2a"/></svg>