<svg xmlns="http://www.w3.org/2000/svg" viewBox="0 0 12 8" width="12" height="8"><rect x="8" y="0" width="2" height="2" fill="#14141f"/><rect x="0" y="0" width="2" height="2" fill="#14141f"/><rect x="8" y="6" width="2" height="2" fill="#14141f"/><rect x="10" y="6" width="2" height="2" fill="#14141f"/><rect x="0" y="6" width="2" height="2" fill="#14141f"/><rect x="4" y="0" width="2" height="2" fill="#14141f"/><rect x="6" y="0" width="2" height="2" fill="#14141f"/><rect x="4" y="6" width="2" height="2" fill="#14141f"/><rect x="6" y="6" width="2" height="2" fill="#14141f"/><rect x="10" y="0" width="2" height="2" fill="#14141f"/><rect x="2" y="0" width="2" height="2" fill="#14141f"/><rect x="2" y="6" width="2" height="2" fill="#14141f"/><rect x="0" y="2" width="2" height="2" fill="#00e5ff"/><rect x="2" y="2" width="2" height="2" fill="#c8feff"/><rect x="4" y="2" width="2" height="2" fill="#c8feff"/><rect x="6" y="2" width="2" height="2" fill="#c8feff"/><rect x="8" y="2" width="2" height="2" fill="#00e5ff"/><rect x="10" y="2" width="2" height="2" fill="#00e5ff"/><rect x="0" y="4" width="2" height="2" fill="#00e5ff"/><rect x="2" y="4" width="2" height="2" fill="#00e5ff"/><rect x="4" y="4" width="2" height="2" fill="#00e5ff"/><rect x="6" y="4" width="2" height="2" fill="#00e5ff"/><rect x="8" y="4" width="2" height="2" fill="#00e5ff"/><rect x="10" y="4" width="2" height="2" fill="#00e5ff"/></svg>