<svg xmlns="http://www.w3.org/2000/svg" viewBox="0 0 12 32" width="12" height="32"><rect x="8" y="6" width="2" height="2" fill="#14141f"/><rect x="8" y="18" width="2" height="2" fill="#14141f"/><rect x="10" y="14" width="2" height="2" fill="#14141f"/><rect x="2" y="18" width="2" height="2" fill="#14141f"/><rect x="0" y="22" width="2" height="2" fill="#14141f"/><rect x="4" y="16" width="2" height="2" fill="#14141f"/><rect x="4" y="28" width="2" height="2" fill="#14141f"/><rect x="8" y="4" width="2" height="2" fill="#14141f"/><rect x="10" y="0" width="2" height="2" fill="#14141f"/><rect x="6" y="12" width="2" height="2" fill="#14141f"/><rect x="6" y="24" width="2" height="2" fill="#14141f"/><rect x="4" y="14" width="2" height="2" fill="#14141f"/><rect x="4" y="26" width="2" height="2" fill="#14141f"/><rect x="8" y="2" width="2" height="2" fill="#14141f"/><rect x="6" y="10" width="2" height="2" fill="#14141f"/><rect x="6" y="22" width="2" height="2" fill="#14141f"/><rect x="8" y="8" width="2" height="2" fill="#14141f"/><rect x="8" y="20" width="2" height="2" fill="#14141f"/><rect x="10" y="16" width="2" height="2" fill="#14141f"/><rect x="0" y="24" width="2" height="2" fill="#14141f"/><rect x="2" y="20" width="2" height="2" fill="#14141f"/><rect x="4" y="30" width="2" height="2" fill="#14141f"/><rect x="10" y="2" width="2" height="2" fill="#d6453c"/><rect x="10" y="4" width="2" height="2" fill="#d6453c"/><rect x="10" y="6" width="2" height="2" fill="#e0e0e0"/><rect x="10" y="8" width="2" height="2" fill="#e0e0e0"/><rect x="8" y="10" width="2" height="2" fill="#e0e0e0"/><rect x="10" y="10" width="2" height="2" fill="#e0e0e0"/><rect x="8" y="12" width="2" height="2" fill="#e0e0e0"/><rect x="10" y="12" width="2" height="2" fill="#e0e0e0"/><rect x="6" y="14" width="2" height="2" fill="#e0e0e0"/><rect x="8" y="14" width="2" height="2" fill="#e0e0e0"/><rect x="6" y="16" width="2" height="2" fill="#e0e0e0"/><rect x="8" y="16" width="2" height="2" fill="#e0e0e0"/><rect x="4" y="18" width="2" height="2" fill="#e0e0e0"/><rect x="6" y="18" width="2" height="2" fill="#e0e0e0"/><rect x="4" y="20" width="2" height="2" fill="#e0e0e0"/><rect x="6" y="20" width="2" height="2" fill="#e0e0e0"/><rect x="2" y="22" width="2" height="2" fill="#e0e0e0"/><rect x="4" y="22" width="2" height="2" fill="#e0e0e0"/><rect x="2" y="24" width="2" height="2" fill="#e0e0e0"/><rect x="4" y="24" width="2" height="2" fill="#e0e0e0"/><rect x="0" y="26" width="2" height="2" fill="#e0e0e0"/><rect x="2" y="26" width="2" height="2" fill="#e0e0e0"/><rect x="0" y="28" width="2" height="2" fill="#e0e0e0"/><rect x="2" y="28" width="2" height="2" fill="#e0e0e0"/><rect x="0" y="30" width="2" height="2" fill="#3a2410"/><rect x="2" y="30" width="2" height="2" fill="#3a2410"/></svg>