<svg height="44" viewBox="0 0 32 44" width="32" xmlns="http://www.w3.org/2000/svg"><g fill="#14141f"><path d="m14 34h2v2h-2z"/><path d="m24 32h2v2h-2z"/><path d="m24 26h2v2h-2z"/><path d="m6 32h2v2h-2z"/><path d="m28 26h2v2h-2z"/><path d="m0 4h2v2h-2z"/><path d="m8 42h2v2h-2z"/><path d="m8 36h2v2h-2z"/><path d="m16 36h2v2h-2z"/><path d="m4 10h2v2h-2z"/><path d="m26 10h2v2h-2z"/><path d="m2 6h2v2h-2z"/><path d="m2 18h2v2h-2z"/><path d="m0 22h2v2h-2z"/><path d="m0 28h2v2h-2z"/><path d="m22 34h2v2h-2z"/><path d="m22 40h2v2h-2z"/><path d="m2 30h2v2h-2z"/><path d="m24 0h2v2h-2z"/><path d="m14 38h2v2h-2z"/><path d="m24 18h2v2h-2z"/><path d="m28 18h2v2h-2z"/><path d="m24 30h2v2h-2z"/><path d="m8 34h2v2h-2z"/><path d="m6 30h2v2h-2z"/><path d="m8 40h2v2h-2z"/><path d="m4 8h2v2h-2z"/><path d="m26 8h2v2h-2z"/><path d="m0 20h2v2h-2z"/><path d="m26 2h2v2h-2z"/><path d="m4 14h2v2h-2z"/><path d="m26 14h2v2h-2z"/><path d="m0 26h2v2h-2z"/><path d="m16 34h2v2h-2z"/><path d="m22 38h2v2h-2z"/><path d="m30 26h2v2h-2z"/><path d="m26 26h2v2h-2z"/><path d="m28 4h2v2h-2z"/><path d="m14 36h2v2h-2z"/><path d="m24 16h2v2h-2z"/><path d="m24 28h2v2h-2z"/><path d="m6 16h2v2h-2z"/><path d="m6 28h2v2h-2z"/><path d="m8 38h2v2h-2z"/><path d="m2 2h2v2h-2z"/><path d="m4 0h2v2h-2z"/><path d="m4 6h2v2h-2z"/><path d="m26 6h2v2h-2z"/><path d="m4 18h2v2h-2z"/><path d="m26 18h2v2h-2z"/><path d="m4 12h2v2h-2z"/><path d="m26 12h2v2h-2z"/><path d="m0 24h2v2h-2z"/><path d="m30 18h2v2h-2z"/><path d="m22 36h2v2h-2z"/><path d="m4 30h2v2h-2z"/><path d="m16 38h2v2h-2z"/><path d="m22 42h2v2h-2z"/></g><path d="m6 0h2v2h-2z" fill="#ffd54f"/><path d="m8 0h2v2h-2z" fill="#e0a800"/><path d="m10 0h2v2h-2z" fill="#ffd54f"/><path d="m12 0h2v2h-2z" fill="#ffd54f"/><path d="m14 0h2v2h-2z" fill="#e0a800"/><path d="m16 0h2v2h-2z" fill="#ffd54f"/><path d="m18 0h2v2h-2z" fill="#ffd54f"/><path d="m20 0h2v2h-2z" fill="#e0a800"/><path d="m22 0h2v2h-2z" fill="#ffd54f"/><path d="m4 2h2v2h-2z" fill="#e0a800"/><path d="m6 2h2v2h-2z" fill="#ffd54f"/><path d="m8 2h2v2h-2z" fill="#ffd54f"/><path d="m10 2h2v2h-2z" fill="#ffd54f"/><path d="m12 2h2v2h-2z" fill="#ffd54f"/><path d="m14 2h2v2h-2z" fill="#ffd54f"/><path d="m16 2h2v2h-2z" fill="#ffd54f"/><path d="m18 2h2v2h-2z" fill="#ffd54f"/><path d="m20 2h2v2h-2z" fill="#ffd54f"/><path d="m22 2h2v2h-2z" fill="#ffd54f"/><path d="m24 2h2v2h-2z" fill="#e0a800"/><path d="m2 4h2v2h-2z" fill="#e0a800"/><path d="m4 4h2v2h-2z" fill="#ffd54f"/><path d="m6 4h2v2h-2z" fill="#ffd54f"/><path d="m8 4h2v2h-2z" fill="#ffd54f"/><path d="m10 4h2v2h-2z" fill="#ffd54f"/><path d="m12 4h2v2h-2z" fill="#ffd54f"/><path d="m14 4h2v2h-2z" fill="#ffd54f"/><path d="m16 4h2v2h-2z" fill="#ffd54f"/><path d="m18 4h2v2h-2z" fill="#ffd54f"/><path d="m20 4h2v2h-2z" fill="#ffd54f"/><path d="m22 4h2v2h-2z" fill="#ffd54f"/><path d="m24 4h2v2h-2z" fill="#ffd54f"/><path d="m26 4h2v2h-2z" fill="#e0a800"/><path d="m6 6h2v2h-2z" fill="#ffd54f"/><path d="m8 6h2v2h-2z" fill="#ffd54f"/><path d="m10 6h2v2h-2z" fill="#fc9"/><path d="m12 6h2v2h-2z" fill="#fc9"/><path d="m14 6h2v2h-2z" fill="#fc9"/><path d="m16 6h2v2h-2z" fill="#fc9"/><path d="m18 6h2v2h-2z" fill="#fc9"/><path d="m20 6h2v2h-2z" fill="#fc9"/><path d="m22 6h2v2h-2z" fill="#ffd54f"/><path d="m24 6h2v2h-2z" fill="#ffd54f"/><path d="m6 8h2v2h-2z" fill="#ffd54f"/><path d="m8 8h2v2h-2z" fill="#ffd54f"/><path d="m10 8h2v2h-2z" fill="#fc9"/><path d="m12 8h2v2h-2z" fill="#fc9"/><path d="m14 8h2v2h-2z" fill="#fc9"/><path d="m16 8h2v2h-2z" fill="#fc9"/><path d="m18 8h2v2h-2z" fill="#fc9"/><path d="m20 8h2v2h-2z" fill="#fc9"/><path d="m22 8h2v2h-2z" fill="#ffd54f"/><path d="m24 8h2v2h-2z" fill="#ffd54f"/><path d="m6 10h2v2h-2z" fill="#fc9"/><path d="m8 10h2v2h-2z" fill="#fc9"/><path d="m10 10h2v2h-2z" fill="#fc9"/><path d="m12 10h2v2h-2z" fill="#fc9"/><path d="m14 10h2v2h-2z" fill="#1a1a2e"/><path d="m16 10h2v2h-2z" fill="#fc9"/><path d="m18 10h2v2h-2z" fill="#fc9"/><path d="m20 10h2v2h-2z" fill="#1a1a2e"/><path d="m22 10h2v2h-2z" fill="#fc9"/><path d="m24 10h2v2h-2z" fill="#fc9"/><path d="m6 12h2v2h-2z" fill="#fc9"/><path d="m8 12h2v2h-2z" fill="#fc9"/><path d="m10 12h2v2h-2z" fill="#fc9"/><path d="m12 12h2v2h-2z" fill="#fc9"/><path d="m14 12h2v2h-2z" fill="#fc9"/><path d="m16 12h2v2h-2z" fill="#fc9"/><path d="m18 12h2v2h-2z" fill="#fc9"/><path d="m20 12h2v2h-2z" fill="#fc9"/><path d="m22 12h2v2h-2z" fill="#fc9"/><path d="m24 12h2v2h-2z" fill="#fc9"/><path d="m6 14h2v2h-2z" fill="#e0a373"/><path d="m8 14h2v2h-2z" fill="#fc9"/><path d="m10 14h2v2h-2z" fill="#fc9"/><path d="m12 14h2v2h-2z" fill="#fc9"/><path d="m14 14h2v2h-2z" fill="#fc9"/><path d="m16 14h2v2h-2z" fill="#fc9"/><path d="m18 14h2v2h-2z" fill="#e0a373"/><path d="m20 14h2v2h-2z" fill="#fc9"/><path d="m22 14h2v2h-2z" fill="#fc9"/><path d="m24 14h2v2h-2z" fill="#e0a373"/><path d="m8 16h2v2h-2z" fill="#ff6f3c"/><path d="m10 16h2v2h-2z" fill="#ff6f3c"/><path d="m12 16h2v2h-2z" fill="#ff6f3c"/><path d="m14 16h2v2h-2z" fill="#ff6f3c"/><path d="m16 16h2v2h-2z" fill="#ff6f3c"/><path d="m18 16h2v2h-2z" fill="#ff6f3c"/><path d="m20 16h2v2h-2z" fill="#ff6f3c"/><path d="m22 16h2v2h-2z" fill="#ff6f3c"/><path d="m6 18h2v2h-2z" fill="#ff6f3c"/><path d="m8 18h2v2h-2z" fill="#6a3ce0"/><path d="m10 18h2v2h-2z" fill="#6a3ce0"/><path d="m12 18h2v2h-2z" fill="#8a5cf6"/><path d="m14 18h2v2h-2z" fill="#8a5cf6"/><path d="m16 18h2v2h-2z" fill="#8a5cf6"/><path d="m18 18h2v2h-2z" fill="#8a5cf6"/><path d="m20 18h2v2h-2z" fill="#6a3ce0"/><path d="m22 18h2v2h-2z" fill="#6a3ce0"/><path d="m2 20h2v2h-2z" fill="#6a3ce0"/><path d="m4 20h2v2h-2z" fill="#6a3ce0"/><path d="m6 20h2v2h-2z" fill="#6a3ce0"/><path d="m8 20h2v2h-2z" fill="#6a3ce0"/><path d="m10 20h2v2h-2z" fill="#6a3ce0"/><path d="m12 20h2v2h-2z" fill="#8a5cf6"/><path d="m14 20h2v2h-2z" fill="#8a5cf6"/><path d="m16 20h2v2h-2z" fill="#8a5cf6"/><path d="m18 20h2v2h-2z" fill="#8a5cf6"/><path d="m20 20h2v2h-2z" fill="#6a3ce0"/><path d="m22 20h2v2h-2z" fill="#8a5cf6"/><path d="m24 20h2v2h-2z" fill="#b8c0cc"/><path d="m26 20h2v2h-2z" fill="#b8c0cc"/><path d="m28 20h2v2h-2z" fill="#5a6472"/><path d="m30 20h2v2h-2z" fill="#5a6472"/><path d="m2 22h2v2h-2z" fill="#6a3ce0"/><path d="m4 22h2v2h-2z" fill="#6a3ce0"/><path d="m6 22h2v2h-2z" fill="#6a3ce0"/><path d="m8 22h2v2h-2z" fill="#6a3ce0"/><path d="m10 22h2v2h-2z" fill="#6a3ce0"/><path d="m12 22h2v2h-2z" fill="#8a5cf6"/><path d="m14 22h2v2h-2z" fill="#8a5cf6"/><path d="m16 22h2v2h-2z" fill="#8a5cf6"/><path d="m18 22h2v2h-2z" fill="#8a5cf6"/><path d="m20 22h2v2h-2z" fill="#6a3ce0"/><path d="m22 22h2v2h-2z" fill="#8a5cf6"/><path d="m24 22h2v2h-2z" fill="#b8c0cc"/><path d="m26 22h2v2h-2z" fill="#b8c0cc"/><path d="m28 22h2v2h-2z" fill="#5a6472"/><path d="m30 22h2v2h-2z" fill="#3ee6e6"/><path d="m2 24h2v2h-2z" fill="#6a3ce0"/><path d="m4 24h2v2h-2z" fill="#6a3ce0"/><path d="m6 24h2v2h-2z" fill="#6a3ce0"/><path d="m8 24h2v2h-2z" fill="#6a3ce0"/><path d="m10 24h2v2h-2z" fill="#6a3ce0"/><path d="m12 24h2v2h-2z" fill="#8a5cf6"/><path d="m14 24h2v2h-2z" fill="#8a5cf6"/><path d="m16 24h2v2h-2z" fill="#8a5cf6"/><path d="m18 24h2v2h-2z" fill="#8a5cf6"/><path d="m20 24h2v2h-2z" fill="#6a3ce0"/><path d="m22 24h2v2h-2z" fill="#8a5cf6"/><path d="m24 24h2v2h-2z" fill="#b8c0cc"/><path d="m26 24h2v2h-2z" fill="#b8c0cc"/><path d="m28 24h2v2h-2z" fill="#5a6472"/><path d="m30 24h2v2h-2z" fill="#5a6472"/><path d="m2 26h2v2h-2z" fill="#fc9"/><path d="m4 26h2v2h-2z" fill="#fc9"/><path d="m6 26h2v2h-2z" fill="#6a3ce0"/><path d="m8 26h2v2h-2z" fill="#6a3ce0"/><path d="m10 26h2v2h-2z" fill="#6a3ce0"/><path d="m12 26h2v2h-2z" fill="#8a5cf6"/><path d="m14 26h2v2h-2z" fill="#8a5cf6"/><path d="m16 26h2v2h-2z" fill="#8a5cf6"/><path d="m18 26h2v2h-2z" fill="#8a5cf6"/><path d="m20 26h2v2h-2z" fill="#6a3ce0"/><path d="m22 26h2v2h-2z" fill="#6a3ce0"/><path d="m2 28h2v2h-2z" fill="#fc9"/><path d="m4 28h2v2h-2z" fill="#fc9"/><path d="m8 28h2v2h-2z" fill="#6a3ce0"/><path d="m10 28h2v2h-2z" fill="#6a3ce0"/><path d="m12 28h2v2h-2z" fill="#8a5cf6"/><path d="m14 28h2v2h-2z" fill="#8a5cf6"/><path d="m16 28h2v2h-2z" fill="#8a5cf6"/><path d="m18 28h2v2h-2z" fill="#8a5cf6"/><path d="m20 28h2v2h-2z" fill="#6a3ce0"/><path d="m22 28h2v2h-2z" fill="#6a3ce0"/><path d="m8 30h2v2h-2z" fill="#3a2a5c"/><path d="m10 30h2v2h-2z" fill="#3a2a5c"/><path d="m12 30h2v2h-2z" fill="#3a2a5c"/><path d="m14 30h2v2h-2z" fill="#3a2a5c"/><path d="m16 30h2v2h-2z" fill="#3a2a5c"/><path d="m18 30h2v2h-2z" fill="#3a2a5c"/><path d="m20 30h2v2h-2z" fill="#3a2a5c"/><path d="m22 30h2v2h-2z" fill="#3a2a5c"/><path d="m8 32h2v2h-2z" fill="#3a2a5c"/><path d="m10 32h2v2h-2z" fill="#3a2a5c"/><path d="m12 32h2v2h-2z" fill="#3a2a5c"/><path d="m14 32h2v2h-2z" fill="#3a2a5c"/><path d="m16 32h2v2h-2z" fill="#3a2a5c"/><path d="m18 32h2v2h-2z" fill="#3a2a5c"/><path d="m20 32h2v2h-2z" fill="#3a2a5c"/><path d="m22 32h2v2h-2z" fill="#3a2a5c"/><path d="m10 34h2v2h-2z" fill="#8a5cf6"/><path d="m12 34h2v2h-2z" fill="#8a5cf6"/><path d="m18 34h2v2h-2z" fill="#8a5cf6"/><path d="m20 34h2v2h-2z" fill="#8a5cf6"/><path d="m10 36h2v2h-2z" fill="#8a5cf6"/><path d="m12 36h2v2h-2z" fill="#8a5cf6"/><path d="m18 36h2v2h-2z" fill="#8a5cf6"/><path d="m20 36h2v2h-2z" fill="#8a5cf6"/><path d="m10 38h2v2h-2z" fill="#8a5cf6"/><path d="m12 38h2v2h-2z" fill="#8a5cf6"/><path d="m18 38h2v2h-2z" fill="#8a5cf6"/><path d="m20 38h2v2h-2z" fill="#8a5cf6"/><path d="m10 40h2v2h-2z" fill="#2b1f47"/><path d="m12 40h2v2h-2z" fill="#2b1f47"/><path d="m14 40h2v2h-2z" fill="#2b1f47"/><path d="m16 40h2v2h-2z" fill="#2b1f47"/><path d="m18 40h2v2h-2z" fill="#2b1f47"/><path d="m20 40h2v2h-2z" fill="#2b1f47"/><path d="m10 42h2v2h-2z" fill="#2b1f47"/><path d="m12 42h2v2h-2z" fill="#2b1f47"/><path d="m14 42h2v2h-2z" fill="#2b1f47"/><path d="m16 42h2v2h-2z" fill="#2b1f47"/><path d="m18 42h2v2h-2z" fill="#2b1f47"/><path d="m20 42h2v2h-2z" fill="#2b1f47"/></svg>