<svg xmlns="http://www.w3.org/2000/svg" viewBox="0 0 32 44" width="32" height="44"><rect x="14" y="34" width="2" height="2" fill="#14141f"/><rect x="12" y="42" width="2" height="2" fill="#14141f"/><rect x="14" y="40" width="2" height="2" fill="#14141f"/><rect x="24" y="32" width="2" height="2" fill="#14141f"/><rect x="24" y="26" width="2" height="2" fill="#14141f"/><rect x="6" y="32" width="2" height="2" fill="#14141f"/><rect x="28" y="26" width="2" height="2" fill="#14141f"/><rect x="0" y="4" width="2" height="2" fill="#14141f"/><rect x="8" y="42" width="2" height="2" fill="#14141f"/><rect x="16" y="36" width="2" height="2" fill="#14141f"/><rect x="4" y="10" width="2" height="2" fill="#14141f"/><rect x="26" y="10" width="2" height="2" fill="#14141f"/><rect x="2" y="6" width="2" height="2" fill="#14141f"/><rect x="2" y="18" width="2" height="2" fill="#14141f"/><rect x="0" y="22" width="2" height="2" fill="#14141f"/><rect x="0" y="28" width="2" height="2" fill="#14141f"/><rect x="22" y="34" width="2" height="2" fill="#14141f"/><rect x="16" y="42" width="2" height="2" fill="#14141f"/><rect x="2" y="30" width="2" height="2" fill="#14141f"/><rect x="4" y="40" width="2" height="2" fill="#14141f"/><rect x="24" y="0" width="2" height="2" fill="#14141f"/><rect x="14" y="38" width="2" height="2" fill="#14141f"/><rect x="24" y="18" width="2" height="2" fill="#14141f"/><rect x="28" y="18" width="2" height="2" fill="#14141f"/><rect x="24" y="30" width="2" height="2" fill="#14141f"/><rect x="24" y="42" width="2" height="2" fill="#14141f"/><rect x="6" y="36" width="2" height="2" fill="#14141f"/><rect x="6" y="30" width="2" height="2" fill="#14141f"/><rect x="6" y="42" width="2" height="2" fill="#14141f"/><rect x="4" y="8" width="2" height="2" fill="#14141f"/><rect x="26" y="8" width="2" height="2" fill="#14141f"/><rect x="10" y="42" width="2" height="2" fill="#14141f"/><rect x="0" y="20" width="2" height="2" fill="#14141f"/><rect x="26" y="2" width="2" height="2" fill="#14141f"/><rect x="4" y="14" width="2" height="2" fill="#14141f"/><rect x="26" y="14" width="2" height="2" fill="#14141f"/><rect x="0" y="26" width="2" height="2" fill="#14141f"/><rect x="16" y="34" width="2" height="2" fill="#14141f"/><rect x="22" y="38" width="2" height="2" fill="#14141f"/><rect x="16" y="40" width="2" height="2" fill="#14141f"/><rect x="30" y="26" width="2" height="2" fill="#14141f"/><rect x="26" y="26" width="2" height="2" fill="#14141f"/><rect x="4" y="38" width="2" height="2" fill="#14141f"/><rect x="28" y="4" width="2" height="2" fill="#14141f"/><rect x="14" y="36" width="2" height="2" fill="#14141f"/><rect x="24" y="16" width="2" height="2" fill="#14141f"/><rect x="24" y="28" width="2" height="2" fill="#14141f"/><rect x="6" y="16" width="2" height="2" fill="#14141f"/><rect x="6" y="28" width="2" height="2" fill="#14141f"/><rect x="24" y="40" width="2" height="2" fill="#14141f"/><rect x="6" y="34" width="2" height="2" fill="#14141f"/><rect x="2" y="2" width="2" height="2" fill="#14141f"/><rect x="4" y="0" width="2" height="2" fill="#14141f"/><rect x="4" y="6" width="2" height="2" fill="#14141f"/><rect x="26" y="6" width="2" height="2" fill="#14141f"/><rect x="4" y="18" width="2" height="2" fill="#14141f"/><rect x="26" y="18" width="2" height="2" fill="#14141f"/><rect x="4" y="12" width="2" height="2" fill="#14141f"/><rect x="26" y="12" width="2" height="2" fill="#14141f"/><rect x="0" y="24" width="2" height="2" fill="#14141f"/><rect x="30" y="18" width="2" height="2" fill="#14141f"/><rect x="22" y="36" width="2" height="2" fill="#14141f"/><rect x="4" y="30" width="2" height="2" fill="#14141f"/><rect x="16" y="38" width="2" height="2" fill="#14141f"/><rect x="6" y="0" width="2" height="2" fill="#ffd54f"/><rect x="8" y="0" width="2" height="2" fill="#e0a800"/><rect x="10" y="0" width="2" height="2" fill="#ffd54f"/><rect x="12" y="0" width="2" height="2" fill="#ffd54f"/><rect x="14" y="0" width="2" height="2" fill="#e0a800"/><rect x="16" y="0" width="2" height="2" fill="#ffd54f"/><rect x="18" y="0" width="2" height="2" fill="#ffd54f"/><rect x="20" y="0" width="2" height="2" fill="#e0a800"/><rect x="22" y="0" width="2" height="2" fill="#ffd54f"/><rect x="4" y="2" width="2" height="2" fill="#e0a800"/><rect x="6" y="2" width="2" height="2" fill="#ffd54f"/><rect x="8" y="2" width="2" height="2" fill="#ffd54f"/><rect x="10" y="2" width="2" height="2" fill="#ffd54f"/><rect x="12" y="2" width="2" height="2" fill="#ffd54f"/><rect x="14" y="2" width="2" height="2" fill="#ffd54f"/><rect x="16" y="2" width="2" height="2" fill="#ffd54f"/><rect x="18" y="2" width="2" height="2" fill="#ffd54f"/><rect x="20" y="2" width="2" height="2" fill="#ffd54f"/><rect x="22" y="2" width="2" height="2" fill="#ffd54f"/><rect x="24" y="2" width="2" height="2" fill="#e0a800"/><rect x="2" y="4" width="2" height="2" fill="#e0a800"/><rect x="4" y="4" width="2" height="2" fill="#ffd54f"/><rect x="6" y="4" width="2" height="2" fill="#ffd54f"/><rect x="8" y="4" width="2" height="2" fill="#ffd54f"/><rect x="10" y="4" width="2" height="2" fill="#ffd54f"/><rect x="12" y="4" width="2" height="2" fill="#ffd54f"/><rect x="14" y="4" width="2" height="2" fill="#ffd54f"/><rect x="16" y="4" width="2" height="2" fill="#ffd54f"/><rect x="18" y="4" width="2" height="2" fill="#ffd54f"/><rect x="20" y="4" width="2" height="2" fill="#ffd54f"/><rect x="22" y="4" width="2" height="2" fill="#ffd54f"/><rect x="24" y="4" width="2" height="2" fill="#ffd54f"/><rect x="26" y="4" width="2" height="2" fill="#e0a800"/><rect x="6" y="6" width="2" height="2" fill="#ffd54f"/><rect x="8" y="6" width="2" height="2" fill="#ffd54f"/><rect x="10" y="6" width="2" height="2" fill="#ffcc99"/><rect x="12" y="6" width="2" height="2" fill="#ffcc99"/><rect x="14" y="6" width="2" height="2" fill="#ffcc99"/><rect x="16" y="6" width="2" height="2" fill="#ffcc99"/><rect x="18" y="6" width="2" height="2" fill="#ffcc99"/><rect x="20" y="6" width="2" height="2" fill="#ffcc99"/><rect x="22" y="6" width="2" height="2" fill="#ffd54f"/><rect x="24" y="6" width="2" height="2" fill="#ffd54f"/><rect x="6" y="8" width="2" height="2" fill="#ffd54f"/><rect x="8" y="8" width="2" height="2" fill="#ffd54f"/><rect x="10" y="8" width="2" height="2" fill="#ffcc99"/><rect x="12" y="8" width="2" height="2" fill="#ffcc99"/><rect x="14" y="8" width="2" height="2" fill="#ffcc99"/><rect x="16" y="8" width="2" height="2" fill="#ffcc99"/><rect x="18" y="8" width="2" height="2" fill="#ffcc99"/><rect x="20" y="8" width="2" height="2" fill="#ffcc99"/><rect x="22" y="8" width="2" height="2" fill="#ffd54f"/><rect x="24" y="8" width="2" height="2" fill="#ffd54f"/><rect x="6" y="10" width="2" height="2" fill="#ffcc99"/><rect x="8" y="10" width="2" height="2" fill="#ffcc99"/><rect x="10" y="10" width="2" height="2" fill="#ffcc99"/><rect x="12" y="10" width="2" height="2" fill="#ffcc99"/><rect x="14" y="10" width="2" height="2" fill="#1a1a2e"/><rect x="16" y="10" width="2" height="2" fill="#ffcc99"/><rect x="18" y="10" width="2" height="2" fill="#ffcc99"/><rect x="20" y="10" width="2" height="2" fill="#1a1a2e"/><rect x="22" y="10" width="2" height="2" fill="#ffcc99"/><rect x="24" y="10" width="2" height="2" fill="#ffcc99"/><rect x="6" y="12" width="2" height="2" fill="#ffcc99"/><rect x="8" y="12" width="2" height="2" fill="#ffcc99"/><rect x="10" y="12" width="2" height="2" fill="#ffcc99"/><rect x="12" y="12" width="2" height="2" fill="#ffcc99"/><rect x="14" y="12" width="2" height="2" fill="#ffcc99"/><rect x="16" y="12" width="2" height="2" fill="#ffcc99"/><rect x="18" y="12" width="2" height="2" fill="#ffcc99"/><rect x="20" y="12" width="2" height="2" fill="#ffcc99"/><rect x="22" y="12" width="2" height="2" fill="#ffcc99"/><rect x="24" y="12" width="2" height="2" fill="#ffcc99"/><rect x="6" y="14" width="2" height="2" fill="#e0a373"/><rect x="8" y="14" width="2" height="2" fill="#ffcc99"/><rect x="10" y="14" width="2" height="2" fill="#ffcc99"/><rect x="12" y="14" width="2" height="2" fill="#ffcc99"/><rect x="14" y="14" width="2" height="2" fill="#ffcc99"/><rect x="16" y="14" width="2" height="2" fill="#ffcc99"/><rect x="18" y="14" width="2" height="2" fill="#e0a373"/><rect x="20" y="14" width="2" height="2" fill="#ffcc99"/><rect x="22" y="14" width="2" height="2" fill="#ffcc99"/><rect x="24" y="14" width="2" height="2" fill="#e0a373"/><rect x="8" y="16" width="2" height="2" fill="#ff6f3c"/><rect x="10" y="16" width="2" height="2" fill="#ff6f3c"/><rect x="12" y="16" width="2" height="2" fill="#ff6f3c"/><rect x="14" y="16" width="2" height="2" fill="#ff6f3c"/><rect x="16" y="16" width="2" height="2" fill="#ff6f3c"/><rect x="18" y="16" width="2" height="2" fill="#ff6f3c"/><rect x="20" y="16" width="2" height="2" fill="#ff6f3c"/><rect x="22" y="16" width="2" height="2" fill="#ff6f3c"/><rect x="6" y="18" width="2" height="2" fill="#ff6f3c"/><rect x="8" y="18" width="2" height="2" fill="#6a3ce0"/><rect x="10" y="18" width="2" height="2" fill="#6a3ce0"/><rect x="12" y="18" width="2" height="2" fill="#8a5cf6"/><rect x="14" y="18" width="2" height="2" fill="#8a5cf6"/><rect x="16" y="18" width="2" height="2" fill="#8a5cf6"/><rect x="18" y="18" width="2" height="2" fill="#8a5cf6"/><rect x="20" y="18" width="2" height="2" fill="#6a3ce0"/><rect x="22" y="18" width="2" height="2" fill="#6a3ce0"/><rect x="2" y="20" width="2" height="2" fill="#6a3ce0"/><rect x="4" y="20" width="2" height="2" fill="#6a3ce0"/><rect x="6" y="20" width="2" height="2" fill="#6a3ce0"/><rect x="8" y="20" width="2" height="2" fill="#6a3ce0"/><rect x="10" y="20" width="2" height="2" fill="#6a3ce0"/><rect x="12" y="20" width="2" height="2" fill="#8a5cf6"/><rect x="14" y="20" width="2" height="2" fill="#8a5cf6"/><rect x="16" y="20" width="2" height="2" fill="#8a5cf6"/><rect x="18" y="20" width="2" height="2" fill="#8a5cf6"/><rect x="20" y="20" width="2" height="2" fill="#6a3ce0"/><rect x="22" y="20" width="2" height="2" fill="#8a5cf6"/><rect x="24" y="20" width="2" height="2" fill="#b8c0cc"/><rect x="26" y="20" width="2" height="2" fill="#b8c0cc"/><rect x="28" y="20" width="2" height="2" fill="#5a6472"/><rect x="30" y="20" width="2" height="2" fill="#5a6472"/><rect x="2" y="22" width="2" height="2" fill="#6a3ce0"/><rect x="4" y="22" width="2" height="2" fill="#6a3ce0"/><rect x="6" y="22" width="2" height="2" fill="#6a3ce0"/><rect x="8" y="22" width="2" height="2" fill="#6a3ce0"/><rect x="10" y="22" width="2" height="2" fill="#6a3ce0"/><rect x="12" y="22" width="2" height="2" fill="#8a5cf6"/><rect x="14" y="22" width="2" height="2" fill="#8a5cf6"/><rect x="16" y="22" width="2" height="2" fill="#8a5cf6"/><rect x="18" y="22" width="2" height="2" fill="#8a5cf6"/><rect x="20" y="22" width="2" height="2" fill="#6a3ce0"/><rect x="22" y="22" width="2" height="2" fill="#8a5cf6"/><rect x="24" y="22" width="2" height="2" fill="#b8c0cc"/><rect x="26" y="22" width="2" height="2" fill="#b8c0cc"/><rect x="28" y="22" width="2" height="2" fill="#5a6472"/><rect x="30" y="22" width="2" height="2" fill="#3ee6e6"/><rect x="2" y="24" width="2" height="2" fill="#6a3ce0"/><rect x="4" y="24" width="2" height="2" fill="#6a3ce0"/><rect x="6" y="24" width="2" height="2" fill="#6a3ce0"/><rect x="8" y="24" width="2" height="2" fill="#6a3ce0"/><rect x="10" y="24" width="2" height="2" fill="#6a3ce0"/><rect x="12" y="24" width="2" height="2" fill="#8a5cf6"/><rect x="14" y="24" width="2" height="2" fill="#8a5cf6"/><rect x="16" y="24" width="2" height="2" fill="#8a5cf6"/><rect x="18" y="24" width="2" height="2" fill="#8a5cf6"/><rect x="20" y="24" width="2" height="2" fill="#6a3ce0"/><rect x="22" y="24" width="2" height="2" fill="#8a5cf6"/><rect x="24" y="24" width="2" height="2" fill="#b8c0cc"/><rect x="26" y="24" width="2" height="2" fill="#b8c0cc"/><rect x="28" y="24" width="2" height="2" fill="#5a6472"/><rect x="30" y="24" width="2" height="2" fill="#5a6472"/><rect x="2" y="26" width="2" height="2" fill="#ffcc99"/><rect x="4" y="26" width="2" height="2" fill="#ffcc99"/><rect x="6" y="26" width="2" height="2" fill="#6a3ce0"/><rect x="8" y="26" width="2" height="2" fill="#6a3ce0"/><rect x="10" y="26" width="2" height="2" fill="#6a3ce0"/><rect x="12" y="26" width="2" height="2" fill="#8a5cf6"/><rect x="14" y="26" width="2" height="2" fill="#8a5cf6"/><rect x="16" y="26" width="2" height="2" fill="#8a5cf6"/><rect x="18" y="26" width="2" height="2" fill="#8a5cf6"/><rect x="20" y="26" width="2" height="2" fill="#6a3ce0"/><rect x="22" y="26" width="2" height="2" fill="#6a3ce0"/><rect x="2" y="28" width="2" height="2" fill="#ffcc99"/><rect x="4" y="28" width="2" height="2" fill="#ffcc99"/><rect x="8" y="28" width="2" height="2" fill="#6a3ce0"/><rect x="10" y="28" width="2" height="2" fill="#6a3ce0"/><rect x="12" y="28" width="2" height="2" fill="#8a5cf6"/><rect x="14" y="28" width="2" height="2" fill="#8a5cf6"/><rect x="16" y="28" width="2" height="2" fill="#8a5cf6"/><rect x="18" y="28" width="2" height="2" fill="#8a5cf6"/><rect x="20" y="28" width="2" height="2" fill="#6a3ce0"/><rect x="22" y="28" width="2" height="2" fill="#6a3ce0"/><rect x="8" y="30" width="2" height="2" fill="#3a2a5c"/><rect x="10" y="30" width="2" height="2" fill="#3a2a5c"/><rect x="12" y="30" width="2" height="2" fill="#3a2a5c"/><rect x="14" y="30" width="2" height="2" fill="#3a2a5c"/><rect x="16" y="30" width="2" height="2" fill="#3a2a5c"/><rect x="18" y="30" width="2" height="2" fill="#3a2a5c"/><rect x="20" y="30" width="2" height="2" fill="#3a2a5c"/><rect x="22" y="30" width="2" height="2" fill="#3a2a5c"/><rect x="8" y="32" width="2" height="2" fill="#8a5cf6"/><rect x="10" y="32" width="2" height="2" fill="#8a5cf6"/><rect x="12" y="32" width="2" height="2" fill="#8a5cf6"/><rect x="14" y="32" width="2" height="2" fill="#3a2a5c"/><rect x="16" y="32" width="2" height="2" fill="#3a2a5c"/><rect x="18" y="32" width="2" height="2" fill="#3a2a5c"/><rect x="20" y="32" width="2" height="2" fill="#3a2a5c"/><rect x="22" y="32" width="2" height="2" fill="#3a2a5c"/><rect x="8" y="34" width="2" height="2" fill="#8a5cf6"/><rect x="10" y="34" width="2" height="2" fill="#8a5cf6"/><rect x="12" y="34" width="2" height="2" fill="#8a5cf6"/><rect x="18" y="34" width="2" height="2" fill="#8a5cf6"/><rect x="20" y="34" width="2" height="2" fill="#8a5cf6"/><rect x="8" y="36" width="2" height="2" fill="#8a5cf6"/><rect x="10" y="36" width="2" height="2" fill="#8a5cf6"/><rect x="12" y="36" width="2" height="2" fill="#8a5cf6"/><rect x="18" y="36" width="2" height="2" fill="#8a5cf6"/><rect x="20" y="36" width="2" height="2" fill="#8a5cf6"/><rect x="6" y="38" width="2" height="2" fill="#2b1f47"/><rect x="8" y="38" width="2" height="2" fill="#2b1f47"/><rect x="10" y="38" width="2" height="2" fill="#2b1f47"/><rect x="12" y="38" width="2" height="2" fill="#2b1f47"/><rect x="18" y="38" width="2" height="2" fill="#8a5cf6"/><rect x="20" y="38" width="2" height="2" fill="#8a5cf6"/><rect x="6" y="40" width="2" height="2" fill="#2b1f47"/><rect x="8" y="40" width="2" height="2" fill="#2b1f47"/><rect x="10" y="40" width="2" height="2" fill="#2b1f47"/><rect x="12" y="40" width="2" height="2" fill="#2b1f47"/><rect x="18" y="40" width="2" height="2" fill="#2b1f47"/><rect x="20" y="40" width="2" height="2" fill="#2b1f47"/><rect x="22" y="40" width="2" height="2" fill="#2b1f47"/><rect x="18" y="42" width="2" height="2" fill="#2b1f47"/><rect x="20" y="42" width="2" height="2" fill="#2b1f47"/><rect x="22" y="42" width="2" height="2" fill="#2b1f47"/></svg>