<svg xmlns="http://www.w3.org/2000/svg" viewBox="0 0 24 24" width="24" height="24"><rect x="10" y="2" width="2" height="2" fill="#141830"/><rect x="6" y="20" width="2" height="2" fill="#141830"/><rect x="18" y="10" width="2" height="2" fill="#141830"/><rect x="18" y="16" width="2" height="2" fill="#141830"/><rect x="4" y="10" width="2" height="2" fill="#141830"/><rect x="4" y="16" width="2" height="2" fill="#141830"/><rect x="14" y="2" width="2" height="2" fill="#141830"/><rect x="16" y="4" width="2" height="2" fill="#141830"/><rect x="18" y="14" width="2" height="2" fill="#141830"/><rect x="16" y="22" width="2" height="2" fill="#141830"/><rect x="18" y="8" width="2" height="2" fill="#141830"/><rect x="4" y="8" width="2" height="2" fill="#141830"/><rect x="4" y="14" width="2" height="2" fill="#141830"/><rect x="12" y="2" width="2" height="2" fill="#141830"/><rect x="6" y="4" width="2" height="2" fill="#141830"/><rect x="8" y="2" width="2" height="2" fill="#141830"/><rect x="6" y="22" width="2" height="2" fill="#141830"/><rect x="18" y="6" width="2" height="2" fill="#141830"/><rect x="18" y="18" width="2" height="2" fill="#141830"/><rect x="18" y="12" width="2" height="2" fill="#141830"/><rect x="16" y="20" width="2" height="2" fill="#141830"/><rect x="4" y="6" width="2" height="2" fill="#141830"/><rect x="4" y="18" width="2" height="2" fill="#141830"/><rect x="4" y="12" width="2" height="2" fill="#141830"/><rect x="8" y="4" width="2" height="2" fill="#6fd0b0"/><rect x="10" y="4" width="2" height="2" fill="#6fd0b0"/><rect x="12" y="4" width="2" height="2" fill="#6fd0b0"/><rect x="14" y="4" width="2" height="2" fill="#6fd0b0"/><rect x="6" y="6" width="2" height="2" fill="#a8f0da"/><rect x="8" y="6" width="2" height="2" fill="#a8f0da"/><rect x="10" y="6" width="2" height="2" fill="#6fd0b0"/><rect x="12" y="6" width="2" height="2" fill="#6fd0b0"/><rect x="14" y="6" width="2" height="2" fill="#3f9a7a"/><rect x="16" y="6" width="2" height="2" fill="#3f9a7a"/><rect x="6" y="8" width="2" height="2" fill="#a8f0da"/><rect x="8" y="8" width="2" height="2" fill="#a8f0da"/><rect x="10" y="8" width="2" height="2" fill="#eaffff"/><rect x="12" y="8" width="2" height="2" fill="#6fd0b0"/><rect x="14" y="8" width="2" height="2" fill="#3f9a7a"/><rect x="16" y="8" width="2" height="2" fill="#3f9a7a"/><rect x="6" y="10" width="2" height="2" fill="#a8f0da"/><rect x="8" y="10" width="2" height="2" fill="#a8f0da"/><rect x="10" y="10" width="2" height="2" fill="#6fd0b0"/><rect x="12" y="10" width="2" height="2" fill="#6fd0b0"/><rect x="14" y="10" width="2" height="2" fill="#3f9a7a"/><rect x="16" y="10" width="2" height="2" fill="#3f9a7a"/><rect x="6" y="12" width="2" height="2" fill="#a8f0da"/><rect x="8" y="12" width="2" height="2" fill="#eaffff"/><rect x="10" y="12" width="2" height="2" fill="#6fd0b0"/><rect x="12" y="12" width="2" height="2" fill="#6fd0b0"/><rect x="14" y="12" width="2" height="2" fill="#3f9a7a"/><rect x="16" y="12" width="2" height="2" fill="#3f9a7a"/><rect x="6" y="14" width="2" height="2" fill="#a8f0da"/><rect x="8" y="14" width="2" height="2" fill="#a8f0da"/><rect x="10" y="14" width="2" height="2" fill="#6fd0b0"/><rect x="12" y="14" width="2" height="2" fill="#6fd0b0"/><rect x="14" y="14" width="2" height="2" fill="#3f9a7a"/><rect x="16" y="14" width="2" height="2" fill="#3f9a7a"/><rect x="6" y="16" width="2" height="2" fill="#a8f0da"/><rect x="8" y="16" width="2" height="2" fill="#a8f0da"/><rect x="10" y="16" width="2" height="2" fill="#6fd0b0"/><rect x="12" y="16" width="2" height="2" fill="#6fd0b0"/><rect x="14" y="16" width="2" height="2" fill="#3f9a7a"/><rect x="16" y="16" width="2" height="2" fill="#3f9a7a"/><rect x="6" y="18" width="2" height="2" fill="#a8f0da"/><rect x="8" y="18" width="2" height="2" fill="#a8f0da"/><rect x="10" y="18" width="2" height="2" fill="#6fd0b0"/><rect x="12" y="18" width="2" height="2" fill="#6fd0b0"/><rect x="14" y="18" width="2" height="2" fill="#3f9a7a"/><rect x="16" y="18" width="2" height="2" fill="#3f9a7a"/><rect x="8" y="20" width="2" height="2" fill="#2f3852"/><rect x="10" y="20" width="2" height="2" fill="#2f3852"/><rect x="12" y="20" width="2" height="2" fill="#2f3852"/><rect x="14" y="20" width="2" height="2" fill="#2f3852"/><rect x="8" y="22" width="2" height="2" fill="#2f3852"/><rect x="10" y="22" width="2" height="2" fill="#2f3852"/><rect x="12" y="22" width="2" height="2" fill="#2f3852"/><rect x="14" y="22" width="2" height="2" fill="#2f3852"/></svg>