<svg xmlns="http://www.w3.org/2000/svg" viewBox="0 0 36 32" width="36" height="32"><rect x="24" y="8" width="2" height="2" fill="#2a1810"/><rect x="12" y="30" width="2" height="2" fill="#2a1810"/><rect x="8" y="18" width="2" height="2" fill="#2a1810"/><rect x="24" y="20" width="2" height="2" fill="#2a1810"/><rect x="10" y="8" width="2" height="2" fill="#2a1810"/><rect x="24" y="26" width="2" height="2" fill="#2a1810"/><rect x="10" y="26" width="2" height="2" fill="#2a1810"/><rect x="10" y="20" width="2" height="2" fill="#2a1810"/><rect x="22" y="10" width="2" height="2" fill="#2a1810"/><rect x="18" y="28" width="2" height="2" fill="#2a1810"/><rect x="22" y="28" width="2" height="2" fill="#2a1810"/><rect x="16" y="30" width="2" height="2" fill="#2a1810"/><rect x="26" y="16" width="2" height="2" fill="#2a1810"/><rect x="20" y="30" width="2" height="2" fill="#2a1810"/><rect x="12" y="4" width="2" height="2" fill="#2a1810"/><rect x="12" y="28" width="2" height="2" fill="#2a1810"/><rect x="24" y="6" width="2" height="2" fill="#2a1810"/><rect x="24" y="12" width="2" height="2" fill="#2a1810"/><rect x="24" y="24" width="2" height="2" fill="#2a1810"/><rect x="10" y="12" width="2" height="2" fill="#2a1810"/><rect x="8" y="16" width="2" height="2" fill="#2a1810"/><rect x="10" y="6" width="2" height="2" fill="#2a1810"/><rect x="18" y="2" width="2" height="2" fill="#2a1810"/><rect x="10" y="24" width="2" height="2" fill="#2a1810"/><rect x="22" y="2" width="2" height="2" fill="#2a1810"/><rect x="20" y="10" width="2" height="2" fill="#2a1810"/><rect x="16" y="28" width="2" height="2" fill="#2a1810"/><rect x="26" y="14" width="2" height="2" fill="#2a1810"/><rect x="24" y="4" width="2" height="2" fill="#2a1810"/><rect x="24" y="22" width="2" height="2" fill="#2a1810"/><rect x="8" y="14" width="2" height="2" fill="#2a1810"/><rect x="10" y="10" width="2" height="2" fill="#2a1810"/><rect x="10" y="22" width="2" height="2" fill="#2a1810"/><rect x="16" y="2" width="2" height="2" fill="#2a1810"/><rect x="20" y="2" width="2" height="2" fill="#2a1810"/><rect x="22" y="12" width="2" height="2" fill="#2a1810"/><rect x="26" y="18" width="2" height="2" fill="#2a1810"/><rect x="14" y="4" width="2" height="2" fill="#2a1810"/><rect x="12" y="12" width="2" height="2" fill="#2a1810"/><rect x="14" y="28" width="2" height="2" fill="#2a1810"/><rect x="16" y="4" width="2" height="2" fill="#3f8f4a"/><rect x="18" y="4" width="2" height="2" fill="#3f8f4a"/><rect x="20" y="4" width="2" height="2" fill="#3f8f4a"/><rect x="22" y="4" width="2" height="2" fill="#3f8f4a"/><rect x="12" y="6" width="2" height="2" fill="#63bf5f"/><rect x="14" y="6" width="2" height="2" fill="#3f8f4a"/><rect x="16" y="6" width="2" height="2" fill="#3f8f4a"/><rect x="18" y="6" width="2" height="2" fill="#3f8f4a"/><rect x="20" y="6" width="2" height="2" fill="#3f8f4a"/><rect x="22" y="6" width="2" height="2" fill="#2a6b35"/><rect x="12" y="8" width="2" height="2" fill="#3f8f4a"/><rect x="14" y="8" width="2" height="2" fill="#3f8f4a"/><rect x="16" y="8" width="2" height="2" fill="#3f8f4a"/><rect x="18" y="8" width="2" height="2" fill="#3f8f4a"/><rect x="20" y="8" width="2" height="2" fill="#3f8f4a"/><rect x="22" y="8" width="2" height="2" fill="#3f8f4a"/><rect x="12" y="10" width="2" height="2" fill="#3f8f4a"/><rect x="14" y="10" width="2" height="2" fill="#3f8f4a"/><rect x="16" y="10" width="2" height="2" fill="#3f8f4a"/><rect x="18" y="10" width="2" height="2" fill="#3f8f4a"/><rect x="14" y="12" width="2" height="2" fill="#4a3320"/><rect x="16" y="12" width="2" height="2" fill="#3f8f4a"/><rect x="18" y="12" width="2" height="2" fill="#3f8f4a"/><rect x="20" y="12" width="2" height="2" fill="#4a3320"/><rect x="10" y="14" width="2" height="2" fill="#d98a5a"/><rect x="12" y="14" width="2" height="2" fill="#d98a5a"/><rect x="14" y="14" width="2" height="2" fill="#4a3320"/><rect x="16" y="14" width="2" height="2" fill="#4a3320"/><rect x="18" y="14" width="2" height="2" fill="#4a3320"/><rect x="20" y="14" width="2" height="2" fill="#4a3320"/><rect x="22" y="14" width="2" height="2" fill="#d98a5a"/><rect x="24" y="14" width="2" height="2" fill="#d98a5a"/><rect x="10" y="16" width="2" height="2" fill="#d98a5a"/><rect x="12" y="16" width="2" height="2" fill="#d98a5a"/><rect x="14" y="16" width="2" height="2" fill="#d98a5a"/><rect x="16" y="16" width="2" height="2" fill="#d98a5a"/><rect x="18" y="16" width="2" height="2" fill="#d98a5a"/><rect x="20" y="16" width="2" height="2" fill="#d98a5a"/><rect x="22" y="16" width="2" height="2" fill="#d98a5a"/><rect x="24" y="16" width="2" height="2" fill="#d98a5a"/><rect x="10" y="18" width="2" height="2" fill="#d98a5a"/><rect x="12" y="18" width="2" height="2" fill="#d98a5a"/><rect x="14" y="18" width="2" height="2" fill="#1a1a2e"/><rect x="16" y="18" width="2" height="2" fill="#d98a5a"/><rect x="18" y="18" width="2" height="2" fill="#d98a5a"/><rect x="20" y="18" width="2" height="2" fill="#1a1a2e"/><rect x="22" y="18" width="2" height="2" fill="#d98a5a"/><rect x="24" y="18" width="2" height="2" fill="#d98a5a"/><rect x="12" y="20" width="2" height="2" fill="#c0693a"/><rect x="14" y="20" width="2" height="2" fill="#c0693a"/><rect x="16" y="20" width="2" height="2" fill="#c0693a"/><rect x="18" y="20" width="2" height="2" fill="#c0693a"/><rect x="20" y="20" width="2" height="2" fill="#c0693a"/><rect x="22" y="20" width="2" height="2" fill="#c0693a"/><rect x="12" y="22" width="2" height="2" fill="#c0693a"/><rect x="14" y="22" width="2" height="2" fill="#c0693a"/><rect x="16" y="22" width="2" height="2" fill="#8f4a26"/><rect x="18" y="22" width="2" height="2" fill="#8f4a26"/><rect x="20" y="22" width="2" height="2" fill="#c0693a"/><rect x="22" y="22" width="2" height="2" fill="#c0693a"/><rect x="12" y="24" width="2" height="2" fill="#8f4a26"/><rect x="14" y="24" width="2" height="2" fill="#8f4a26"/><rect x="16" y="24" width="2" height="2" fill="#8f4a26"/><rect x="18" y="24" width="2" height="2" fill="#8f4a26"/><rect x="20" y="24" width="2" height="2" fill="#8f4a26"/><rect x="22" y="24" width="2" height="2" fill="#8f4a26"/><rect x="12" y="26" width="2" height="2" fill="#8f4a26"/><rect x="14" y="26" width="2" height="2" fill="#8f4a26"/><rect x="16" y="26" width="2" height="2" fill="#8f4a26"/><rect x="18" y="26" width="2" height="2" fill="#8f4a26"/><rect x="20" y="26" width="2" height="2" fill="#8f4a26"/><rect x="22" y="26" width="2" height="2" fill="#8f4a26"/><rect x="20" y="28" width="2" height="2" fill="#8f4a26"/><rect x="14" y="30" width="2" height="2" fill="#8f4a26"/></svg>