<svg xmlns="http://www.w3.org/2000/svg" viewBox="0 0 60 84" width="60" height="84"><rect x="48" y="60" width="3" height="3" fill="#132a16"/><rect x="21" y="51" width="3" height="3" fill="#132a16"/><rect x="9" y="39" width="3" height="3" fill="#132a16"/><rect x="24" y="27" width="3" height="3" fill="#132a16"/><rect x="33" y="42" width="3" height="3" fill="#132a16"/><rect x="6" y="33" width="3" height="3" fill="#132a16"/><rect x="39" y="51" width="3" height="3" fill="#132a16"/><rect x="45" y="69" width="3" height="3" fill="#132a16"/><rect x="24" y="6" width="3" height="3" fill="#132a16"/><rect x="24" y="33" width="3" height="3" fill="#132a16"/><rect x="12" y="69" width="3" height="3" fill="#132a16"/><rect x="33" y="48" width="3" height="3" fill="#132a16"/><rect x="18" y="12" width="3" height="3" fill="#132a16"/><rect x="48" y="18" width="3" height="3" fill="#132a16"/><rect x="21" y="9" width="3" height="3" fill="#132a16"/><rect x="18" y="39" width="3" height="3" fill="#132a16"/><rect x="45" y="75" width="3" height="3" fill="#132a16"/><rect x="51" y="21" width="3" height="3" fill="#132a16"/><rect x="33" y="0" width="3" height="3" fill="#132a16"/><rect x="33" y="27" width="3" height="3" fill="#132a16"/><rect x="12" y="75" width="3" height="3" fill="#132a16"/><rect x="39" y="36" width="3" height="3" fill="#132a16"/><rect x="18" y="18" width="3" height="3" fill="#132a16"/><rect x="45" y="54" width="3" height="3" fill="#132a16"/><rect x="42" y="3" width="3" height="3" fill="#132a16"/><rect x="15" y="21" width="3" height="3" fill="#132a16"/><rect x="51" y="27" width="3" height="3" fill="#132a16"/><rect x="9" y="57" width="3" height="3" fill="#132a16"/><rect x="12" y="54" width="3" height="3" fill="#132a16"/><rect x="12" y="81" width="3" height="3" fill="#132a16"/><rect x="48" y="57" width="3" height="3" fill="#132a16"/><rect x="36" y="18" width="3" height="3" fill="#132a16"/><rect x="42" y="9" width="3" height="3" fill="#132a16"/><rect x="42" y="36" width="3" height="3" fill="#132a16"/><rect x="51" y="33" width="3" height="3" fill="#132a16"/><rect x="9" y="63" width="3" height="3" fill="#132a16"/><rect x="15" y="54" width="3" height="3" fill="#132a16"/><rect x="48" y="36" width="3" height="3" fill="#132a16"/><rect x="48" y="63" width="3" height="3" fill="#132a16"/><rect x="42" y="15" width="3" height="3" fill="#132a16"/><rect x="27" y="0" width="3" height="3" fill="#132a16"/><rect x="36" y="51" width="3" height="3" fill="#132a16"/><rect x="12" y="39" width="3" height="3" fill="#132a16"/><rect x="27" y="27" width="3" height="3" fill="#132a16"/><rect x="12" y="66" width="3" height="3" fill="#132a16"/><rect x="39" y="0" width="3" height="3" fill="#132a16"/><rect x="24" y="39" width="3" height="3" fill="#132a16"/><rect x="45" y="18" width="3" height="3" fill="#132a16"/><rect x="45" y="81" width="3" height="3" fill="#132a16"/><rect x="9" y="21" width="3" height="3" fill="#132a16"/><rect x="15" y="39" width="3" height="3" fill="#132a16"/><rect x="12" y="72" width="3" height="3" fill="#132a16"/><rect x="24" y="45" width="3" height="3" fill="#132a16"/><rect x="33" y="33" width="3" height="3" fill="#132a16"/><rect x="6" y="24" width="3" height="3" fill="#132a16"/><rect x="18" y="51" width="3" height="3" fill="#132a16"/><rect x="36" y="36" width="3" height="3" fill="#132a16"/><rect x="42" y="54" width="3" height="3" fill="#132a16"/><rect x="12" y="78" width="3" height="3" fill="#132a16"/><rect x="24" y="51" width="3" height="3" fill="#132a16"/><rect x="33" y="39" width="3" height="3" fill="#132a16"/><rect x="6" y="30" width="3" height="3" fill="#132a16"/><rect x="45" y="66" width="3" height="3" fill="#132a16"/><rect x="42" y="6" width="3" height="3" fill="#132a16"/><rect x="24" y="3" width="3" height="3" fill="#132a16"/><rect x="24" y="30" width="3" height="3" fill="#132a16"/><rect x="33" y="45" width="3" height="3" fill="#132a16"/><rect x="6" y="36" width="3" height="3" fill="#132a16"/><rect x="45" y="72" width="3" height="3" fill="#132a16"/><rect x="42" y="12" width="3" height="3" fill="#132a16"/><rect x="24" y="9" width="3" height="3" fill="#132a16"/><rect x="30" y="0" width="3" height="3" fill="#132a16"/><rect x="24" y="36" width="3" height="3" fill="#132a16"/><rect x="30" y="27" width="3" height="3" fill="#132a16"/><rect x="33" y="51" width="3" height="3" fill="#132a16"/><rect x="18" y="15" width="3" height="3" fill="#132a16"/><rect x="36" y="0" width="3" height="3" fill="#132a16"/><rect x="21" y="39" width="3" height="3" fill="#132a16"/><rect x="45" y="78" width="3" height="3" fill="#132a16"/><rect x="42" y="18" width="3" height="3" fill="#132a16"/><rect x="51" y="24" width="3" height="3" fill="#132a16"/><rect x="24" y="42" width="3" height="3" fill="#132a16"/><rect x="33" y="30" width="3" height="3" fill="#132a16"/><rect x="18" y="21" width="3" height="3" fill="#132a16"/><rect x="12" y="21" width="3" height="3" fill="#132a16"/><rect x="51" y="30" width="3" height="3" fill="#132a16"/><rect x="9" y="60" width="3" height="3" fill="#132a16"/><rect x="24" y="48" width="3" height="3" fill="#132a16"/><rect x="33" y="36" width="3" height="3" fill="#132a16"/><rect x="6" y="27" width="3" height="3" fill="#132a16"/><rect x="39" y="18" width="3" height="3" fill="#132a16"/><rect x="45" y="36" width="3" height="3" fill="#132a16"/><rect x="27" y="3" width="3" height="3" fill="#63bf5f"/><rect x="30" y="3" width="3" height="3" fill="#3f8f4a"/><rect x="33" y="3" width="3" height="3" fill="#3f8f4a"/><rect x="36" y="3" width="3" height="3" fill="#3f8f4a"/><rect x="39" y="3" width="3" height="3" fill="#3f8f4a"/><rect x="27" y="6" width="3" height="3" fill="#3f8f4a"/><rect x="30" y="6" width="3" height="3" fill="#3f8f4a"/><rect x="33" y="6" width="3" height="3" fill="#3f8f4a"/><rect x="36" y="6" width="3" height="3" fill="#3f8f4a"/><rect x="39" y="6" width="3" height="3" fill="#3f8f4a"/><rect x="27" y="9" width="3" height="3" fill="#3f8f4a"/><rect x="30" y="9" width="3" height="3" fill="#3f8f4a"/><rect x="33" y="9" width="3" height="3" fill="#2a6b35"/><rect x="36" y="9" width="3" height="3" fill="#3f8f4a"/><rect x="39" y="9" width="3" height="3" fill="#3f8f4a"/><rect x="21" y="12" width="3" height="3" fill="#63bf5f"/><rect x="24" y="12" width="3" height="3" fill="#3f8f4a"/><rect x="27" y="12" width="3" height="3" fill="#3f8f4a"/><rect x="30" y="12" width="3" height="3" fill="#3f8f4a"/><rect x="33" y="12" width="3" height="3" fill="#3f8f4a"/><rect x="36" y="12" width="3" height="3" fill="#3f8f4a"/><rect x="39" y="12" width="3" height="3" fill="#3f8f4a"/><rect x="21" y="15" width="3" height="3" fill="#3f8f4a"/><rect x="24" y="15" width="3" height="3" fill="#3f8f4a"/><rect x="27" y="15" width="3" height="3" fill="#3f8f4a"/><rect x="30" y="15" width="3" height="3" fill="#3f8f4a"/><rect x="33" y="15" width="3" height="3" fill="#3f8f4a"/><rect x="36" y="15" width="3" height="3" fill="#3f8f4a"/><rect x="39" y="15" width="3" height="3" fill="#2a6b35"/><rect x="21" y="18" width="3" height="3" fill="#3f8f4a"/><rect x="24" y="18" width="3" height="3" fill="#3f8f4a"/><rect x="27" y="18" width="3" height="3" fill="#2a6b35"/><rect x="30" y="18" width="3" height="3" fill="#3f8f4a"/><rect x="33" y="18" width="3" height="3" fill="#3f8f4a"/><rect x="21" y="21" width="3" height="3" fill="#3f8f4a"/><rect x="24" y="21" width="3" height="3" fill="#3f8f4a"/><rect x="27" y="21" width="3" height="3" fill="#3f8f4a"/><rect x="30" y="21" width="3" height="3" fill="#3f8f4a"/><rect x="33" y="21" width="3" height="3" fill="#3f8f4a"/><rect x="36" y="21" width="3" height="3" fill="#63bf5f"/><rect x="39" y="21" width="3" height="3" fill="#3f8f4a"/><rect x="42" y="21" width="3" height="3" fill="#3f8f4a"/><rect x="45" y="21" width="3" height="3" fill="#3f8f4a"/><rect x="48" y="21" width="3" height="3" fill="#3f8f4a"/><rect x="9" y="24" width="3" height="3" fill="#63bf5f"/><rect x="12" y="24" width="3" height="3" fill="#3f8f4a"/><rect x="15" y="24" width="3" height="3" fill="#3f8f4a"/><rect x="18" y="24" width="3" height="3" fill="#3f8f4a"/><rect x="21" y="24" width="3" height="3" fill="#3f8f4a"/><rect x="24" y="24" width="3" height="3" fill="#3f8f4a"/><rect x="27" y="24" width="3" height="3" fill="#3f8f4a"/><rect x="30" y="24" width="3" height="3" fill="#3f8f4a"/><rect x="33" y="24" width="3" height="3" fill="#2a6b35"/><rect x="36" y="24" width="3" height="3" fill="#3f8f4a"/><rect x="39" y="24" width="3" height="3" fill="#3f8f4a"/><rect x="42" y="24" width="3" height="3" fill="#3f8f4a"/><rect x="45" y="24" width="3" height="3" fill="#3f8f4a"/><rect x="48" y="24" width="3" height="3" fill="#3f8f4a"/><rect x="9" y="27" width="3" height="3" fill="#3f8f4a"/><rect x="12" y="27" width="3" height="3" fill="#3f8f4a"/><rect x="15" y="27" width="3" height="3" fill="#3f8f4a"/><rect x="18" y="27" width="3" height="3" fill="#3f8f4a"/><rect x="21" y="27" width="3" height="3" fill="#3f8f4a"/><rect x="36" y="27" width="3" height="3" fill="#3f8f4a"/><rect x="39" y="27" width="3" height="3" fill="#3f8f4a"/><rect x="42" y="27" width="3" height="3" fill="#2a6b35"/><rect x="45" y="27" width="3" height="3" fill="#3f8f4a"/><rect x="48" y="27" width="3" height="3" fill="#3f8f4a"/><rect x="9" y="30" width="3" height="3" fill="#3f8f4a"/><rect x="12" y="30" width="3" height="3" fill="#3f8f4a"/><rect x="15" y="30" width="3" height="3" fill="#2a6b35"/><rect x="18" y="30" width="3" height="3" fill="#3f8f4a"/><rect x="21" y="30" width="3" height="3" fill="#3f8f4a"/><rect x="27" y="30" width="3" height="3" fill="#6b4a2a"/><rect x="30" y="30" width="3" height="3" fill="#6b4a2a"/><rect x="36" y="30" width="3" height="3" fill="#3f8f4a"/><rect x="39" y="30" width="3" height="3" fill="#3f8f4a"/><rect x="42" y="30" width="3" height="3" fill="#3f8f4a"/><rect x="45" y="30" width="3" height="3" fill="#3f8f4a"/><rect x="48" y="30" width="3" height="3" fill="#3f8f4a"/><rect x="9" y="33" width="3" height="3" fill="#3f8f4a"/><rect x="12" y="33" width="3" height="3" fill="#3f8f4a"/><rect x="15" y="33" width="3" height="3" fill="#3f8f4a"/><rect x="18" y="33" width="3" height="3" fill="#3f8f4a"/><rect x="21" y="33" width="3" height="3" fill="#3f8f4a"/><rect x="27" y="33" width="3" height="3" fill="#6b4a2a"/><rect x="30" y="33" width="3" height="3" fill="#6b4a2a"/><rect x="36" y="33" width="3" height="3" fill="#3f8f4a"/><rect x="39" y="33" width="3" height="3" fill="#3f8f4a"/><rect x="42" y="33" width="3" height="3" fill="#3f8f4a"/><rect x="45" y="33" width="3" height="3" fill="#3f8f4a"/><rect x="48" y="33" width="3" height="3" fill="#2a6b35"/><rect x="9" y="36" width="3" height="3" fill="#3f8f4a"/><rect x="12" y="36" width="3" height="3" fill="#3f8f4a"/><rect x="15" y="36" width="3" height="3" fill="#3f8f4a"/><rect x="18" y="36" width="3" height="3" fill="#3f8f4a"/><rect x="21" y="36" width="3" height="3" fill="#2a6b35"/><rect x="27" y="36" width="3" height="3" fill="#6b4a2a"/><rect x="30" y="36" width="3" height="3" fill="#6b4a2a"/><rect x="27" y="39" width="3" height="3" fill="#6b4a2a"/><rect x="30" y="39" width="3" height="3" fill="#6b4a2a"/><rect x="27" y="42" width="3" height="3" fill="#6b4a2a"/><rect x="30" y="42" width="3" height="3" fill="#6b4a2a"/><rect x="27" y="45" width="3" height="3" fill="#6b4a2a"/><rect x="30" y="45" width="3" height="3" fill="#6b4a2a"/><rect x="27" y="48" width="3" height="3" fill="#6b4a2a"/><rect x="30" y="48" width="3" height="3" fill="#6b4a2a"/><rect x="27" y="51" width="3" height="3" fill="#6b4a2a"/><rect x="30" y="51" width="3" height="3" fill="#6b4a2a"/><rect x="18" y="54" width="3" height="3" fill="#4a3320"/><rect x="21" y="54" width="3" height="3" fill="#4a3320"/><rect x="24" y="54" width="3" height="3" fill="#4a3320"/><rect x="27" y="54" width="3" height="3" fill="#6b4a2a"/><rect x="30" y="54" width="3" height="3" fill="#6b4a2a"/><rect x="33" y="54" width="3" height="3" fill="#4a3320"/><rect x="36" y="54" width="3" height="3" fill="#4a3320"/><rect x="39" y="54" width="3" height="3" fill="#4a3320"/><rect x="12" y="57" width="3" height="3" fill="#d98a5a"/><rect x="15" y="57" width="3" height="3" fill="#d98a5a"/><rect x="18" y="57" width="3" height="3" fill="#4a3320"/><rect x="21" y="57" width="3" height="3" fill="#4a3320"/><rect x="24" y="57" width="3" height="3" fill="#4a3320"/><rect x="27" y="57" width="3" height="3" fill="#6b4a2a"/><rect x="30" y="57" width="3" height="3" fill="#6b4a2a"/><rect x="33" y="57" width="3" height="3" fill="#4a3320"/><rect x="36" y="57" width="3" height="3" fill="#4a3320"/><rect x="39" y="57" width="3" height="3" fill="#4a3320"/><rect x="42" y="57" width="3" height="3" fill="#d98a5a"/><rect x="45" y="57" width="3" height="3" fill="#d98a5a"/><rect x="12" y="60" width="3" height="3" fill="#d98a5a"/><rect x="15" y="60" width="3" height="3" fill="#d98a5a"/><rect x="18" y="60" width="3" height="3" fill="#4a3320"/><rect x="21" y="60" width="3" height="3" fill="#4a3320"/><rect x="24" y="60" width="3" height="3" fill="#4a3320"/><rect x="27" y="60" width="3" height="3" fill="#4a3320"/><rect x="30" y="60" width="3" height="3" fill="#4a3320"/><rect x="33" y="60" width="3" height="3" fill="#4a3320"/><rect x="36" y="60" width="3" height="3" fill="#4a3320"/><rect x="39" y="60" width="3" height="3" fill="#4a3320"/><rect x="42" y="60" width="3" height="3" fill="#d98a5a"/><rect x="45" y="60" width="3" height="3" fill="#d98a5a"/><rect x="12" y="63" width="3" height="3" fill="#d98a5a"/><rect x="15" y="63" width="3" height="3" fill="#d98a5a"/><rect x="18" y="63" width="3" height="3" fill="#d98a5a"/><rect x="21" y="63" width="3" height="3" fill="#d98a5a"/><rect x="24" y="63" width="3" height="3" fill="#d98a5a"/><rect x="27" y="63" width="3" height="3" fill="#d98a5a"/><rect x="30" y="63" width="3" height="3" fill="#d98a5a"/><rect x="33" y="63" width="3" height="3" fill="#d98a5a"/><rect x="36" y="63" width="3" height="3" fill="#d98a5a"/><rect x="39" y="63" width="3" height="3" fill="#d98a5a"/><rect x="42" y="63" width="3" height="3" fill="#d98a5a"/><rect x="45" y="63" width="3" height="3" fill="#d98a5a"/><rect x="15" y="66" width="3" height="3" fill="#c0693a"/><rect x="18" y="66" width="3" height="3" fill="#c0693a"/><rect x="21" y="66" width="3" height="3" fill="#c0693a"/><rect x="24" y="66" width="3" height="3" fill="#c0693a"/><rect x="27" y="66" width="3" height="3" fill="#c0693a"/><rect x="30" y="66" width="3" height="3" fill="#c0693a"/><rect x="33" y="66" width="3" height="3" fill="#c0693a"/><rect x="36" y="66" width="3" height="3" fill="#c0693a"/><rect x="39" y="66" width="3" height="3" fill="#c0693a"/><rect x="42" y="66" width="3" height="3" fill="#c0693a"/><rect x="15" y="69" width="3" height="3" fill="#c0693a"/><rect x="18" y="69" width="3" height="3" fill="#c0693a"/><rect x="21" y="69" width="3" height="3" fill="#c0693a"/><rect x="24" y="69" width="3" height="3" fill="#c0693a"/><rect x="27" y="69" width="3" height="3" fill="#c0693a"/><rect x="30" y="69" width="3" height="3" fill="#c0693a"/><rect x="33" y="69" width="3" height="3" fill="#c0693a"/><rect x="36" y="69" width="3" height="3" fill="#c0693a"/><rect x="39" y="69" width="3" height="3" fill="#c0693a"/><rect x="42" y="69" width="3" height="3" fill="#c0693a"/><rect x="15" y="72" width="3" height="3" fill="#c0693a"/><rect x="18" y="72" width="3" height="3" fill="#c0693a"/><rect x="21" y="72" width="3" height="3" fill="#c0693a"/><rect x="24" y="72" width="3" height="3" fill="#c0693a"/><rect x="27" y="72" width="3" height="3" fill="#c0693a"/><rect x="30" y="72" width="3" height="3" fill="#c0693a"/><rect x="33" y="72" width="3" height="3" fill="#c0693a"/><rect x="36" y="72" width="3" height="3" fill="#c0693a"/><rect x="39" y="72" width="3" height="3" fill="#c0693a"/><rect x="42" y="72" width="3" height="3" fill="#c0693a"/><rect x="15" y="75" width="3" height="3" fill="#8f4a26"/><rect x="18" y="75" width="3" height="3" fill="#8f4a26"/><rect x="21" y="75" width="3" height="3" fill="#8f4a26"/><rect x="24" y="75" width="3" height="3" fill="#8f4a26"/><rect x="27" y="75" width="3" height="3" fill="#8f4a26"/><rect x="30" y="75" width="3" height="3" fill="#8f4a26"/><rect x="33" y="75" width="3" height="3" fill="#8f4a26"/><rect x="36" y="75" width="3" height="3" fill="#8f4a26"/><rect x="39" y="75" width="3" height="3" fill="#8f4a26"/><rect x="42" y="75" width="3" height="3" fill="#8f4a26"/><rect x="15" y="78" width="3" height="3" fill="#8f4a26"/><rect x="18" y="78" width="3" height="3" fill="#8f4a26"/><rect x="21" y="78" width="3" height="3" fill="#8f4a26"/><rect x="24" y="78" width="3" height="3" fill="#8f4a26"/><rect x="27" y="78" width="3" height="3" fill="#8f4a26"/><rect x="30" y="78" width="3" height="3" fill="#8f4a26"/><rect x="33" y="78" width="3" height="3" fill="#8f4a26"/><rect x="36" y="78" width="3" height="3" fill="#8f4a26"/><rect x="39" y="78" width="3" height="3" fill="#8f4a26"/><rect x="42" y="78" width="3" height="3" fill="#8f4a26"/><rect x="15" y="81" width="3" height="3" fill="#8f4a26"/><rect x="18" y="81" width="3" height="3" fill="#8f4a26"/><rect x="21" y="81" width="3" height="3" fill="#8f4a26"/><rect x="24" y="81" width="3" height="3" fill="#8f4a26"/><rect x="27" y="81" width="3" height="3" fill="#8f4a26"/><rect x="30" y="81" width="3" height="3" fill="#8f4a26"/><rect x="33" y="81" width="3" height="3" fill="#8f4a26"/><rect x="36" y="81" width="3" height="3" fill="#8f4a26"/><rect x="39" y="81" width="3" height="3" fill="#8f4a26"/><rect x="42" y="81" width="3" height="3" fill="#8f4a26"/></svg>