<svg xmlns="http://www.w3.org/2000/svg" viewBox="0 0 20 24" width="20" height="24"><rect x="8" y="2" width="2" height="2" fill="#7a5326"/><rect x="10" y="2" width="2" height="2" fill="#7a5326"/><rect x="8" y="4" width="2" height="2" fill="#7a5326"/><rect x="10" y="4" width="2" height="2" fill="#7a5326"/><rect x="4" y="6" width="2" height="2" fill="#84a552"/><rect x="8" y="6" width="2" height="2" fill="#7a5326"/><rect x="10" y="6" width="2" height="2" fill="#7a5326"/><rect x="12" y="6" width="2" height="2" fill="#84a552"/><rect x="16" y="6" width="2" height="2" fill="#84a552"/><rect x="4" y="8" width="2" height="2" fill="#5a7a3a"/><rect x="8" y="8" width="2" height="2" fill="#7a5326"/><rect x="10" y="8" width="2" height="2" fill="#7a5326"/><rect x="12" y="8" width="2" height="2" fill="#5a7a3a"/><rect x="16" y="8" width="2" height="2" fill="#5a7a3a"/><rect x="4" y="10" width="2" height="2" fill="#5a7a3a"/><rect x="8" y="10" width="2" height="2" fill="#5a7a3a"/><rect x="12" y="10" width="2" height="2" fill="#5a7a3a"/><rect x="16" y="10" width="2" height="2" fill="#5a7a3a"/><rect x="4" y="12" width="2" height="2" fill="#5a7a3a"/><rect x="8" y="12" width="2" height="2" fill="#5a7a3a"/><rect x="12" y="12" width="2" height="2" fill="#5a7a3a"/><rect x="16" y="12" width="2" height="2" fill="#5a7a3a"/><rect x="4" y="14" width="2" height="2" fill="#5a7a3a"/><rect x="8" y="14" width="2" height="2" fill="#5a7a3a"/><rect x="12" y="14" width="2" height="2" fill="#5a7a3a"/><rect x="16" y="14" width="2" height="2" fill="#5a7a3a"/><rect x="4" y="16" width="2" height="2" fill="#5a7a3a"/><rect x="8" y="16" width="2" height="2" fill="#5a7a3a"/><rect x="12" y="16" width="2" height="2" fill="#5a7a3a"/><rect x="16" y="16" width="2" height="2" fill="#5a7a3a"/><rect x="4" y="18" width="2" height="2" fill="#5a7a3a"/><rect x="8" y="18" width="2" height="2" fill="#5a7a3a"/><rect x="12" y="18" width="2" height="2" fill="#5a7a3a"/><rect x="16" y="18" width="2" height="2" fill="#5a7a3a"/><rect x="4" y="20" width="2" height="2" fill="#5a7a3a"/><rect x="8" y="20" width="2" height="2" fill="#5a7a3a"/><rect x="12" y="20" width="2" height="2" fill="#5a7a3a"/><rect x="16" y="20" width="2" height="2" fill="#5a7a3a"/><rect x="4" y="22" width="2" height="2" fill="#5a7a3a"/><rect x="8" y="22" width="2" height="2" fill="#5a7a3a"/><rect x="12" y="22" width="2" height="2" fill="#5a7a3a"/><rect x="16" y="22" width="2" height="2" fill="#5a7a3a"/></svg>