<svg xmlns="http://www.w3.org/2000/svg" viewBox="0 0 12 6" width="12" height="6"><rect x="2" y="4" width="2" height="2" fill="#14141f"/><rect x="8" y="0" width="2" height="2" fill="#14141f"/><rect x="0" y="0" width="2" height="2" fill="#14141f"/><rect x="4" y="0" width="2" height="2" fill="#14141f"/><rect x="10" y="2" width="2" height="2" fill="#14141f"/><rect x="8" y="4" width="2" height="2" fill="#14141f"/><rect x="6" y="0" width="2" height="2" fill="#14141f"/><rect x="0" y="4" width="2" height="2" fill="#14141f"/><rect x="4" y="4" width="2" height="2" fill="#14141f"/><rect x="2" y="0" width="2" height="2" fill="#14141f"/><rect x="6" y="4" width="2" height="2" fill="#14141f"/><rect x="10" y="0" width="2" height="2" fill="#84a552"/><rect x="0" y="2" width="2" height="2" fill="#c8d84a"/><rect x="2" y="2" width="2" height="2" fill="#3e5626"/><rect x="4" y="2" width="2" height="2" fill="#3e5626"/><rect x="6" y="2" width="2" height="2" fill="#3e5626"/><rect x="8" y="2" width="2" height="2" fill="#3e5626"/><rect x="10" y="4" width="2" height="2" fill="#84a552"/></svg>