<svg xmlns="http://www.w3.org/2000/svg" viewBox="0 0 20 20" width="20" height="20"><rect x="4" y="6" width="2" height="2" fill="#5fd090"/><rect x="8" y="6" width="2" height="2" fill="#5fd090"/><rect x="12" y="6" width="2" height="2" fill="#5fd090"/><rect x="16" y="6" width="2" height="2" fill="#5fd090"/><rect x="4" y="8" width="2" height="2" fill="#2f9e6a"/><rect x="8" y="8" width="2" height="2" fill="#2f9e6a"/><rect x="12" y="8" width="2" height="2" fill="#2f9e6a"/><rect x="14" y="8" width="2" height="2" fill="#5fd090"/><rect x="16" y="8" width="2" height="2" fill="#2f9e6a"/><rect x="4" y="10" width="2" height="2" fill="#2f9e6a"/><rect x="6" y="10" width="2" height="2" fill="#5fd090"/><rect x="8" y="10" width="2" height="2" fill="#2f9e6a"/><rect x="12" y="10" width="2" height="2" fill="#2f9e6a"/><rect x="16" y="10" width="2" height="2" fill="#2f9e6a"/><rect x="4" y="12" width="2" height="2" fill="#2f9e6a"/><rect x="8" y="12" width="2" height="2" fill="#2f9e6a"/><rect x="12" y="12" width="2" height="2" fill="#2f9e6a"/><rect x="16" y="12" width="2" height="2" fill="#2f9e6a"/><rect x="4" y="14" width="2" height="2" fill="#2f9e6a"/><rect x="8" y="14" width="2" height="2" fill="#2f9e6a"/><rect x="12" y="14" width="2" height="2" fill="#2f9e6a"/><rect x="16" y="14" width="2" height="2" fill="#2f9e6a"/><rect x="4" y="16" width="2" height="2" fill="#2f9e6a"/><rect x="8" y="16" width="2" height="2" fill="#2f9e6a"/><rect x="12" y="16" width="2" height="2" fill="#2f9e6a"/><rect x="16" y="16" width="2" height="2" fill="#2f9e6a"/><rect x="4" y="18" width="2" height="2" fill="#2f9e6a"/><rect x="8" y="18" width="2" height="2" fill="#2f9e6a"/><rect x="12" y="18" width="2" height="2" fill="#2f9e6a"/><rect x="16" y="18" width="2" height="2" fill="#2f9e6a"/></svg>