<svg xmlns="http://www.w3.org/2000/svg" viewBox="0 0 20 20" width="20" height="20"><rect x="10" y="2" width="2" height="2" fill="#132a16"/><rect x="4" y="16" width="2" height="2" fill="#132a16"/><rect x="12" y="4" width="2" height="2" fill="#132a16"/><rect x="14" y="14" width="2" height="2" fill="#132a16"/><rect x="6" y="6" width="2" height="2" fill="#132a16"/><rect x="16" y="10" width="2" height="2" fill="#132a16"/><rect x="4" y="14" width="2" height="2" fill="#132a16"/><rect x="2" y="10" width="2" height="2" fill="#132a16"/><rect x="14" y="6" width="2" height="2" fill="#132a16"/><rect x="14" y="18" width="2" height="2" fill="#132a16"/><rect x="14" y="12" width="2" height="2" fill="#132a16"/><rect x="6" y="4" width="2" height="2" fill="#132a16"/><rect x="8" y="2" width="2" height="2" fill="#132a16"/><rect x="16" y="8" width="2" height="2" fill="#132a16"/><rect x="2" y="8" width="2" height="2" fill="#132a16"/><rect x="4" y="6" width="2" height="2" fill="#132a16"/><rect x="4" y="18" width="2" height="2" fill="#132a16"/><rect x="4" y="12" width="2" height="2" fill="#132a16"/><rect x="12" y="6" width="2" height="2" fill="#132a16"/><rect x="14" y="16" width="2" height="2" fill="#132a16"/><rect x="8" y="4" width="2" height="2" fill="#63bf5f"/><rect x="10" y="4" width="2" height="2" fill="#3f8f4a"/><rect x="8" y="6" width="2" height="2" fill="#3f8f4a"/><rect x="10" y="6" width="2" height="2" fill="#a8f0a0"/><rect x="4" y="8" width="2" height="2" fill="#63bf5f"/><rect x="6" y="8" width="2" height="2" fill="#3f8f4a"/><rect x="8" y="8" width="2" height="2" fill="#3f8f4a"/><rect x="10" y="8" width="2" height="2" fill="#3f8f4a"/><rect x="12" y="8" width="2" height="2" fill="#3f8f4a"/><rect x="14" y="8" width="2" height="2" fill="#2a6b35"/><rect x="4" y="10" width="2" height="2" fill="#3f8f4a"/><rect x="6" y="10" width="2" height="2" fill="#3f8f4a"/><rect x="8" y="10" width="2" height="2" fill="#3f8f4a"/><rect x="10" y="10" width="2" height="2" fill="#3f8f4a"/><rect x="12" y="10" width="2" height="2" fill="#3f8f4a"/><rect x="14" y="10" width="2" height="2" fill="#3f8f4a"/><rect x="6" y="12" width="2" height="2" fill="#d98a5a"/><rect x="8" y="12" width="2" height="2" fill="#3f8f4a"/><rect x="10" y="12" width="2" height="2" fill="#3f8f4a"/><rect x="12" y="12" width="2" height="2" fill="#d98a5a"/><rect x="6" y="14" width="2" height="2" fill="#c0693a"/><rect x="8" y="14" width="2" height="2" fill="#c0693a"/><rect x="10" y="14" width="2" height="2" fill="#c0693a"/><rect x="12" y="14" width="2" height="2" fill="#c0693a"/><rect x="6" y="16" width="2" height="2" fill="#c0693a"/><rect x="8" y="16" width="2" height="2" fill="#c0693a"/><rect x="10" y="16" width="2" height="2" fill="#c0693a"/><rect x="12" y="16" width="2" height="2" fill="#c0693a"/><rect x="6" y="18" width="2" height="2" fill="#c0693a"/><rect x="8" y="18" width="2" height="2" fill="#c0693a"/><rect x="10" y="18" width="2" height="2" fill="#c0693a"/><rect x="12" y="18" width="2" height="2" fill="#c0693a"/></svg>