<svg xmlns="http://www.w3.org/2000/svg" viewBox="0 0 24 12" width="24" height="12"><rect x="4" y="4" width="2" height="2" fill="#ffffff"/><rect x="6" y="4" width="2" height="2" fill="#ffffff"/><rect x="8" y="4" width="2" height="2" fill="#ffffff"/><rect x="10" y="4" width="2" height="2" fill="#ffffff"/><rect x="12" y="4" width="2" height="2" fill="#ffffff"/><rect x="14" y="4" width="2" height="2" fill="#ffffff"/><rect x="16" y="4" width="2" height="2" fill="#ffffff"/><rect x="2" y="6" width="2" height="2" fill="#eef4fb"/><rect x="4" y="6" width="2" height="2" fill="#ffffff"/><rect x="6" y="6" width="2" height="2" fill="#ffffff"/><rect x="8" y="6" width="2" height="2" fill="#ffffff"/><rect x="10" y="6" width="2" height="2" fill="#ffffff"/><rect x="12" y="6" width="2" height="2" fill="#ffffff"/><rect x="14" y="6" width="2" height="2" fill="#ffffff"/><rect x="16" y="6" width="2" height="2" fill="#ffffff"/><rect x="18" y="6" width="2" height="2" fill="#eef4fb"/><rect x="20" y="6" width="2" height="2" fill="#eef4fb"/><rect x="2" y="8" width="2" height="2" fill="#eef4fb"/><rect x="4" y="8" width="2" height="2" fill="#eef4fb"/><rect x="6" y="8" width="2" height="2" fill="#eef4fb"/><rect x="8" y="8" width="2" height="2" fill="#dbe4f0"/><rect x="10" y="8" width="2" height="2" fill="#eef4fb"/><rect x="12" y="8" width="2" height="2" fill="#eef4fb"/><rect x="14" y="8" width="2" height="2" fill="#eef4fb"/><rect x="16" y="8" width="2" height="2" fill="#ffffff"/><rect x="18" y="8" width="2" height="2" fill="#eef4fb"/><rect x="20" y="8" width="2" height="2" fill="#eef4fb"/><rect x="2" y="10" width="2" height="2" fill="#cdd8e6"/><rect x="4" y="10" width="2" height="2" fill="#cdd8e6"/><rect x="6" y="10" width="2" height="2" fill="#cdd8e6"/><rect x="8" y="10" width="2" height="2" fill="#cdd8e6"/><rect x="10" y="10" width="2" height="2" fill="#cdd8e6"/><rect x="12" y="10" width="2" height="2" fill="#cdd8e6"/><rect x="14" y="10" width="2" height="2" fill="#cdd8e6"/><rect x="16" y="10" width="2" height="2" fill="#cdd8e6"/><rect x="18" y="10" width="2" height="2" fill="#cdd8e6"/><rect x="20" y="10" width="2" height="2" fill="#cdd8e6"/></svg>