<svg xmlns="http://www.w3.org/2000/svg" viewBox="0 0 78 48" width="78" height="48"><rect x="36" y="3" width="3" height="3" fill="#20293a"/><rect x="69" y="3" width="3" height="3" fill="#20293a"/><rect x="9" y="3" width="3" height="3" fill="#20293a"/><rect x="42" y="3" width="3" height="3" fill="#20293a"/><rect x="15" y="3" width="3" height="3" fill="#20293a"/><rect x="0" y="6" width="3" height="3" fill="#20293a"/><rect x="75" y="12" width="3" height="3" fill="#20293a"/><rect x="48" y="3" width="3" height="3" fill="#20293a"/><rect x="21" y="3" width="3" height="3" fill="#20293a"/><rect x="54" y="3" width="3" height="3" fill="#20293a"/><rect x="3" y="45" width="3" height="3" fill="#20293a"/><rect x="66" y="3" width="3" height="3" fill="#20293a"/><rect x="60" y="3" width="3" height="3" fill="#20293a"/><rect x="27" y="3" width="3" height="3" fill="#20293a"/><rect x="33" y="3" width="3" height="3" fill="#20293a"/><rect x="0" y="12" width="3" height="3" fill="#20293a"/><rect x="6" y="3" width="3" height="3" fill="#20293a"/><rect x="39" y="3" width="3" height="3" fill="#20293a"/><rect x="72" y="3" width="3" height="3" fill="#20293a"/><rect x="75" y="9" width="3" height="3" fill="#20293a"/><rect x="18" y="3" width="3" height="3" fill="#20293a"/><rect x="45" y="3" width="3" height="3" fill="#20293a"/><rect x="75" y="45" width="3" height="3" fill="#20293a"/><rect x="12" y="3" width="3" height="3" fill="#20293a"/><rect x="51" y="3" width="3" height="3" fill="#20293a"/><rect x="24" y="3" width="3" height="3" fill="#20293a"/><rect x="57" y="3" width="3" height="3" fill="#20293a"/><rect x="3" y="3" width="3" height="3" fill="#20293a"/><rect x="0" y="9" width="3" height="3" fill="#20293a"/><rect x="30" y="3" width="3" height="3" fill="#20293a"/><rect x="75" y="6" width="3" height="3" fill="#20293a"/><rect x="0" y="45" width="3" height="3" fill="#20293a"/><rect x="72" y="45" width="3" height="3" fill="#20293a"/><rect x="63" y="3" width="3" height="3" fill="#20293a"/><rect x="3" y="6" width="3" height="3" fill="#42597a"/><rect x="6" y="6" width="3" height="3" fill="#42597a"/><rect x="9" y="6" width="3" height="3" fill="#42597a"/><rect x="12" y="6" width="3" height="3" fill="#42597a"/><rect x="15" y="6" width="3" height="3" fill="#42597a"/><rect x="18" y="6" width="3" height="3" fill="#42597a"/><rect x="21" y="6" width="3" height="3" fill="#42597a"/><rect x="24" y="6" width="3" height="3" fill="#42597a"/><rect x="27" y="6" width="3" height="3" fill="#42597a"/><rect x="30" y="6" width="3" height="3" fill="#42597a"/><rect x="33" y="6" width="3" height="3" fill="#42597a"/><rect x="36" y="6" width="3" height="3" fill="#42597a"/><rect x="39" y="6" width="3" height="3" fill="#42597a"/><rect x="42" y="6" width="3" height="3" fill="#42597a"/><rect x="45" y="6" width="3" height="3" fill="#42597a"/><rect x="48" y="6" width="3" height="3" fill="#42597a"/><rect x="51" y="6" width="3" height="3" fill="#42597a"/><rect x="54" y="6" width="3" height="3" fill="#42597a"/><rect x="57" y="6" width="3" height="3" fill="#42597a"/><rect x="60" y="6" width="3" height="3" fill="#42597a"/><rect x="63" y="6" width="3" height="3" fill="#42597a"/><rect x="66" y="6" width="3" height="3" fill="#42597a"/><rect x="69" y="6" width="3" height="3" fill="#42597a"/><rect x="72" y="6" width="3" height="3" fill="#42597a"/><rect x="3" y="9" width="3" height="3" fill="#42597a"/><rect x="6" y="9" width="3" height="3" fill="#42597a"/><rect x="9" y="9" width="3" height="3" fill="#42597a"/><rect x="12" y="9" width="3" height="3" fill="#42597a"/><rect x="15" y="9" width="3" height="3" fill="#42597a"/><rect x="18" y="9" width="3" height="3" fill="#42597a"/><rect x="21" y="9" width="3" height="3" fill="#42597a"/><rect x="24" y="9" width="3" height="3" fill="#42597a"/><rect x="27" y="9" width="3" height="3" fill="#42597a"/><rect x="30" y="9" width="3" height="3" fill="#42597a"/><rect x="33" y="9" width="3" height="3" fill="#42597a"/><rect x="36" y="9" width="3" height="3" fill="#42597a"/><rect x="39" y="9" width="3" height="3" fill="#42597a"/><rect x="42" y="9" width="3" height="3" fill="#42597a"/><rect x="45" y="9" width="3" height="3" fill="#42597a"/><rect x="48" y="9" width="3" height="3" fill="#42597a"/><rect x="51" y="9" width="3" height="3" fill="#42597a"/><rect x="54" y="9" width="3" height="3" fill="#42597a"/><rect x="57" y="9" width="3" height="3" fill="#42597a"/><rect x="60" y="9" width="3" height="3" fill="#42597a"/><rect x="63" y="9" width="3" height="3" fill="#42597a"/><rect x="66" y="9" width="3" height="3" fill="#42597a"/><rect x="69" y="9" width="3" height="3" fill="#42597a"/><rect x="72" y="9" width="3" height="3" fill="#42597a"/><rect x="3" y="12" width="3" height="3" fill="#42597a"/><rect x="6" y="12" width="3" height="3" fill="#42597a"/><rect x="9" y="12" width="3" height="3" fill="#42597a"/><rect x="12" y="12" width="3" height="3" fill="#42597a"/><rect x="15" y="12" width="3" height="3" fill="#42597a"/><rect x="18" y="12" width="3" height="3" fill="#42597a"/><rect x="21" y="12" width="3" height="3" fill="#42597a"/><rect x="24" y="12" width="3" height="3" fill="#42597a"/><rect x="27" y="12" width="3" height="3" fill="#42597a"/><rect x="30" y="12" width="3" height="3" fill="#42597a"/><rect x="33" y="12" width="3" height="3" fill="#42597a"/><rect x="36" y="12" width="3" height="3" fill="#42597a"/><rect x="39" y="12" width="3" height="3" fill="#42597a"/><rect x="42" y="12" width="3" height="3" fill="#42597a"/><rect x="45" y="12" width="3" height="3" fill="#42597a"/><rect x="48" y="12" width="3" height="3" fill="#42597a"/><rect x="51" y="12" width="3" height="3" fill="#42597a"/><rect x="54" y="12" width="3" height="3" fill="#42597a"/><rect x="57" y="12" width="3" height="3" fill="#42597a"/><rect x="60" y="12" width="3" height="3" fill="#42597a"/><rect x="63" y="12" width="3" height="3" fill="#42597a"/><rect x="66" y="12" width="3" height="3" fill="#42597a"/><rect x="69" y="12" width="3" height="3" fill="#42597a"/><rect x="72" y="12" width="3" height="3" fill="#42597a"/><rect x="0" y="15" width="3" height="3" fill="#42597a"/><rect x="3" y="15" width="3" height="3" fill="#42597a"/><rect x="6" y="15" width="3" height="3" fill="#42597a"/><rect x="9" y="15" width="3" height="3" fill="#42597a"/><rect x="12" y="15" width="3" height="3" fill="#42597a"/><rect x="15" y="15" width="3" height="3" fill="#42597a"/><rect x="18" y="15" width="3" height="3" fill="#42597a"/><rect x="21" y="15" width="3" height="3" fill="#42597a"/><rect x="24" y="15" width="3" height="3" fill="#42597a"/><rect x="27" y="15" width="3" height="3" fill="#42597a"/><rect x="30" y="15" width="3" height="3" fill="#42597a"/><rect x="33" y="15" width="3" height="3" fill="#42597a"/><rect x="36" y="15" width="3" height="3" fill="#42597a"/><rect x="39" y="15" width="3" height="3" fill="#42597a"/><rect x="42" y="15" width="3" height="3" fill="#42597a"/><rect x="45" y="15" width="3" height="3" fill="#42597a"/><rect x="48" y="15" width="3" height="3" fill="#42597a"/><rect x="51" y="15" width="3" height="3" fill="#42597a"/><rect x="54" y="15" width="3" height="3" fill="#42597a"/><rect x="57" y="15" width="3" height="3" fill="#42597a"/><rect x="60" y="15" width="3" height="3" fill="#42597a"/><rect x="63" y="15" width="3" height="3" fill="#42597a"/><rect x="66" y="15" width="3" height="3" fill="#42597a"/><rect x="69" y="15" width="3" height="3" fill="#42597a"/><rect x="72" y="15" width="3" height="3" fill="#42597a"/><rect x="75" y="15" width="3" height="3" fill="#42597a"/><rect x="0" y="18" width="3" height="3" fill="#42597a"/><rect x="3" y="18" width="3" height="3" fill="#42597a"/><rect x="6" y="18" width="3" height="3" fill="#42597a"/><rect x="9" y="18" width="3" height="3" fill="#42597a"/><rect x="12" y="18" width="3" height="3" fill="#93aed0"/><rect x="15" y="18" width="3" height="3" fill="#93aed0"/><rect x="18" y="18" width="3" height="3" fill="#93aed0"/><rect x="21" y="18" width="3" height="3" fill="#93aed0"/><rect x="24" y="18" width="3" height="3" fill="#93aed0"/><rect x="27" y="18" width="3" height="3" fill="#93aed0"/><rect x="30" y="18" width="3" height="3" fill="#93aed0"/><rect x="33" y="18" width="3" height="3" fill="#93aed0"/><rect x="36" y="18" width="3" height="3" fill="#93aed0"/><rect x="39" y="18" width="3" height="3" fill="#93aed0"/><rect x="42" y="18" width="3" height="3" fill="#93aed0"/><rect x="45" y="18" width="3" height="3" fill="#93aed0"/><rect x="48" y="18" width="3" height="3" fill="#93aed0"/><rect x="51" y="18" width="3" height="3" fill="#93aed0"/><rect x="54" y="18" width="3" height="3" fill="#93aed0"/><rect x="57" y="18" width="3" height="3" fill="#93aed0"/><rect x="60" y="18" width="3" height="3" fill="#93aed0"/><rect x="63" y="18" width="3" height="3" fill="#93aed0"/><rect x="66" y="18" width="3" height="3" fill="#42597a"/><rect x="69" y="18" width="3" height="3" fill="#42597a"/><rect x="72" y="18" width="3" height="3" fill="#42597a"/><rect x="75" y="18" width="3" height="3" fill="#42597a"/><rect x="0" y="21" width="3" height="3" fill="#42597a"/><rect x="3" y="21" width="3" height="3" fill="#42597a"/><rect x="6" y="21" width="3" height="3" fill="#42597a"/><rect x="9" y="21" width="3" height="3" fill="#42597a"/><rect x="12" y="21" width="3" height="3" fill="#7f9cc0"/><rect x="15" y="21" width="3" height="3" fill="#7f9cc0"/><rect x="18" y="21" width="3" height="3" fill="#7f9cc0"/><rect x="21" y="21" width="3" height="3" fill="#7f9cc0"/><rect x="24" y="21" width="3" height="3" fill="#7f9cc0"/><rect x="27" y="21" width="3" height="3" fill="#7f9cc0"/><rect x="30" y="21" width="3" height="3" fill="#7f9cc0"/><rect x="33" y="21" width="3" height="3" fill="#7f9cc0"/><rect x="36" y="21" width="3" height="3" fill="#7f9cc0"/><rect x="39" y="21" width="3" height="3" fill="#7f9cc0"/><rect x="42" y="21" width="3" height="3" fill="#7f9cc0"/><rect x="45" y="21" width="3" height="3" fill="#7f9cc0"/><rect x="48" y="21" width="3" height="3" fill="#7f9cc0"/><rect x="51" y="21" width="3" height="3" fill="#7f9cc0"/><rect x="54" y="21" width="3" height="3" fill="#7f9cc0"/><rect x="57" y="21" width="3" height="3" fill="#7f9cc0"/><rect x="60" y="21" width="3" height="3" fill="#7f9cc0"/><rect x="63" y="21" width="3" height="3" fill="#7f9cc0"/><rect x="66" y="21" width="3" height="3" fill="#42597a"/><rect x="69" y="21" width="3" height="3" fill="#42597a"/><rect x="72" y="21" width="3" height="3" fill="#42597a"/><rect x="75" y="21" width="3" height="3" fill="#42597a"/><rect x="0" y="24" width="3" height="3" fill="#42597a"/><rect x="3" y="24" width="3" height="3" fill="#42597a"/><rect x="6" y="24" width="3" height="3" fill="#42597a"/><rect x="9" y="24" width="3" height="3" fill="#42597a"/><rect x="12" y="24" width="3" height="3" fill="#7f9cc0"/><rect x="15" y="24" width="3" height="3" fill="#7f9cc0"/><rect x="18" y="24" width="3" height="3" fill="#7f9cc0"/><rect x="21" y="24" width="3" height="3" fill="#7f9cc0"/><rect x="24" y="24" width="3" height="3" fill="#7f9cc0"/><rect x="27" y="24" width="3" height="3" fill="#7f9cc0"/><rect x="30" y="24" width="3" height="3" fill="#7f9cc0"/><rect x="33" y="24" width="3" height="3" fill="#7f9cc0"/><rect x="36" y="24" width="3" height="3" fill="#7f9cc0"/><rect x="39" y="24" width="3" height="3" fill="#7f9cc0"/><rect x="42" y="24" width="3" height="3" fill="#7f9cc0"/><rect x="45" y="24" width="3" height="3" fill="#7f9cc0"/><rect x="48" y="24" width="3" height="3" fill="#7f9cc0"/><rect x="51" y="24" width="3" height="3" fill="#7f9cc0"/><rect x="54" y="24" width="3" height="3" fill="#7f9cc0"/><rect x="57" y="24" width="3" height="3" fill="#7f9cc0"/><rect x="60" y="24" width="3" height="3" fill="#7f9cc0"/><rect x="63" y="24" width="3" height="3" fill="#7f9cc0"/><rect x="66" y="24" width="3" height="3" fill="#42597a"/><rect x="69" y="24" width="3" height="3" fill="#42597a"/><rect x="72" y="24" width="3" height="3" fill="#42597a"/><rect x="75" y="24" width="3" height="3" fill="#42597a"/><rect x="0" y="27" width="3" height="3" fill="#42597a"/><rect x="3" y="27" width="3" height="3" fill="#42597a"/><rect x="6" y="27" width="3" height="3" fill="#42597a"/><rect x="9" y="27" width="3" height="3" fill="#42597a"/><rect x="12" y="27" width="3" height="3" fill="#7f9cc0"/><rect x="15" y="27" width="3" height="3" fill="#7f9cc0"/><rect x="18" y="27" width="3" height="3" fill="#7f9cc0"/><rect x="21" y="27" width="3" height="3" fill="#7f9cc0"/><rect x="24" y="27" width="3" height="3" fill="#7f9cc0"/><rect x="27" y="27" width="3" height="3" fill="#7f9cc0"/><rect x="30" y="27" width="3" height="3" fill="#7f9cc0"/><rect x="33" y="27" width="3" height="3" fill="#7f9cc0"/><rect x="36" y="27" width="3" height="3" fill="#7f9cc0"/><rect x="39" y="27" width="3" height="3" fill="#7f9cc0"/><rect x="42" y="27" width="3" height="3" fill="#7f9cc0"/><rect x="45" y="27" width="3" height="3" fill="#7f9cc0"/><rect x="48" y="27" width="3" height="3" fill="#7f9cc0"/><rect x="51" y="27" width="3" height="3" fill="#7f9cc0"/><rect x="54" y="27" width="3" height="3" fill="#7f9cc0"/><rect x="57" y="27" width="3" height="3" fill="#7f9cc0"/><rect x="60" y="27" width="3" height="3" fill="#7f9cc0"/><rect x="63" y="27" width="3" height="3" fill="#7f9cc0"/><rect x="66" y="27" width="3" height="3" fill="#42597a"/><rect x="69" y="27" width="3" height="3" fill="#42597a"/><rect x="72" y="27" width="3" height="3" fill="#42597a"/><rect x="75" y="27" width="3" height="3" fill="#42597a"/><rect x="0" y="30" width="3" height="3" fill="#42597a"/><rect x="3" y="30" width="3" height="3" fill="#42597a"/><rect x="6" y="30" width="3" height="3" fill="#42597a"/><rect x="9" y="30" width="3" height="3" fill="#42597a"/><rect x="12" y="30" width="3" height="3" fill="#7f9cc0"/><rect x="15" y="30" width="3" height="3" fill="#7f9cc0"/><rect x="18" y="30" width="3" height="3" fill="#7f9cc0"/><rect x="21" y="30" width="3" height="3" fill="#7f9cc0"/><rect x="24" y="30" width="3" height="3" fill="#7f9cc0"/><rect x="27" y="30" width="3" height="3" fill="#7f9cc0"/><rect x="30" y="30" width="3" height="3" fill="#7f9cc0"/><rect x="33" y="30" width="3" height="3" fill="#7f9cc0"/><rect x="36" y="30" width="3" height="3" fill="#7f9cc0"/><rect x="39" y="30" width="3" height="3" fill="#7f9cc0"/><rect x="42" y="30" width="3" height="3" fill="#7f9cc0"/><rect x="45" y="30" width="3" height="3" fill="#7f9cc0"/><rect x="48" y="30" width="3" height="3" fill="#7f9cc0"/><rect x="51" y="30" width="3" height="3" fill="#7f9cc0"/><rect x="54" y="30" width="3" height="3" fill="#7f9cc0"/><rect x="57" y="30" width="3" height="3" fill="#7f9cc0"/><rect x="60" y="30" width="3" height="3" fill="#7f9cc0"/><rect x="63" y="30" width="3" height="3" fill="#7f9cc0"/><rect x="66" y="30" width="3" height="3" fill="#42597a"/><rect x="69" y="30" width="3" height="3" fill="#42597a"/><rect x="72" y="30" width="3" height="3" fill="#42597a"/><rect x="75" y="30" width="3" height="3" fill="#42597a"/><rect x="0" y="33" width="3" height="3" fill="#42597a"/><rect x="3" y="33" width="3" height="3" fill="#42597a"/><rect x="6" y="33" width="3" height="3" fill="#42597a"/><rect x="9" y="33" width="3" height="3" fill="#42597a"/><rect x="12" y="33" width="3" height="3" fill="#7f9cc0"/><rect x="15" y="33" width="3" height="3" fill="#7f9cc0"/><rect x="18" y="33" width="3" height="3" fill="#7f9cc0"/><rect x="21" y="33" width="3" height="3" fill="#7f9cc0"/><rect x="24" y="33" width="3" height="3" fill="#7f9cc0"/><rect x="27" y="33" width="3" height="3" fill="#7f9cc0"/><rect x="30" y="33" width="3" height="3" fill="#7f9cc0"/><rect x="33" y="33" width="3" height="3" fill="#7f9cc0"/><rect x="36" y="33" width="3" height="3" fill="#7f9cc0"/><rect x="39" y="33" width="3" height="3" fill="#7f9cc0"/><rect x="42" y="33" width="3" height="3" fill="#7f9cc0"/><rect x="45" y="33" width="3" height="3" fill="#7f9cc0"/><rect x="48" y="33" width="3" height="3" fill="#7f9cc0"/><rect x="51" y="33" width="3" height="3" fill="#7f9cc0"/><rect x="54" y="33" width="3" height="3" fill="#7f9cc0"/><rect x="57" y="33" width="3" height="3" fill="#7f9cc0"/><rect x="60" y="33" width="3" height="3" fill="#7f9cc0"/><rect x="63" y="33" width="3" height="3" fill="#7f9cc0"/><rect x="66" y="33" width="3" height="3" fill="#42597a"/><rect x="69" y="33" width="3" height="3" fill="#42597a"/><rect x="72" y="33" width="3" height="3" fill="#42597a"/><rect x="75" y="33" width="3" height="3" fill="#42597a"/><rect x="0" y="36" width="3" height="3" fill="#42597a"/><rect x="3" y="36" width="3" height="3" fill="#42597a"/><rect x="6" y="36" width="3" height="3" fill="#42597a"/><rect x="9" y="36" width="3" height="3" fill="#42597a"/><rect x="12" y="36" width="3" height="3" fill="#7f9cc0"/><rect x="15" y="36" width="3" height="3" fill="#7f9cc0"/><rect x="18" y="36" width="3" height="3" fill="#7f9cc0"/><rect x="21" y="36" width="3" height="3" fill="#7f9cc0"/><rect x="24" y="36" width="3" height="3" fill="#7f9cc0"/><rect x="27" y="36" width="3" height="3" fill="#7f9cc0"/><rect x="30" y="36" width="3" height="3" fill="#7f9cc0"/><rect x="33" y="36" width="3" height="3" fill="#7f9cc0"/><rect x="36" y="36" width="3" height="3" fill="#7f9cc0"/><rect x="39" y="36" width="3" height="3" fill="#7f9cc0"/><rect x="42" y="36" width="3" height="3" fill="#7f9cc0"/><rect x="45" y="36" width="3" height="3" fill="#7f9cc0"/><rect x="48" y="36" width="3" height="3" fill="#7f9cc0"/><rect x="51" y="36" width="3" height="3" fill="#7f9cc0"/><rect x="54" y="36" width="3" height="3" fill="#7f9cc0"/><rect x="57" y="36" width="3" height="3" fill="#7f9cc0"/><rect x="60" y="36" width="3" height="3" fill="#7f9cc0"/><rect x="63" y="36" width="3" height="3" fill="#7f9cc0"/><rect x="66" y="36" width="3" height="3" fill="#42597a"/><rect x="69" y="36" width="3" height="3" fill="#42597a"/><rect x="72" y="36" width="3" height="3" fill="#42597a"/><rect x="75" y="36" width="3" height="3" fill="#42597a"/><rect x="0" y="39" width="3" height="3" fill="#42597a"/><rect x="3" y="39" width="3" height="3" fill="#42597a"/><rect x="6" y="39" width="3" height="3" fill="#42597a"/><rect x="9" y="39" width="3" height="3" fill="#42597a"/><rect x="12" y="39" width="3" height="3" fill="#5f7fa8"/><rect x="15" y="39" width="3" height="3" fill="#5f7fa8"/><rect x="18" y="39" width="3" height="3" fill="#5f7fa8"/><rect x="21" y="39" width="3" height="3" fill="#5f7fa8"/><rect x="24" y="39" width="3" height="3" fill="#5f7fa8"/><rect x="27" y="39" width="3" height="3" fill="#5f7fa8"/><rect x="30" y="39" width="3" height="3" fill="#5f7fa8"/><rect x="33" y="39" width="3" height="3" fill="#5f7fa8"/><rect x="36" y="39" width="3" height="3" fill="#5f7fa8"/><rect x="39" y="39" width="3" height="3" fill="#5f7fa8"/><rect x="42" y="39" width="3" height="3" fill="#5f7fa8"/><rect x="45" y="39" width="3" height="3" fill="#5f7fa8"/><rect x="48" y="39" width="3" height="3" fill="#5f7fa8"/><rect x="51" y="39" width="3" height="3" fill="#5f7fa8"/><rect x="54" y="39" width="3" height="3" fill="#5f7fa8"/><rect x="57" y="39" width="3" height="3" fill="#5f7fa8"/><rect x="60" y="39" width="3" height="3" fill="#5f7fa8"/><rect x="63" y="39" width="3" height="3" fill="#5f7fa8"/><rect x="66" y="39" width="3" height="3" fill="#42597a"/><rect x="69" y="39" width="3" height="3" fill="#42597a"/><rect x="72" y="39" width="3" height="3" fill="#42597a"/><rect x="75" y="39" width="3" height="3" fill="#42597a"/><rect x="0" y="42" width="3" height="3" fill="#42597a"/><rect x="3" y="42" width="3" height="3" fill="#42597a"/><rect x="6" y="42" width="3" height="3" fill="#2f3f56"/><rect x="9" y="42" width="3" height="3" fill="#2f3f56"/><rect x="12" y="42" width="3" height="3" fill="#2f3f56"/><rect x="15" y="42" width="3" height="3" fill="#2f3f56"/><rect x="18" y="42" width="3" height="3" fill="#2f3f56"/><rect x="21" y="42" width="3" height="3" fill="#2f3f56"/><rect x="24" y="42" width="3" height="3" fill="#2f3f56"/><rect x="27" y="42" width="3" height="3" fill="#2f3f56"/><rect x="30" y="42" width="3" height="3" fill="#2f3f56"/><rect x="33" y="42" width="3" height="3" fill="#2f3f56"/><rect x="36" y="42" width="3" height="3" fill="#2f3f56"/><rect x="39" y="42" width="3" height="3" fill="#2f3f56"/><rect x="42" y="42" width="3" height="3" fill="#2f3f56"/><rect x="45" y="42" width="3" height="3" fill="#2f3f56"/><rect x="48" y="42" width="3" height="3" fill="#2f3f56"/><rect x="51" y="42" width="3" height="3" fill="#2f3f56"/><rect x="54" y="42" width="3" height="3" fill="#2f3f56"/><rect x="57" y="42" width="3" height="3" fill="#2f3f56"/><rect x="60" y="42" width="3" height="3" fill="#2f3f56"/><rect x="63" y="42" width="3" height="3" fill="#2f3f56"/><rect x="66" y="42" width="3" height="3" fill="#2f3f56"/><rect x="69" y="42" width="3" height="3" fill="#2f3f56"/><rect x="72" y="42" width="3" height="3" fill="#42597a"/><rect x="75" y="42" width="3" height="3" fill="#42597a"/><rect x="6" y="45" width="3" height="3" fill="#2f3f56"/><rect x="9" y="45" width="3" height="3" fill="#2f3f56"/><rect x="12" y="45" width="3" height="3" fill="#2f3f56"/><rect x="15" y="45" width="3" height="3" fill="#2f3f56"/><rect x="18" y="45" width="3" height="3" fill="#2f3f56"/><rect x="21" y="45" width="3" height="3" fill="#2f3f56"/><rect x="24" y="45" width="3" height="3" fill="#2f3f56"/><rect x="27" y="45" width="3" height="3" fill="#2f3f56"/><rect x="30" y="45" width="3" height="3" fill="#2f3f56"/><rect x="33" y="45" width="3" height="3" fill="#2f3f56"/><rect x="36" y="45" width="3" height="3" fill="#2f3f56"/><rect x="39" y="45" width="3" height="3" fill="#2f3f56"/><rect x="42" y="45" width="3" height="3" fill="#2f3f56"/><rect x="45" y="45" width="3" height="3" fill="#2f3f56"/><rect x="48" y="45" width="3" height="3" fill="#2f3f56"/><rect x="51" y="45" width="3" height="3" fill="#2f3f56"/><rect x="54" y="45" width="3" height="3" fill="#2f3f56"/><rect x="57" y="45" width="3" height="3" fill="#2f3f56"/><rect x="60" y="45" width="3" height="3" fill="#2f3f56"/><rect x="63" y="45" width="3" height="3" fill="#2f3f56"/><rect x="66" y="45" width="3" height="3" fill="#2f3f56"/><rect x="69" y="45" width="3" height="3" fill="#2f3f56"/></svg>