<svg xmlns="http://www.w3.org/2000/svg" viewBox="0 0 32 32" width="32" height="32"><rect x="12" y="24" width="2" height="2" fill="#173f3a"/><rect x="24" y="14" width="2" height="2" fill="#173f3a"/><rect x="6" y="8" width="2" height="2" fill="#173f3a"/><rect x="12" y="30" width="2" height="2" fill="#173f3a"/><rect x="8" y="6" width="2" height="2" fill="#173f3a"/><rect x="6" y="14" width="2" height="2" fill="#173f3a"/><rect x="10" y="8" width="2" height="2" fill="#173f3a"/><rect x="28" y="14" width="2" height="2" fill="#173f3a"/><rect x="24" y="26" width="2" height="2" fill="#173f3a"/><rect x="6" y="26" width="2" height="2" fill="#173f3a"/><rect x="16" y="6" width="2" height="2" fill="#173f3a"/><rect x="28" y="26" width="2" height="2" fill="#173f3a"/><rect x="22" y="10" width="2" height="2" fill="#173f3a"/><rect x="16" y="24" width="2" height="2" fill="#173f3a"/><rect x="4" y="16" width="2" height="2" fill="#173f3a"/><rect x="4" y="28" width="2" height="2" fill="#173f3a"/><rect x="26" y="28" width="2" height="2" fill="#173f3a"/><rect x="12" y="4" width="2" height="2" fill="#173f3a"/><rect x="14" y="2" width="2" height="2" fill="#173f3a"/><rect x="14" y="26" width="2" height="2" fill="#173f3a"/><rect x="24" y="18" width="2" height="2" fill="#173f3a"/><rect x="30" y="18" width="2" height="2" fill="#173f3a"/><rect x="8" y="10" width="2" height="2" fill="#173f3a"/><rect x="24" y="12" width="2" height="2" fill="#173f3a"/><rect x="6" y="18" width="2" height="2" fill="#173f3a"/><rect x="6" y="12" width="2" height="2" fill="#173f3a"/><rect x="16" y="4" width="2" height="2" fill="#173f3a"/><rect x="16" y="28" width="2" height="2" fill="#173f3a"/><rect x="2" y="4" width="2" height="2" fill="#173f3a"/><rect x="20" y="22" width="2" height="2" fill="#173f3a"/><rect x="4" y="2" width="2" height="2" fill="#173f3a"/><rect x="26" y="2" width="2" height="2" fill="#173f3a"/><rect x="26" y="14" width="2" height="2" fill="#173f3a"/><rect x="22" y="20" width="2" height="2" fill="#173f3a"/><rect x="18" y="26" width="2" height="2" fill="#173f3a"/><rect x="18" y="30" width="2" height="2" fill="#173f3a"/><rect x="2" y="16" width="2" height="2" fill="#173f3a"/><rect x="14" y="6" width="2" height="2" fill="#173f3a"/><rect x="14" y="24" width="2" height="2" fill="#173f3a"/><rect x="24" y="4" width="2" height="2" fill="#173f3a"/><rect x="28" y="4" width="2" height="2" fill="#173f3a"/><rect x="6" y="4" width="2" height="2" fill="#173f3a"/><rect x="24" y="22" width="2" height="2" fill="#173f3a"/><rect x="24" y="16" width="2" height="2" fill="#173f3a"/><rect x="8" y="20" width="2" height="2" fill="#173f3a"/><rect x="18" y="0" width="2" height="2" fill="#173f3a"/><rect x="6" y="16" width="2" height="2" fill="#173f3a"/><rect x="28" y="16" width="2" height="2" fill="#173f3a"/><rect x="10" y="22" width="2" height="2" fill="#173f3a"/><rect x="18" y="6" width="2" height="2" fill="#173f3a"/><rect x="16" y="2" width="2" height="2" fill="#173f3a"/><rect x="20" y="8" width="2" height="2" fill="#173f3a"/><rect x="18" y="24" width="2" height="2" fill="#173f3a"/><rect x="0" y="18" width="2" height="2" fill="#173f3a"/><rect x="0" y="12" width="2" height="2" fill="#173f3a"/><rect x="4" y="6" width="2" height="2" fill="#173f3a"/><rect x="26" y="6" width="2" height="2" fill="#173f3a"/><rect x="2" y="14" width="2" height="2" fill="#173f3a"/><rect x="30" y="12" width="2" height="2" fill="#173f3a"/><rect x="4" y="12" width="2" height="2" fill="#173f3a"/><rect x="26" y="18" width="2" height="2" fill="#173f3a"/><rect x="26" y="24" width="2" height="2" fill="#173f3a"/><rect x="12" y="0" width="2" height="2" fill="#173f3a"/><rect x="22" y="24" width="2" height="2" fill="#173f3a"/><rect x="2" y="26" width="2" height="2" fill="#173f3a"/><rect x="4" y="24" width="2" height="2" fill="#173f3a"/><rect x="12" y="6" width="2" height="2" fill="#173f3a"/><rect x="14" y="28" width="2" height="2" fill="#173f3a"/><rect x="14" y="0" width="2" height="2" fill="#d6f0ea"/><rect x="16" y="0" width="2" height="2" fill="#d6f0ea"/><rect x="4" y="4" width="2" height="2" fill="#d6f0ea"/><rect x="14" y="4" width="2" height="2" fill="#2a6f6a"/><rect x="26" y="4" width="2" height="2" fill="#d6f0ea"/><rect x="6" y="6" width="2" height="2" fill="#2a6f6a"/><rect x="12" y="8" width="2" height="2" fill="#3f8f8a"/><rect x="14" y="8" width="2" height="2" fill="#3f8f8a"/><rect x="16" y="8" width="2" height="2" fill="#3f8f8a"/><rect x="18" y="8" width="2" height="2" fill="#3f8f8a"/><rect x="10" y="10" width="2" height="2" fill="#6fc0b8"/><rect x="12" y="10" width="2" height="2" fill="#6fc0b8"/><rect x="14" y="10" width="2" height="2" fill="#6fc0b8"/><rect x="16" y="10" width="2" height="2" fill="#3f8f8a"/><rect x="18" y="10" width="2" height="2" fill="#3f8f8a"/><rect x="20" y="10" width="2" height="2" fill="#3f8f8a"/><rect x="8" y="12" width="2" height="2" fill="#3f8f8a"/><rect x="10" y="12" width="2" height="2" fill="#6fc0b8"/><rect x="12" y="12" width="2" height="2" fill="#6fc0b8"/><rect x="14" y="12" width="2" height="2" fill="#6fc0b8"/><rect x="16" y="12" width="2" height="2" fill="#3f8f8a"/><rect x="18" y="12" width="2" height="2" fill="#3f8f8a"/><rect x="20" y="12" width="2" height="2" fill="#3f8f8a"/><rect x="22" y="12" width="2" height="2" fill="#3f8f8a"/><rect x="0" y="14" width="2" height="2" fill="#d6f0ea"/><rect x="4" y="14" width="2" height="2" fill="#2a6f6a"/><rect x="8" y="14" width="2" height="2" fill="#3f8f8a"/><rect x="10" y="14" width="2" height="2" fill="#6fc0b8"/><rect x="12" y="14" width="2" height="2" fill="#6fc0b8"/><rect x="14" y="14" width="2" height="2" fill="#6fc0b8"/><rect x="16" y="14" width="2" height="2" fill="#3f8f8a"/><rect x="18" y="14" width="2" height="2" fill="#3f8f8a"/><rect x="20" y="14" width="2" height="2" fill="#3f8f8a"/><rect x="22" y="14" width="2" height="2" fill="#3f8f8a"/><rect x="30" y="14" width="2" height="2" fill="#d6f0ea"/><rect x="0" y="16" width="2" height="2" fill="#d6f0ea"/><rect x="8" y="16" width="2" height="2" fill="#3f8f8a"/><rect x="10" y="16" width="2" height="2" fill="#3f8f8a"/><rect x="12" y="16" width="2" height="2" fill="#3f8f8a"/><rect x="14" y="16" width="2" height="2" fill="#3f8f8a"/><rect x="16" y="16" width="2" height="2" fill="#2a6f6a"/><rect x="18" y="16" width="2" height="2" fill="#2a6f6a"/><rect x="20" y="16" width="2" height="2" fill="#2a6f6a"/><rect x="22" y="16" width="2" height="2" fill="#3f8f8a"/><rect x="26" y="16" width="2" height="2" fill="#2a6f6a"/><rect x="30" y="16" width="2" height="2" fill="#d6f0ea"/><rect x="8" y="18" width="2" height="2" fill="#3f8f8a"/><rect x="10" y="18" width="2" height="2" fill="#3f8f8a"/><rect x="12" y="18" width="2" height="2" fill="#3f8f8a"/><rect x="14" y="18" width="2" height="2" fill="#3f8f8a"/><rect x="16" y="18" width="2" height="2" fill="#2a6f6a"/><rect x="18" y="18" width="2" height="2" fill="#2a6f6a"/><rect x="20" y="18" width="2" height="2" fill="#2a6f6a"/><rect x="22" y="18" width="2" height="2" fill="#3f8f8a"/><rect x="10" y="20" width="2" height="2" fill="#3f8f8a"/><rect x="12" y="20" width="2" height="2" fill="#3f8f8a"/><rect x="14" y="20" width="2" height="2" fill="#3f8f8a"/><rect x="16" y="20" width="2" height="2" fill="#2a6f6a"/><rect x="18" y="20" width="2" height="2" fill="#2a6f6a"/><rect x="20" y="20" width="2" height="2" fill="#2a6f6a"/><rect x="12" y="22" width="2" height="2" fill="#3f8f8a"/><rect x="14" y="22" width="2" height="2" fill="#3f8f8a"/><rect x="16" y="22" width="2" height="2" fill="#3f8f8a"/><rect x="18" y="22" width="2" height="2" fill="#3f8f8a"/><rect x="24" y="24" width="2" height="2" fill="#2a6f6a"/><rect x="4" y="26" width="2" height="2" fill="#d6f0ea"/><rect x="16" y="26" width="2" height="2" fill="#2a6f6a"/><rect x="26" y="26" width="2" height="2" fill="#d6f0ea"/><rect x="14" y="30" width="2" height="2" fill="#d6f0ea"/><rect x="16" y="30" width="2" height="2" fill="#d6f0ea"/></svg>