<svg xmlns="http://www.w3.org/2000/svg" viewBox="0 0 10 10" width="10" height="10"><rect x="0" y="0" width="2" height="2" fill="#e0932a"/><rect x="2" y="0" width="2" height="2" fill="#e0932a"/><rect x="4" y="0" width="2" height="2" fill="#e0932a"/><rect x="6" y="0" width="2" height="2" fill="#e0932a"/><rect x="8" y="0" width="2" height="2" fill="#e0932a"/><rect x="0" y="2" width="2" height="2" fill="#e0932a"/><rect x="2" y="2" width="2" height="2" fill="#ffcf3a"/><rect x="4" y="2" width="2" height="2" fill="#ffcf3a"/><rect x="6" y="2" width="2" height="2" fill="#ffcf3a"/><rect x="8" y="2" width="2" height="2" fill="#e0932a"/><rect x="0" y="4" width="2" height="2" fill="#e0932a"/><rect x="2" y="4" width="2" height="2" fill="#ffcf3a"/><rect x="4" y="4" width="2" height="2" fill="#ffe88a"/><rect x="6" y="4" width="2" height="2" fill="#ffcf3a"/><rect x="8" y="4" width="2" height="2" fill="#e0932a"/><rect x="0" y="6" width="2" height="2" fill="#e0932a"/><rect x="2" y="6" width="2" height="2" fill="#ffcf3a"/><rect x="4" y="6" width="2" height="2" fill="#ffcf3a"/><rect x="6" y="6" width="2" height="2" fill="#ffcf3a"/><rect x="8" y="6" width="2" height="2" fill="#e0932a"/><rect x="0" y="8" width="2" height="2" fill="#e0932a"/><rect x="2" y="8" width="2" height="2" fill="#e0932a"/><rect x="4" y="8" width="2" height="2" fill="#e0932a"/><rect x="6" y="8" width="2" height="2" fill="#e0932a"/><rect x="8" y="8" width="2" height="2" fill="#e0932a"/></svg>