<svg xmlns="http://www.w3.org/2000/svg" viewBox="0 0 8 8" width="8" height="8"><rect x="0" y="0" width="2" height="2" fill="#7fd6b0"/><rect x="2" y="0" width="2" height="2" fill="#7fd6b0"/><rect x="4" y="0" width="2" height="2" fill="#7fd6b0"/><rect x="6" y="0" width="2" height="2" fill="#7fd6b0"/><rect x="0" y="2" width="2" height="2" fill="#7fd6b0"/><rect x="2" y="2" width="2" height="2" fill="#d6fff0"/><rect x="4" y="2" width="2" height="2" fill="#7fd6b0"/><rect x="6" y="2" width="2" height="2" fill="#7fd6b0"/><rect x="0" y="4" width="2" height="2" fill="#7fd6b0"/><rect x="2" y="4" width="2" height="2" fill="#7fd6b0"/><rect x="4" y="4" width="2" height="2" fill="#7fd6b0"/><rect x="6" y="4" width="2" height="2" fill="#7fd6b0"/><rect x="0" y="6" width="2" height="2" fill="#7fd6b0"/><rect x="2" y="6" width="2" height="2" fill="#7fd6b0"/><rect x="4" y="6" width="2" height="2" fill="#7fd6b0"/><rect x="6" y="6" width="2" height="2" fill="#7fd6b0"/></svg>