<svg xmlns="http://www.w3.org/2000/svg" viewBox="0 0 18 18" width="18" height="18"><rect x="8" y="2" width="2" height="2" fill="#eaf0ff"/><rect x="8" y="4" width="2" height="2" fill="#eaf0ff"/><rect x="6" y="6" width="2" height="2" fill="#5fe0ff"/><rect x="8" y="6" width="2" height="2" fill="#eaf0ff"/><rect x="2" y="8" width="2" height="2" fill="#eaf0ff"/><rect x="4" y="8" width="2" height="2" fill="#eaf0ff"/><rect x="6" y="8" width="2" height="2" fill="#eaf0ff"/><rect x="8" y="8" width="2" height="2" fill="#ffffff"/><rect x="10" y="8" width="2" height="2" fill="#eaf0ff"/><rect x="12" y="8" width="2" height="2" fill="#eaf0ff"/><rect x="14" y="8" width="2" height="2" fill="#eaf0ff"/><rect x="8" y="10" width="2" height="2" fill="#eaf0ff"/><rect x="10" y="10" width="2" height="2" fill="#5fe0ff"/><rect x="8" y="12" width="2" height="2" fill="#eaf0ff"/><rect x="8" y="14" width="2" height="2" fill="#eaf0ff"/></svg>