<svg xmlns="http://www.w3.org/2000/svg" viewBox="0 0 26 26" width="26" height="26"><rect x="12" y="24" width="2" height="2" fill="#14141f"/><rect x="6" y="8" width="2" height="2" fill="#14141f"/><rect x="24" y="20" width="2" height="2" fill="#14141f"/><rect x="10" y="8" width="2" height="2" fill="#14141f"/><rect x="8" y="24" width="2" height="2" fill="#14141f"/><rect x="0" y="10" width="2" height="2" fill="#14141f"/><rect x="16" y="24" width="2" height="2" fill="#14141f"/><rect x="0" y="16" width="2" height="2" fill="#14141f"/><rect x="20" y="24" width="2" height="2" fill="#14141f"/><rect x="0" y="22" width="2" height="2" fill="#14141f"/><rect x="14" y="8" width="2" height="2" fill="#14141f"/><rect x="2" y="24" width="2" height="2" fill="#14141f"/><rect x="24" y="18" width="2" height="2" fill="#14141f"/><rect x="6" y="24" width="2" height="2" fill="#14141f"/><rect x="22" y="8" width="2" height="2" fill="#14141f"/><rect x="10" y="24" width="2" height="2" fill="#14141f"/><rect x="18" y="8" width="2" height="2" fill="#14141f"/><rect x="0" y="14" width="2" height="2" fill="#14141f"/><rect x="4" y="8" width="2" height="2" fill="#14141f"/><rect x="0" y="20" width="2" height="2" fill="#14141f"/><rect x="12" y="8" width="2" height="2" fill="#14141f"/><rect x="14" y="24" width="2" height="2" fill="#14141f"/><rect x="24" y="10" width="2" height="2" fill="#14141f"/><rect x="24" y="22" width="2" height="2" fill="#14141f"/><rect x="8" y="8" width="2" height="2" fill="#14141f"/><rect x="16" y="8" width="2" height="2" fill="#14141f"/><rect x="20" y="8" width="2" height="2" fill="#14141f"/><rect x="18" y="24" width="2" height="2" fill="#14141f"/><rect x="0" y="18" width="2" height="2" fill="#14141f"/><rect x="2" y="8" width="2" height="2" fill="#14141f"/><rect x="0" y="12" width="2" height="2" fill="#14141f"/><rect x="22" y="24" width="2" height="2" fill="#14141f"/><rect x="4" y="24" width="2" height="2" fill="#14141f"/><rect x="2" y="10" width="2" height="2" fill="#9fc26b"/><rect x="4" y="10" width="2" height="2" fill="#9fc26b"/><rect x="6" y="10" width="2" height="2" fill="#9fc26b"/><rect x="8" y="10" width="2" height="2" fill="#9fc26b"/><rect x="10" y="10" width="2" height="2" fill="#9fc26b"/><rect x="12" y="10" width="2" height="2" fill="#9fc26b"/><rect x="14" y="10" width="2" height="2" fill="#9fc26b"/><rect x="16" y="10" width="2" height="2" fill="#9fc26b"/><rect x="18" y="10" width="2" height="2" fill="#1a1a2e"/><rect x="20" y="10" width="2" height="2" fill="#9fc26b"/><rect x="22" y="10" width="2" height="2" fill="#9fc26b"/><rect x="2" y="12" width="2" height="2" fill="#9fc26b"/><rect x="4" y="12" width="2" height="2" fill="#9fc26b"/><rect x="6" y="12" width="2" height="2" fill="#9fc26b"/><rect x="8" y="12" width="2" height="2" fill="#9fc26b"/><rect x="10" y="12" width="2" height="2" fill="#9fc26b"/><rect x="12" y="12" width="2" height="2" fill="#9fc26b"/><rect x="14" y="12" width="2" height="2" fill="#9fc26b"/><rect x="16" y="12" width="2" height="2" fill="#9fc26b"/><rect x="18" y="12" width="2" height="2" fill="#9fc26b"/><rect x="20" y="12" width="2" height="2" fill="#7a1f1f"/><rect x="22" y="12" width="2" height="2" fill="#7a1f1f"/><rect x="24" y="12" width="2" height="2" fill="#7a1f1f"/><rect x="2" y="14" width="2" height="2" fill="#9fc26b"/><rect x="4" y="14" width="2" height="2" fill="#9fc26b"/><rect x="6" y="14" width="2" height="2" fill="#9fc26b"/><rect x="8" y="14" width="2" height="2" fill="#9fc26b"/><rect x="10" y="14" width="2" height="2" fill="#9fc26b"/><rect x="12" y="14" width="2" height="2" fill="#9fc26b"/><rect x="14" y="14" width="2" height="2" fill="#9fc26b"/><rect x="16" y="14" width="2" height="2" fill="#9fc26b"/><rect x="18" y="14" width="2" height="2" fill="#9fc26b"/><rect x="20" y="14" width="2" height="2" fill="#7a1f1f"/><rect x="22" y="14" width="2" height="2" fill="#7a1f1f"/><rect x="24" y="14" width="2" height="2" fill="#7a1f1f"/><rect x="2" y="16" width="2" height="2" fill="#6b8f3f"/><rect x="4" y="16" width="2" height="2" fill="#6b8f3f"/><rect x="6" y="16" width="2" height="2" fill="#6b8f3f"/><rect x="8" y="16" width="2" height="2" fill="#6b8f3f"/><rect x="10" y="16" width="2" height="2" fill="#6b8f3f"/><rect x="12" y="16" width="2" height="2" fill="#6b8f3f"/><rect x="14" y="16" width="2" height="2" fill="#6b8f3f"/><rect x="16" y="16" width="2" height="2" fill="#6b8f3f"/><rect x="18" y="16" width="2" height="2" fill="#1a1a2e"/><rect x="20" y="16" width="2" height="2" fill="#7a1f1f"/><rect x="22" y="16" width="2" height="2" fill="#7a1f1f"/><rect x="24" y="16" width="2" height="2" fill="#7a1f1f"/><rect x="2" y="18" width="2" height="2" fill="#6b8f3f"/><rect x="4" y="18" width="2" height="2" fill="#6b8f3f"/><rect x="6" y="18" width="2" height="2" fill="#6b8f3f"/><rect x="8" y="18" width="2" height="2" fill="#6b8f3f"/><rect x="10" y="18" width="2" height="2" fill="#6b8f3f"/><rect x="12" y="18" width="2" height="2" fill="#6b8f3f"/><rect x="14" y="18" width="2" height="2" fill="#6b8f3f"/><rect x="16" y="18" width="2" height="2" fill="#6b8f3f"/><rect x="18" y="18" width="2" height="2" fill="#6b8f3f"/><rect x="20" y="18" width="2" height="2" fill="#6b8f3f"/><rect x="22" y="18" width="2" height="2" fill="#6b8f3f"/><rect x="2" y="20" width="2" height="2" fill="#4a6b2a"/><rect x="4" y="20" width="2" height="2" fill="#4a6b2a"/><rect x="6" y="20" width="2" height="2" fill="#4a6b2a"/><rect x="8" y="20" width="2" height="2" fill="#4a6b2a"/><rect x="10" y="20" width="2" height="2" fill="#4a6b2a"/><rect x="12" y="20" width="2" height="2" fill="#4a6b2a"/><rect x="14" y="20" width="2" height="2" fill="#4a6b2a"/><rect x="16" y="20" width="2" height="2" fill="#4a6b2a"/><rect x="18" y="20" width="2" height="2" fill="#4a6b2a"/><rect x="20" y="20" width="2" height="2" fill="#4a6b2a"/><rect x="22" y="20" width="2" height="2" fill="#4a6b2a"/><rect x="2" y="22" width="2" height="2" fill="#4a6b2a"/><rect x="4" y="22" width="2" height="2" fill="#4a6b2a"/><rect x="6" y="22" width="2" height="2" fill="#4a6b2a"/><rect x="8" y="22" width="2" height="2" fill="#4a6b2a"/><rect x="10" y="22" width="2" height="2" fill="#4a6b2a"/><rect x="12" y="22" width="2" height="2" fill="#4a6b2a"/><rect x="14" y="22" width="2" height="2" fill="#4a6b2a"/><rect x="16" y="22" width="2" height="2" fill="#4a6b2a"/><rect x="18" y="22" width="2" height="2" fill="#4a6b2a"/><rect x="20" y="22" width="2" height="2" fill="#4a6b2a"/><rect x="22" y="22" width="2" height="2" fill="#4a6b2a"/></svg>